<?xml version="1.0" encoding="UTF-8"?>
<svg version="1.1" xmlns="http://www.w3.org/2000/svg" width="45" height="45">
<path d="M0 0 C0.84755859 0.00966797 1.69511719 0.01933594 2.56835938 0.02929688 C3.44943359 0.05443359 4.33050781 0.07957031 5.23828125 0.10546875 C6.13095703 0.11900391 7.02363281 0.13253906 7.94335938 0.14648438 C10.14644291 0.18182796 12.34830707 0.23116382 14.55078125 0.29296875 C14.22078125 1.94296875 13.89078125 3.59296875 13.55078125 5.29296875 C5.63078125 5.78796875 5.63078125 5.78796875 -2.44921875 6.29296875 C-2.44921875 16.19296875 -2.44921875 26.09296875 -2.44921875 36.29296875 C12.40078125 35.79796875 12.40078125 35.79796875 27.55078125 35.29296875 C27.88078125 29.68296875 28.21078125 24.07296875 28.55078125 18.29296875 C29.87078125 18.29296875 31.19078125 18.29296875 32.55078125 18.29296875 C32.66686851 21.56350392 32.73798836 24.83351055 32.80078125 28.10546875 C32.83429687 29.03423828 32.8678125 29.96300781 32.90234375 30.91992188 C32.91523437 31.81259766 32.928125 32.70527344 32.94140625 33.625 C32.96235352 34.44718018 32.98330078 35.26936035 33.00488281 36.11645508 C32.55078125 38.29296875 32.55078125 38.29296875 30.97949219 40.05981445 C27.65328339 41.74866454 25.02429565 41.68167097 21.30078125 41.69140625 C20.6056543 41.69427643 19.91052734 41.69714661 19.19433594 41.70010376 C17.72850731 41.70214009 16.26265124 41.69664031 14.796875 41.68408203 C12.55797348 41.66802035 10.32087688 41.68394333 8.08203125 41.703125 C6.65494395 41.70114249 5.22785776 41.69729865 3.80078125 41.69140625 C2.5065625 41.68802246 1.21234375 41.68463867 -0.12109375 41.68115234 C-5.20507076 41.08817087 -5.20507076 41.08817087 -7.44921875 38.29296875 C-7.84274528 35.54307049 -7.9870005 33.19782377 -7.9453125 30.44921875 C-7.94676773 29.68371704 -7.94822296 28.91821533 -7.94972229 28.1295166 C-7.94806348 26.51224967 -7.93650398 24.89496692 -7.91577148 23.27783203 C-7.88682115 20.80172711 -7.89516013 18.32776374 -7.90820312 15.8515625 C-7.90196541 14.27993751 -7.8935742 12.70831928 -7.8828125 11.13671875 C-7.88574814 10.39603149 -7.88868378 9.65534424 -7.89170837 8.89221191 C-7.83829892 5.98337933 -7.78016317 3.8154547 -6.20019531 1.32104492 C-3.97994395 0.01743666 -2.56847384 -0.05171424 0 0 Z " fill="#AF6700" transform="translate(7.44921875,3.70703125)"/>
<path d="M0 0 C2.0625 1.625 2.0625 1.625 3 4 C2.57065787 11.13804386 -1.63865645 14.50081678 -6.49829102 19.31494141 C-7.92573919 20.73827311 -9.31505399 22.19255958 -10.70507812 23.65234375 C-15.8655051 28.83103126 -19.73870843 32.07599102 -27.10375977 33.02050781 C-29 33 -29 33 -30 32 C-30.32579917 26.77703202 -29.78941926 22.28743017 -26.3125 18.25 C-24.88537865 16.82287865 -23.44565302 15.40834585 -22 14 C-20.89674699 12.80081195 -19.798185 11.59729927 -18.703125 10.390625 C-17.49104858 9.09238046 -16.27749207 7.79551628 -15.0625 6.5 C-14.48991455 5.86352539 -13.9173291 5.22705078 -13.32739258 4.57128906 C-8.9275981 0.01810726 -6.31581228 -0.86976228 0 0 Z M-8.09057617 6.58886719 C-8.81736572 7.31750977 -9.54415527 8.04615234 -10.29296875 8.796875 C-11.08767578 9.5909375 -11.88238281 10.385 -12.70117188 11.203125 C-13.9319043 12.46382812 -13.9319043 12.46382812 -15.1875 13.75 C-16.01958984 14.575 -16.85167969 15.4 -17.70898438 16.25 C-22.66897394 20.87337856 -22.66897394 20.87337856 -25 27 C-20.97333712 25.64878865 -18.5610698 23.93658276 -15.57421875 20.9375 C-14.77822266 20.14085937 -13.98222656 19.34421875 -13.16210938 18.5234375 C-11.93717773 17.27433594 -11.93717773 17.27433594 -10.6875 16 C-9.85154297 15.16726563 -9.01558594 14.33453125 -8.15429688 13.4765625 C-3.84148366 9.83218537 -3.84148366 9.83218537 -2 5 C-5.9068679 4.59660644 -5.9068679 4.59660644 -8.09057617 6.58886719 Z " fill="#AF6700" transform="translate(42,0)"/>
</svg>
