<?xml version="1.0" standalone="no"?>
<!DOCTYPE svg PUBLIC "-//W3C//DTD SVG 20010904//EN"
 "http://www.w3.org/TR/2001/REC-SVG-20010904/DTD/svg10.dtd">
<svg version="1.0" xmlns="http://www.w3.org/2000/svg"
 width="53.000000pt" height="30.000000pt" viewBox="0 0 53.000000 30.000000"
 preserveAspectRatio="xMidYMid meet">

<g transform="translate(0.000000,30.000000) scale(0.100000,-0.100000)"
fill="#000000" stroke="none">
<path d="M3 284 c-3 -8 2 -23 11 -32 15 -15 17 -15 33 0 13 14 14 20 3 32 -16
20 -39 20 -47 0z"/>
<path d="M120 270 l0 -30 200 0 200 0 0 30 0 30 -200 0 -200 0 0 -30z"/>
<path d="M4 165 c-4 -9 -2 -21 4 -27 16 -16 47 -5 47 17 0 26 -42 34 -51 10z"/>
<path d="M120 155 l0 -25 200 0 200 0 0 25 0 25 -200 0 -200 0 0 -25z"/>
<path d="M10 55 c-7 -8 -10 -22 -6 -30 7 -19 45 -19 52 0 6 15 -11 45 -26 45
-4 0 -13 -7 -20 -15z"/>
<path d="M120 40 l0 -30 200 0 200 0 0 30 0 30 -200 0 -200 0 0 -30z"/>
</g>
</svg>
