<?xml version="1.0" encoding="UTF-8"?>
<svg version="1.1" xmlns="http://www.w3.org/2000/svg" width="40" height="48">
<path d="M0 0 C1.32 0 2.64 0 4 0 C4.13687714 1.53910736 4.23284005 3.08187295 4.3125 4.625 C4.37050781 5.48351562 4.42851563 6.34203125 4.48828125 7.2265625 C3.94719264 10.29994579 3.05348457 12.46570673 0.93676758 14.79541016 C-3.51236533 17.56258799 -9.24136903 16.88591152 -14.3125 16.875 C-16.1387793 16.9059375 -16.1387793 16.9059375 -18.00195312 16.9375 C-21.00198568 16.98455933 -23.99967407 17.00444446 -27 17 C-26.505 17.4125 -26.01 17.825 -25.5 18.25 C-24 20 -24 20 -24 24 C-27.98089145 23.87936693 -30.04870117 22.36106966 -32.875 19.75 C-35.93229984 16.45133438 -35.93229984 16.45133438 -36.375 13.5 C-34.2906705 9.71030999 -31.52166803 6.53005964 -28 4 C-26.68 4 -25.36 4 -24 4 C-24.75 8.75 -24.75 8.75 -27 11 C-23.41694008 11.11627503 -19.83436583 11.1872736 -16.25 11.25 C-15.23421875 11.28351562 -14.2184375 11.31703125 -13.171875 11.3515625 C-7.4241826 11.53465501 -7.4241826 11.53465501 -2.34375 9.21875 C-0.52240035 6.21140524 -0.26693059 3.4700977 0 0 Z " fill="#AF6700" transform="translate(36,24)"/>
<path d="M0 0 C3.98089145 0.12063307 6.04870117 1.63893034 8.875 4.25 C11.93229984 7.54866562 11.93229984 7.54866562 12.375 10.5 C10.2906705 14.28969001 7.52166803 17.46994036 4 20 C2.68 20 1.36 20 0 20 C0.75 15.25 0.75 15.25 3 13 C-0.58305992 12.88372497 -4.16563417 12.8127264 -7.75 12.75 C-8.76578125 12.71648438 -9.7815625 12.68296875 -10.828125 12.6484375 C-16.5758174 12.46534499 -16.5758174 12.46534499 -21.65625 14.78125 C-23.47759965 17.78859476 -23.73306941 20.5299023 -24 24 C-25.32 24 -26.64 24 -28 24 C-28.13687714 22.46089264 -28.23284005 20.91812705 -28.3125 19.375 C-28.37050781 18.51648438 -28.42851562 17.65796875 -28.48828125 16.7734375 C-27.94719264 13.70005421 -27.05348457 11.53429327 -24.93676758 9.20458984 C-20.48763467 6.43741201 -14.75863097 7.11408848 -9.6875 7.125 C-7.8612207 7.0940625 -7.8612207 7.0940625 -5.99804688 7.0625 C-2.99801432 7.01544067 -0.00032593 6.99555554 3 7 C2.505 6.5875 2.01 6.175 1.5 5.75 C0 4 0 4 0 0 Z " fill="#AF6700" transform="translate(28,0)"/>
</svg>
