<?xml version="1.0" standalone="no"?>
<!DOCTYPE svg PUBLIC "-//W3C//DTD SVG 20010904//EN"
 "http://www.w3.org/TR/2001/REC-SVG-20010904/DTD/svg10.dtd">
<svg version="1.0" xmlns="http://www.w3.org/2000/svg"
 width="57.000000pt" height="57.000000pt" viewBox="0 0 57.000000 57.000000"
 preserveAspectRatio="xMidYMid meet">

<g transform="translate(0.000000,57.000000) scale(0.100000,-0.100000)"
fill="#000000" stroke="none">
<path d="M90 521 c-6 -12 -10 -106 -10 -235 0 -182 2 -217 16 -230 19 -20 31
-21 264 -18 l125 2 4 250 3 250 -196 0 c-183 0 -196 -1 -206 -19z m210 -101
c0 -27 3 -30 30 -30 20 0 30 -5 30 -15 0 -10 -10 -15 -30 -15 l-30 0 0 -70 c0
-56 -3 -70 -15 -70 -12 0 -15 14 -15 70 l0 70 -30 0 c-20 0 -30 5 -30 15 0 10
10 15 30 15 27 0 30 3 30 30 0 20 5 30 15 30 10 0 15 -10 15 -30z m160 -325
l0 -35 -115 0 c-70 0 -115 4 -115 10 0 6 38 10 94 10 53 0 98 4 101 10 4 6
-45 10 -139 10 -91 0 -146 -4 -146 -10 0 -5 7 -10 15 -10 8 0 15 -5 15 -11 0
-19 -65 -6 -68 14 -9 45 -2 47 183 47 l175 0 0 -35z"/>
</g>
</svg>
