<?xml version="1.0" standalone="no"?>
<!DOCTYPE svg PUBLIC "-//W3C//DTD SVG 20010904//EN"
 "http://www.w3.org/TR/2001/REC-SVG-20010904/DTD/svg10.dtd">
<svg version="1.0" xmlns="http://www.w3.org/2000/svg"
 width="57.000000pt" height="57.000000pt" viewBox="0 0 57.000000 57.000000"
 preserveAspectRatio="xMidYMid meet">

<g transform="translate(0.000000,57.000000) scale(0.100000,-0.100000)"
fill="#000000" stroke="none">
<path d="M153 531 c-9 -11 -22 -17 -29 -14 -18 7 -40 -34 -48 -86 -5 -31 -18
-56 -41 -83 -44 -48 -44 -75 -1 -139 38 -54 38 -46 2 -156 -11 -33 12 -29 25
5 6 15 15 46 22 69 10 39 9 44 -27 95 -41 61 -40 83 7 127 25 22 53 21 44 -3
-18 -48 -17 -54 6 -60 14 -3 38 -20 56 -38 17 -17 34 -29 37 -25 11 11 -24 56
-56 72 -25 13 -29 20 -24 40 4 16 0 35 -11 51 -20 30 -12 104 11 104 10 0 12
-11 8 -47 -9 -64 12 -46 25 20 9 52 15 62 29 53 5 -3 4 -33 -4 -73 -7 -40 -9
-72 -4 -77 11 -11 17 3 27 69 5 28 13 48 18 45 12 -6 12 -35 1 -107 -9 -62 9
-76 20 -15 14 81 23 64 24 -46 0 -99 -3 -118 -24 -160 -27 -55 -40 -107 -30
-123 8 -14 24 8 24 35 0 11 9 39 21 63 20 40 22 42 35 26 8 -10 21 -42 30 -71
18 -60 40 -72 29 -15 -4 20 -18 59 -31 85 -23 44 -24 58 -22 161 3 109 10 122
23 45 3 -21 11 -38 17 -38 7 0 8 17 3 53 -12 74 -11 106 0 107 6 1 15 -25 21
-57 7 -32 12 -60 13 -62 1 -3 5 -1 10 5 6 5 5 35 -3 77 -8 40 -9 70 -4 73 14
9 20 -1 29 -53 13 -66 34 -84 25 -20 -4 37 -3 47 9 47 24 0 31 -68 10 -102
-10 -18 -14 -39 -11 -53 5 -20 1 -27 -24 -40 -31 -16 -67 -61 -57 -72 4 -3 25
11 47 31 22 20 47 36 55 36 18 0 19 14 4 42 -19 35 6 46 37 17 48 -44 49 -66
8 -127 -36 -51 -37 -56 -27 -95 7 -23 16 -54 22 -69 13 -34 36 -38 25 -5 -36
110 -36 102 2 156 19 28 34 62 34 75 0 13 -16 45 -35 71 -21 27 -39 65 -44 91
-9 48 -28 77 -45 71 -6 -3 -21 4 -33 15 -17 16 -25 18 -42 9 -12 -7 -21 -16
-21 -21 0 -6 -7 -10 -15 -10 -17 0 -34 -30 -27 -49 2 -7 -1 -17 -8 -21 -19
-12 -42 0 -36 17 7 18 -11 53 -27 53 -7 0 -20 9 -30 20 -21 25 -33 25 -54 1z"/>
</g>
</svg>
