<?xml version="1.0" encoding="UTF-8"?>
<svg version="1.1" xmlns="http://www.w3.org/2000/svg" width="48" height="42">
<path d="M0 0 C3.1875 1.5 3.1875 1.5 5 3 C5.61875 2.505 6.2375 2.01 6.875 1.5 C11.29272812 -0.6205095 15.17966573 -0.69524052 20 0 C24.40830916 2.16407904 27.12843553 4.42506462 29 9 C29.57470378 14.17233406 29.56483544 16.83109722 26.48657227 21.18676758 C23.05590158 25.37129561 19.10852217 29.09057057 15.25 32.875 C14.36183594 33.75414062 13.47367188 34.63328125 12.55859375 35.5390625 C10.37687168 37.69732519 8.19060654 39.85076168 6 42 C2.01040288 40.65599764 -0.39453374 38.98108891 -3.35546875 36.0078125 C-4.14244141 35.22019531 -4.92941406 34.43257812 -5.74023438 33.62109375 C-6.54783203 32.79738281 -7.35542969 31.97367188 -8.1875 31.125 C-9.00669922 30.30902344 -9.82589844 29.49304688 -10.66992188 28.65234375 C-19.24243583 20.00221855 -19.24243583 20.00221855 -19.5 13.1875 C-19.42628754 8.20453771 -17.9269293 5.78730665 -14.5078125 2.27734375 C-10.41397683 -1.1907502 -5.08670664 -0.43977291 0 0 Z M-12.75 7.3125 C-14.46331085 9.62546965 -14.86578834 11.11444926 -15 14 C-13.01215047 18.84202539 -10.35724828 21.9950051 -6.625 25.625 C-5.68914063 26.54539062 -4.75328125 27.46578125 -3.7890625 28.4140625 C-1.27617357 30.74393991 1.29204126 32.90256286 4 35 C7.11853829 33.61531918 9.2375727 32.00929552 11.63671875 29.59375 C12.29607422 28.93246094 12.95542969 28.27117188 13.63476562 27.58984375 C14.31216797 26.90019531 14.98957031 26.21054687 15.6875 25.5 C16.72100586 24.46552734 16.72100586 24.46552734 17.77539062 23.41015625 C22.409484 19.03775128 22.409484 19.03775128 24.375 13.1875 C24.25902016 9.83246151 24.25902016 9.83246151 21.8125 7.1875 C18.91365532 4.93284303 17.6413729 4 14 4 C10.75599476 5.33576686 8.48216332 6.51783668 6 9 C3.48723058 8.75682877 2.32048702 8.33442124 0.5625 6.5 C-3.67828891 2.42884264 -8.51108666 4.133315 -12.75 7.3125 Z " fill="#AF6700" transform="translate(19,0)"/>
</svg>
