<?xml version="1.0" standalone="no"?>
<!DOCTYPE svg PUBLIC "-//W3C//DTD SVG 20010904//EN"
 "http://www.w3.org/TR/2001/REC-SVG-20010904/DTD/svg10.dtd">
<svg version="1.0" xmlns="http://www.w3.org/2000/svg"
 width="57.000000pt" height="57.000000pt" viewBox="0 0 57.000000 57.000000"
 preserveAspectRatio="xMidYMid meet">

<g transform="translate(0.000000,57.000000) scale(0.100000,-0.100000)"
fill="#000000" stroke="none">
<path d="M265 466 c-12 -8 -16 -19 -12 -31 5 -11 -5 -33 -29 -66 -56 -77 -83
-85 -134 -42 -22 18 -30 32 -26 47 6 24 -10 46 -35 46 -24 0 -35 -37 -16 -58
8 -9 22 -50 32 -89 l17 -73 224 0 223 0 10 38 c5 20 13 51 17 67 3 17 13 40
21 53 17 28 8 62 -16 62 -25 0 -41 -22 -35 -46 4 -15 -4 -29 -26 -47 -51 -43
-73 -37 -129 38 -27 35 -38 59 -34 73 7 28 -27 46 -52 28z"/>
<path d="M64 146 c-3 -8 -4 -23 -2 -33 3 -17 19 -18 223 -18 l220 0 3 33 3 32
-221 0 c-183 0 -222 -2 -226 -14z"/>
</g>
</svg>
