<?xml version="1.0" encoding="UTF-8"?>
<svg version="1.1" xmlns="http://www.w3.org/2000/svg" width="612" height="408">
<path d="M0 0 C17.26815641 16.01129693 26.17548396 37.40788891 28.203125 60.484375 C28.43008286 67.9091394 27.52299064 74.85020873 26.125 82.125 C25.88994751 83.35536987 25.88994751 83.35536987 25.65014648 84.6105957 C24.43189031 90.37965451 22.44462977 95.45557873 19.875 100.75 C19.37097656 101.82507813 18.86695313 102.90015625 18.34765625 104.0078125 C14.40757 112.01895739 10.39055822 118.54470645 3.875 124.75 C3.38515625 125.27207031 2.8953125 125.79414063 2.390625 126.33203125 C-4.88521017 134.00630501 -13.64881075 140.09676677 -23.125 144.75 C-24.29804688 145.32878906 -25.47109375 145.90757812 -26.6796875 146.50390625 C-49.78565366 157.4754356 -76.79931144 158.49604499 -101.125 150.75 C-116.16282242 145.32271318 -131.13818895 137.51092523 -141.125 124.75 C-141.929375 123.96625 -142.73375 123.1825 -143.5625 122.375 C-158.93338144 106.62921902 -165.57834773 84.62080555 -165.4230957 62.9934082 C-164.72193169 37.40551462 -154.42479692 16.49561877 -136.125 -1.25 C-130.64592871 -6.25 -130.64592871 -6.25 -128.125 -6.25 C-128.125 -6.91 -128.125 -7.57 -128.125 -8.25 C-85.62354147 -33.29257955 -38.23202055 -32.58544521 0 0 Z M-72.125 -1.25 C-72.125 -0.59 -72.125 0.07 -72.125 0.75 C-71.3825 0.646875 -70.64 0.54375 -69.875 0.4375 C-67.125 0.75 -67.125 0.75 -65 2.8125 C-62.92724276 6.05981967 -61.52956075 9.16837008 -60.125 12.75 C-59.465 12.42 -58.805 12.09 -58.125 11.75 C-58.35417968 10.14272673 -58.60920802 8.53912584 -58.875 6.9375 C-59.01421875 6.04417969 -59.1534375 5.15085937 -59.296875 4.23046875 C-60.30846905 1.20045827 -61.40572336 0.34687352 -64.125 -1.25 C-67.48007997 -2.23197462 -68.75358491 -2.37380503 -72.125 -1.25 Z M-76.125 -0.25 C-78.54185712 3.97949995 -79.47333144 6.87335991 -79.125 11.75 C-78.135 11.42 -77.145 11.09 -76.125 10.75 C-75.39629528 8.43529088 -74.73260482 6.0994053 -74.125 3.75 C-73.465 2.76 -72.805 1.77 -72.125 0.75 C-73.445 0.42 -74.765 0.09 -76.125 -0.25 Z M-63.125 11.75 C-62.795 12.41 -62.465 13.07 -62.125 13.75 C-61.465 13.42 -60.805 13.09 -60.125 12.75 C-61.115 12.42 -62.105 12.09 -63.125 11.75 Z M-94.875 23.25 C-100.83086836 29.86763151 -104.35058944 35.3741989 -106.125 44.0625 C-106.29451172 44.85285645 -106.46402344 45.64321289 -106.63867188 46.45751953 C-107.59990551 50.9979882 -108.46126735 55.55051979 -109.26953125 60.12036133 C-111.00156918 69.88805602 -113.49747122 78.95769531 -118.125 87.75 C-118.125 88.41 -118.125 89.07 -118.125 89.75 C-118.785 89.75 -119.445 89.75 -120.125 89.75 C-120.125 90.41 -120.125 91.07 -120.125 91.75 C-121.053125 92.0284375 -121.053125 92.0284375 -122 92.3125 C-124.43806366 93.67652714 -124.43806366 93.67652714 -125.4375 96.9375 C-126.29196121 101.67587581 -126.40781215 105.58754523 -123.89453125 109.82421875 C-117.16519091 117.14776132 -102.50923542 117.02813574 -93.125 117.75 C-90.09822918 117.86494066 -87.15318078 117.86011566 -84.125 117.75 C-87.05949391 115.79367072 -87.81986533 115.48403211 -91.1171875 115.2578125 C-91.89900391 115.19456787 -92.68082031 115.13132324 -93.48632812 115.06616211 C-94.7305957 114.97153687 -94.7305957 114.97153687 -96 114.875 C-104.19383133 114.14674598 -111.37461869 112.58281342 -119.125 109.75 C-120.115 109.42 -121.105 109.09 -122.125 108.75 C-122.125 107.43 -122.125 106.11 -122.125 104.75 C-92.66533476 95.62842046 -58.36410158 93.55721055 -28.25341797 101.20996094 C-25.8671897 101.81541367 -23.47048664 102.35293356 -21.06640625 102.8828125 C-20.31174072 103.0492627 -19.5570752 103.21571289 -18.77954102 103.38720703 C-18.23354248 103.50692871 -17.68754395 103.62665039 -17.125 103.75 C-16.795 105.4 -16.465 107.05 -16.125 108.75 C-16.785 108.75 -17.445 108.75 -18.125 108.75 C-18.125 109.41 -18.125 110.07 -18.125 110.75 C-19.65060547 110.95109375 -19.65060547 110.95109375 -21.20703125 111.15625 C-24.80076618 111.70086387 -28.27386828 112.42801818 -31.8125 113.25 C-37.46387958 114.49982433 -42.92139454 115.18339786 -48.69921875 115.44140625 C-51.3820145 115.59976408 -51.3820145 115.59976408 -54.125 117.75 C-41.84086448 117.99741461 -25.8102355 117.44640324 -15.125 110.75 C-12.69947751 108.32447751 -12.1501415 107.00478957 -12.08203125 103.60546875 C-12.40853865 99.02677198 -13.15123449 95.38460228 -16.125 91.75 C-16.805625 91.440625 -17.48625 91.13125 -18.1875 90.8125 C-20.125 89.75 -20.125 89.75 -21.1875 87 C-21.6515625 85.39125 -21.6515625 85.39125 -22.125 83.75 C-22.599375 82.83734375 -23.07375 81.9246875 -23.5625 80.984375 C-25.20660766 77.58107214 -26.15727522 74.41752016 -27.0625 70.75 C-27.22943359 70.07573975 -27.39636719 69.40147949 -27.56835938 68.70678711 C-29.23976704 61.72146116 -30.45037035 54.64792558 -31.55444336 47.55273438 C-32.57041232 41.45580719 -34.34413292 36.27039238 -37.125 30.75 C-38.38533198 34.61787886 -37.49018929 36.61363242 -35.97119141 40.34521484 C-34.29945919 45.09609837 -33.66826194 50.11252583 -32.8125 55.0625 C-30.77542399 66.30588389 -27.90238725 76.97600886 -24.125 87.75 C-25.35476563 87.28980469 -26.58453125 86.82960938 -27.8515625 86.35546875 C-33.64769311 84.43059211 -39.44615548 83.71414306 -45.5 83.0625 C-47.22682007 82.87469971 -47.22682007 82.87469971 -48.98852539 82.68310547 C-70.12166385 80.52080899 -92.56086779 80.97496898 -113.125 86.75 C-112.95484375 86.1415625 -112.7846875 85.533125 -112.609375 84.90625 C-111.76661569 81.85797164 -110.94334595 78.80492702 -110.125 75.75 C-109.63773437 73.93822266 -109.63773437 73.93822266 -109.140625 72.08984375 C-107.24934986 64.88507319 -105.74433314 57.74093424 -104.625 50.375 C-102.56051013 37.0664387 -98.14247789 27.93923644 -87.125 19.75 C-83.625 18.3125 -83.625 18.3125 -81.125 17.75 C-82.07234592 20.93652718 -82.55647024 22.41529342 -85.48046875 24.13671875 C-88.36663303 25.89740686 -89.80032783 27.5079953 -91.75 30.25 C-92.31976563 31.0234375 -92.88953125 31.796875 -93.4765625 32.59375 C-97.9105424 41.0834556 -98.88845961 50.81623331 -100.1875 60.1875 C-100.50534031 62.47875844 -100.82930053 64.76917849 -101.16015625 67.05859375 C-101.2981665 68.05689209 -101.43617676 69.05519043 -101.57836914 70.08374023 C-102.125 72.75 -102.125 72.75 -103.24780273 74.91821289 C-104.45967717 76.90422511 -104.45967717 76.90422511 -103.125 79.75 C-102.57457031 79.61722656 -102.02414062 79.48445313 -101.45703125 79.34765625 C-91.46307462 77.22490887 -81.3025252 77.09865217 -71.125 76.75 C-72.115 76.255 -72.115 76.255 -73.125 75.75 C-73.62 62.88 -73.62 62.88 -74.125 49.75 C-78.085 49.42 -82.045 49.09 -86.125 48.75 C-87.125 47.75 -87.125 47.75 -87.25 44.25 C-87.125 40.75 -87.125 40.75 -86.125 39.75 C-82.13397282 39.2861934 -78.13289032 39.04531823 -74.125 38.75 C-73.795 34.79 -73.465 30.83 -73.125 26.75 C-68.67 26.255 -68.67 26.255 -64.125 25.75 C-64.125 30.04 -64.125 34.33 -64.125 38.75 C-62.18625 38.87375 -60.2475 38.9975 -58.25 39.125 C-52.375 39.5 -52.375 39.5 -50.125 41.75 C-49.875 44.25 -49.875 44.25 -50.125 46.75 C-52.125 48.75 -52.125 48.75 -64.125 49.75 C-64.125 58.33 -64.125 66.91 -64.125 75.75 C-65.115 76.245 -65.115 76.245 -66.125 76.75 C-64.97644531 76.81058594 -63.82789063 76.87117188 -62.64453125 76.93359375 C-53.46012576 77.42621727 -44.2916807 77.9888092 -35.125 78.75 C-34.01891451 74.68198088 -34.33304555 72.04094236 -35.4375 68 C-36.77939097 62.65672372 -37.5748295 57.46446635 -38.125 52 C-38.6799312 46.61145131 -39.50452957 41.68996885 -41.4609375 36.62109375 C-42.49641027 33.70349694 -42.79841054 30.81994095 -43.125 27.75 C-42.135 27.75 -41.145 27.75 -40.125 27.75 C-40.125 27.09 -40.125 26.43 -40.125 25.75 C-40.785 25.75 -41.445 25.75 -42.125 25.75 C-42.310625 25.193125 -42.49625 24.63625 -42.6875 24.0625 C-44.78860714 20.68245808 -47.83165994 18.89859619 -51.125 16.75 C-51.785 17.08 -52.445 17.41 -53.125 17.75 C-53.125 18.41 -53.125 19.07 -53.125 19.75 C-55.60876506 19.16118927 -58.0858586 18.55497632 -60.5625 17.9375 C-61.26955078 17.77185547 -61.97660156 17.60621094 -62.70507812 17.43554688 C-64.53901868 16.97048061 -66.33682601 16.3681087 -68.125 15.75 C-68.62 14.265 -68.62 14.265 -69.125 12.75 C-79.07810471 12.41410481 -87.637514 16.67046728 -94.875 23.25 Z M-40.125 27.75 C-40.125 28.41 -40.125 29.07 -40.125 29.75 C-39.465 29.42 -38.805 29.09 -38.125 28.75 C-38.785 28.42 -39.445 28.09 -40.125 27.75 Z M-74.125 103.75 C-75.99729773 108.10568057 -75.99729773 108.10568057 -74.9375 112.5 C-73.14868613 114.95086335 -73.14868613 114.95086335 -70.125 116.75 C-65.30742316 116.54054014 -62.39996453 115.30567577 -59.125 111.75 C-58.14626462 108.15614946 -58.14626462 108.15614946 -58.125 104.75 C-59.28777032 103.35843516 -59.28777032 103.35843516 -62.50390625 103.65234375 C-63.89847077 103.65901631 -65.29301743 103.67097468 -66.6875 103.6875 C-67.75387695 103.69426758 -67.75387695 103.69426758 -68.84179688 103.70117188 C-70.60290013 103.71299136 -72.36396036 103.73092737 -74.125 103.75 Z " fill="#FDDE0A" transform="translate(375.125,119.25)"/>
<path d="M0 0 C-0.125 2.25 -0.125 2.25 -1 5 C-2.41309392 5.87477243 -3.82705732 6.74818193 -5.24609375 7.61328125 C-13.74861906 14.33576785 -15.56493207 24.90335154 -17 35 C-17.38863705 37.63053938 -17.77927818 40.26077225 -18.17089844 42.89086914 C-18.42634307 44.63359397 -18.67348582 46.37756186 -18.91113281 48.12280273 C-19.5420178 52.62032968 -20.38556702 56.72487059 -22 61 C-21.13955078 60.80083984 -21.13955078 60.80083984 -20.26171875 60.59765625 C-10.91163481 58.65386035 -1.51423778 58.37465392 8 58 C7.67 57.34 7.34 56.68 7 56 C6.91528636 54.18658158 6.89278917 52.37005839 6.90234375 50.5546875 C6.90556641 49.47832031 6.90878906 48.40195313 6.91210938 47.29296875 C6.92467773 45.60107422 6.92467773 45.60107422 6.9375 43.875 C6.94201172 42.73933594 6.94652344 41.60367188 6.95117188 40.43359375 C6.96298385 37.62234362 6.97945493 34.8111977 7 32 C6.15695312 32.02320313 5.31390625 32.04640625 4.4453125 32.0703125 C2.80175781 32.09738281 2.80175781 32.09738281 1.125 32.125 C0.03445313 32.14820313 -1.05609375 32.17140625 -2.1796875 32.1953125 C-5 32 -5 32 -7 30 C-7.25 26.5 -7.25 26.5 -7 23 C-5 21 -5 21 -2.1796875 20.8046875 C-1.08914063 20.82789063 0.00140625 20.85109375 1.125 20.875 C2.22070312 20.89304688 3.31640625 20.91109375 4.4453125 20.9296875 C5.28835938 20.95289063 6.13140625 20.97609375 7 21 C6.98839844 20.14535156 6.97679687 19.29070312 6.96484375 18.41015625 C6.95582031 17.30542969 6.94679688 16.20070312 6.9375 15.0625 C6.92589844 13.96035156 6.91429687 12.85820312 6.90234375 11.72265625 C7 9 7 9 8 8 C11.00331018 7.85806663 13.99217134 7.95763622 17 8 C17 12.29 17 16.58 17 21 C19.8771875 20.9071875 19.8771875 20.9071875 22.8125 20.8125 C28.49047534 20.62933951 28.49047534 20.62933951 30.86328125 22.35546875 C32.48797756 24.70597441 32.4189057 26.20729532 32 29 C31.01 29.99 30.02 30.98 29 32 C25.04 32 21.08 32 17 32 C17 40.58 17 49.16 17 58 C20.67125 58.33 24.3425 58.66 28.125 59 C29.2711377 59.10441406 30.41727539 59.20882812 31.59814453 59.31640625 C36.41231436 59.74185629 41.16104159 60.13395041 46 60 C45.49934004 56.161607 44.88507033 52.40752813 44.0625 48.625 C43.08174197 43.91591915 42.56294511 39.21480606 42.0625 34.4375 C41.48050352 28.9369454 40.60897905 24.05606158 38.59765625 18.87109375 C37.63461403 15.85607922 37.79972086 13.13770656 38 10 C38.99 10 39.98 10 41 10 C41 9.34 41 8.68 41 8 C40.34 8 39.68 8 39 8 C38.01 6.02 38.01 6.02 37 4 C40.65316671 5.24976756 41.78065836 5.67098753 44 9 C44.99 9.33 45.98 9.66 47 10 C47 11.98 47 13.96 47 16 C47.66 16 48.32 16 49 16 C50.03590199 21.05002222 50.10251672 25.87416389 50 31 C48.10908934 28.16363401 47.6097423 26.79086771 47 23.5625 C46.39485909 20.36930108 45.49457876 17.87986267 44 15 C44.28351318 15.86202026 44.28351318 15.86202026 44.57275391 16.74145508 C46.75410112 23.6472311 48.11719868 30.5636232 49.375 37.6875 C50.98730456 46.5087442 52.91862073 54.85184945 56.08203125 63.2421875 C57 66 57 66 57 70 C56.06542969 69.80664062 55.13085938 69.61328125 54.16796875 69.4140625 C26.0969756 63.7752052 -4.14695582 62.17802178 -32 70 C-33.19750123 66.4074963 -32.7478541 65.87228175 -31.3125 62.5 C-27.63195444 52.89250694 -25.9436336 42.61549755 -24.22265625 32.5 C-22.5943753 22.987526 -20.80510302 15.25877656 -14 8 C-13.34 8 -12.68 8 -12 8 C-11.79375 7.4225 -11.5875 6.845 -11.375 6.25 C-8.61755438 1.73781627 -5.17673877 0 0 0 Z M41 10 C41 10.66 41 11.32 41 12 C41.66 11.67 42.32 11.34 43 11 C42.34 10.67 41.68 10.34 41 10 Z " fill="#FBF595" transform="translate(294,137)"/>
<path d="M0 0 C0.92948456 -0.00045319 1.85896912 -0.00090637 2.81661987 -0.00137329 C20.17670099 0.02351102 36.11313053 1.61517209 52.5625 7.375 C53.0575 9.85 53.0575 9.85 53.5625 12.375 C52.9025 12.375 52.2425 12.375 51.5625 12.375 C51.5625 13.035 51.5625 13.695 51.5625 14.375 C40.60506432 18.05727039 30.02988965 19.44587248 18.5625 20.375 C29.44779859 19.91550414 39.87658771 18.45463287 50.5625 16.375 C49.26926893 18.96146214 48.30550003 19.01168534 45.625 19.9375 C43.52456733 20.67322324 41.55447374 21.37901313 39.5625 22.375 C37.37862056 22.58381716 35.18984789 22.74271145 33 22.875 C28.76973137 23.14427788 24.57906522 23.45888269 20.375 24 C16.5625 24.375 16.5625 24.375 13.5625 23.375 C12.75 21.4375 12.75 21.4375 12.5625 19.375 C15.5371758 16.4003242 19.05172274 16.69118587 23.0625 16.3125 C28.47716235 15.98026463 28.47716235 15.98026463 33.5625 14.375 C35.8954866 14.33477609 38.22956666 14.33179753 40.5625 14.375 C40.5625 13.055 40.5625 11.735 40.5625 10.375 C41.8825 10.375 43.2025 10.375 44.5625 10.375 C44.0675 9.385 44.0675 9.385 43.5625 8.375 C40.18214088 7.74900757 37.00080115 7.375 33.5625 7.375 C32.5725 7.375 31.5825 7.375 30.5625 7.375 C30.5625 6.715 30.5625 6.055 30.5625 5.375 C29.1084375 5.4059375 29.1084375 5.4059375 27.625 5.4375 C24.5625 5.375 24.5625 5.375 23.5625 4.375 C21.68928052 4.21446185 21.68928052 4.21446185 19.5625 4.25 C18.840625 4.24742187 18.11875 4.24484375 17.375 4.2421875 C15.54160585 4.17804724 15.54160585 4.17804724 14.5625 5.375 C14.49070036 6.89428038 14.47857993 8.41667482 14.5 9.9375 C14.50902344 10.76378906 14.51804687 11.59007812 14.52734375 12.44140625 C14.53894531 13.07949219 14.55054688 13.71757812 14.5625 14.375 C13.9025 14.705 13.2425 15.035 12.5625 15.375 C12.2325 12.075 11.9025 8.775 11.5625 5.375 C3.9725 5.705 -3.6175 6.035 -11.4375 6.375 C-11.10150525 14.6323685 -11.10150525 14.6323685 -8.75 18.4375 C-3.33563705 21.60439154 2.44030427 20.74779947 8.5625 20.375 C8.2325 21.695 7.9025 23.015 7.5625 24.375 C6.44875 24.189375 5.335 24.00375 4.1875 23.8125 C0.73681139 23.05819343 0.73681139 23.05819343 -1.4375 24.375 C-2.51 24.024375 -3.5825 23.67375 -4.6875 23.3125 C-9.07709556 22.21510111 -10.24924465 22.95257366 -14.4375 24.375 C-22.11635606 25.10576727 -29.00983886 24.01204265 -36.4375 22.1015625 C-39.04867158 21.46916938 -41.51918126 21.06980216 -44.1875 20.8125 C-45.26 20.668125 -46.3325 20.52375 -47.4375 20.375 C-47.7675 19.715 -48.0975 19.055 -48.4375 18.375 C-50.74715848 17.32147157 -53.0804774 16.31780904 -55.4375 15.375 C-55.1075 14.055 -54.7775 12.735 -54.4375 11.375 C-53.4475 12.86 -53.4475 12.86 -52.4375 14.375 C-42.02255169 19.51841032 -28.9092655 20.59076988 -17.4375 20.375 C-18.65824219 20.27703125 -19.87898438 20.1790625 -21.13671875 20.078125 C-43.883626 18.07758267 -43.883626 18.07758267 -52.4375 12.375 C-52.4375 11.055 -52.4375 9.735 -52.4375 8.375 C-36.04461721 0.55112412 -17.82085247 -0.03369228 0 0 Z " fill="#F8B005" transform="translate(305.4375,215.625)"/>
<path d="M0 0 C17.26815641 16.01129693 26.17548396 37.40788891 28.203125 60.484375 C28.519087 70.8208461 27.08642511 81.88746808 23.875 91.75 C23.215 92.41 22.555 93.07 21.875 93.75 C21.73358916 89.69622266 22.11175099 86.58653404 23.375 82.75 C24.9885194 76.65533193 25.17914256 70.82640428 25.1875 64.5625 C25.19265625 63.63630859 25.1978125 62.71011719 25.203125 61.75585938 C25.43916806 52.15055854 25.43916806 52.15055854 21.875 43.75 C21.64212992 42.06816052 21.46235834 40.3787584 21.3125 38.6875 C21.22871094 37.76839844 21.14492188 36.84929687 21.05859375 35.90234375 C20.99800781 35.19207031 20.93742188 34.48179687 20.875 33.75 C19.555 33.75 18.235 33.75 16.875 33.75 C16.77703125 33.12351563 16.6790625 32.49703125 16.578125 31.8515625 C16.35382813 30.62566406 16.35382813 30.62566406 16.125 29.375 C15.91617188 28.15683594 15.91617188 28.15683594 15.703125 26.9140625 C15.05750739 24.57290908 15.05750739 24.57290908 12.796875 23.4609375 C12.16265625 23.22632813 11.5284375 22.99171875 10.875 22.75 C10.875 21.76 10.875 20.77 10.875 19.75 C10.215 19.42 9.555 19.09 8.875 18.75 C8.25 16.1875 8.25 16.1875 7.875 13.75 C7.215 13.75 6.555 13.75 5.875 13.75 C5.545 12.1 5.215 10.45 4.875 8.75 C4.2975 8.62625 3.72 8.5025 3.125 8.375 C0.77219934 7.72144426 -1.07842262 7.09086104 -3.125 5.75 C-3.32609375 4.80060547 -3.32609375 4.80060547 -3.53125 3.83203125 C-4.27889707 1.21034777 -5.16848955 0.68817365 -7.4375 -0.75 C-9.67863817 -2.23042664 -11.32619518 -3.46338883 -13.1875 -5.4375 C-15.62205616 -7.71498802 -17.94204386 -8.38192105 -21.125 -9.25 C-21.125 -9.91 -21.125 -10.57 -21.125 -11.25 C-21.785 -11.25 -22.445 -11.25 -23.125 -11.25 C-23.125 -11.91 -23.125 -12.57 -23.125 -13.25 C-23.86105469 -13.44335938 -24.59710938 -13.63671875 -25.35546875 -13.8359375 C-26.33128906 -14.09632812 -27.30710937 -14.35671875 -28.3125 -14.625 C-29.27542969 -14.88023438 -30.23835938 -15.13546875 -31.23046875 -15.3984375 C-34.125 -16.25 -34.125 -16.25 -36.73046875 -17.3203125 C-39.01368842 -18.20678278 -40.82520023 -18.55981963 -43.25 -18.75 C-47.125 -19.25 -47.125 -19.25 -50.125 -21.25 C-54.21430097 -21.96758797 -58.36152494 -22.19413639 -62.5 -22.5 C-63.67925049 -22.58789795 -64.85850098 -22.6757959 -66.07348633 -22.76635742 C-77.07128962 -23.48170496 -85.99067836 -22.95522076 -96.125 -18.25 C-99.41890629 -17.26018527 -102.72222513 -16.32011995 -106.0390625 -15.41015625 C-109.36620384 -14.15931957 -111.46521558 -12.57788758 -114.125 -10.25 C-116.86490529 -8.42339648 -118.99141246 -7.28544159 -122.1875 -6.4375 C-126.03202573 -4.88333002 -126.96555446 -2.70511287 -129.125 0.75 C-129.71023437 1.03746094 -130.29546875 1.32492188 -130.8984375 1.62109375 C-135.0430032 3.72246127 -138.13601297 7.34433522 -141.46875 10.53515625 C-143.87874388 12.54466585 -145.07521422 13.39754834 -148.125 13.75 C-144.62303183 5.70844346 -136.95156795 -0.9559269 -130.125 -6.25 C-129.465 -6.25 -128.805 -6.25 -128.125 -6.25 C-128.125 -6.91 -128.125 -7.57 -128.125 -8.25 C-85.62354147 -33.29257955 -38.23202055 -32.58544521 0 0 Z " fill="#F7F354" transform="translate(375.125,119.25)"/>
<path d="M0 0 C2.97 0 5.94 0 9 0 C9 4.29 9 8.58 9 13 C13.29 13.33 17.58 13.66 22 14 C22 16.31 22 18.62 22 21 C17.71 21 13.42 21 9 21 C9 29.91 9 38.82 9 48 C6.36 48 3.72 48 1 48 C0 47 0 47 -0.11352539 44.68334961 C-0.10828857 43.68311768 -0.10305176 42.68288574 -0.09765625 41.65234375 C-0.09443359 40.57275391 -0.09121094 39.49316406 -0.08789062 38.38085938 C-0.07951172 37.24455078 -0.07113281 36.10824219 -0.0625 34.9375 C-0.05798828 33.79732422 -0.05347656 32.65714844 -0.04882812 31.48242188 C-0.03699747 28.65489649 -0.0205141 25.8274736 0 23 C-0.84304688 23.02320313 -1.68609375 23.04640625 -2.5546875 23.0703125 C-4.19824219 23.09738281 -4.19824219 23.09738281 -5.875 23.125 C-7.51082031 23.15980469 -7.51082031 23.15980469 -9.1796875 23.1953125 C-12 23 -12 23 -14 21 C-14.25 17.5 -14.25 17.5 -14 14 C-12 12 -12 12 -9.1796875 11.8046875 C-4.58984375 11.90234375 -4.58984375 11.90234375 0 12 C0 8.04 0 4.08 0 0 Z " fill="#FBDE1B" transform="translate(301,146)"/>
<path d="M0 0 C1.29763023 -0.01448685 1.29763023 -0.01448685 2.62147522 -0.02926636 C5.4143604 -0.05405671 8.20701672 -0.06665439 11 -0.07421875 C11.94696747 -0.07716949 12.89393494 -0.08012024 13.86959839 -0.0831604 C31.38372559 -0.09561935 47.40157654 1.42626135 64 7.23828125 C64.495 9.71328125 64.495 9.71328125 65 12.23828125 C64.34 12.23828125 63.68 12.23828125 63 12.23828125 C63 12.89828125 63 13.55828125 63 14.23828125 C52.04256432 17.92055164 41.46738965 19.30915373 30 20.23828125 C40.88529859 19.77878539 51.31408771 18.31791412 62 16.23828125 C60.70676893 18.82474339 59.74300003 18.87496659 57.0625 19.80078125 C54.96206733 20.53650449 52.99197374 21.24229438 51 22.23828125 C48.81612056 22.44709841 46.62734789 22.6059927 44.4375 22.73828125 C40.20723137 23.00755913 36.01656522 23.32216394 31.8125 23.86328125 C28 24.23828125 28 24.23828125 25 23.23828125 C24.1875 21.30078125 24.1875 21.30078125 24 19.23828125 C26.9746758 16.26360545 30.48922274 16.55446712 34.5 16.17578125 C39.91466235 15.84354588 39.91466235 15.84354588 45 14.23828125 C47.3329866 14.19805734 49.66706666 14.19507878 52 14.23828125 C52 12.91828125 52 11.59828125 52 10.23828125 C53.32 10.23828125 54.64 10.23828125 56 10.23828125 C55.505 9.24828125 55.505 9.24828125 55 8.23828125 C51.61964088 7.61228882 48.43830115 7.23828125 45 7.23828125 C44.01 7.23828125 43.02 7.23828125 42 7.23828125 C42 6.57828125 42 5.91828125 42 5.23828125 C40.5459375 5.26921875 40.5459375 5.26921875 39.0625 5.30078125 C36 5.23828125 36 5.23828125 35 4.23828125 C33.31816052 4.00541117 31.6287584 3.82563959 29.9375 3.67578125 C28.55884766 3.55009766 28.55884766 3.55009766 27.15234375 3.421875 C26.08693359 3.33099609 26.08693359 3.33099609 25 3.23828125 C25 2.57828125 25 1.91828125 25 1.23828125 C11.8 1.56828125 -1.4 1.89828125 -15 2.23828125 C-15 1.90828125 -15 1.57828125 -15 1.23828125 C-9.96374332 0.23597336 -5.11249206 0.04726999 0 0 Z " fill="#F3B72E" transform="translate(294,215.76171875)"/>
<path d="M0 0 C2.0078125 0.1328125 2.0078125 0.1328125 5.0078125 1.1328125 C5.0078125 2.1228125 5.0078125 3.1128125 5.0078125 4.1328125 C5.6678125 4.1328125 6.3278125 4.1328125 7.0078125 4.1328125 C7.34415626 6.06979217 7.67678415 8.00741736 8.0078125 9.9453125 C8.1934375 11.02425781 8.3790625 12.10320312 8.5703125 13.21484375 C9.0078125 16.1328125 9.0078125 16.1328125 9.0078125 19.1328125 C10.3278125 19.7928125 11.6478125 20.4528125 13.0078125 21.1328125 C12.6778125 21.7928125 12.3478125 22.4528125 12.0078125 23.1328125 C9.54596024 22.71052397 7.08950716 22.27085596 4.6328125 21.8203125 C3.93414062 21.70236328 3.23546875 21.58441406 2.515625 21.46289062 C0.65926224 21.11482261 -1.17016804 20.63028523 -2.9921875 20.1328125 C-3.6521875 19.1428125 -4.3121875 18.1528125 -4.9921875 17.1328125 C-8.6221875 17.4628125 -12.2521875 17.7928125 -15.9921875 18.1328125 C-15.3321875 12.5228125 -14.6721875 6.9128125 -13.9921875 1.1328125 C-11.6821875 1.1328125 -9.3721875 1.1328125 -6.9921875 1.1328125 C-5.11159717 -0.74777783 -2.49328712 0.00920032 0 0 Z M-6.9921875 2.1328125 C-6.9921875 2.7928125 -6.9921875 3.4528125 -6.9921875 4.1328125 C-6.2496875 4.0296875 -5.5071875 3.9265625 -4.7421875 3.8203125 C-1.9921875 4.1328125 -1.9921875 4.1328125 0.1328125 6.1953125 C2.20556974 9.44263217 3.60325175 12.55118258 5.0078125 16.1328125 C5.6678125 15.8028125 6.3278125 15.4728125 7.0078125 15.1328125 C6.77863282 13.52553923 6.52360448 11.92193834 6.2578125 10.3203125 C6.11859375 9.42699219 5.979375 8.53367187 5.8359375 7.61328125 C4.82434345 4.58327077 3.72708914 3.72968602 1.0078125 2.1328125 C-2.34726747 1.15083788 -3.62077241 1.00900747 -6.9921875 2.1328125 Z M-10.9921875 3.1328125 C-13.40904462 7.36231245 -14.34051894 10.25617241 -13.9921875 15.1328125 C-13.0021875 14.8028125 -12.0121875 14.4728125 -10.9921875 14.1328125 C-10.26348278 11.81810338 -9.59979232 9.4822178 -8.9921875 7.1328125 C-8.3321875 6.1428125 -7.6721875 5.1528125 -6.9921875 4.1328125 C-8.3121875 3.8028125 -9.6321875 3.4728125 -10.9921875 3.1328125 Z M2.0078125 15.1328125 C2.3378125 15.7928125 2.6678125 16.4528125 3.0078125 17.1328125 C3.6678125 16.8028125 4.3278125 16.4728125 5.0078125 16.1328125 C4.0178125 15.8028125 3.0278125 15.4728125 2.0078125 15.1328125 Z " fill="#FEFE9C" transform="translate(309.9921875,115.8671875)"/>
<path d="M0 0 C0 0.99 0 1.98 0 3 C0.061875 3.99 0.12375 4.98 0.1875 6 C0 9 0 9 -1.4375 10.625 C-1.953125 11.07875 -2.46875 11.5325 -3 12 C-3.2165625 12.8971875 -3.2165625 12.8971875 -3.4375 13.8125 C-4 16 -4 16 -6.0625 18.875 C-8.19408951 22.31304759 -8.37694651 24.04206169 -8 28 C-8.66 28.33 -9.32 28.66 -10 29 C-10.43155212 31.48545575 -10.43155212 31.48545575 -10.5625 34.375 C-10.76686657 37.53642575 -10.99377883 39.98133648 -12 43 C-12.23233302 46.49553811 -12.18980294 49.99751831 -12.1875 53.5 C-12.18814453 54.49507568 -12.18878906 55.49015137 -12.18945312 56.51538086 C-12.14665401 62.45327211 -11.84479803 68.08357478 -10.4375 73.87890625 C-9.93914559 76.2950352 -9.93081808 78.5397179 -10 81 C-19.32837635 67.00743548 -17.23457883 45.37887795 -14.109375 29.47265625 C-11.68513406 18.79345696 -6.59758843 8.70011661 0 0 Z " fill="#F9EF5F" transform="translate(226,133)"/>
<path d="M0 0 C15.66358229 11.71339691 24.47372966 32.77085196 27.421875 51.578125 C29.24037123 64.64644881 28.10449319 78.39478776 24 91 C23.01 91.99 23.01 91.99 22 93 C21.85858916 88.94622266 22.23675099 85.83653404 23.5 82 C25.1135194 75.90533193 25.30414256 70.07640428 25.3125 63.8125 C25.31765625 62.88630859 25.3228125 61.96011719 25.328125 61.00585938 C25.56416806 51.40055854 25.56416806 51.40055854 22 43 C21.76712992 41.31816052 21.58735834 39.6287584 21.4375 37.9375 C21.31181641 36.55884766 21.31181641 36.55884766 21.18359375 35.15234375 C21.12300781 34.44207031 21.06242187 33.73179687 21 33 C19.68 33 18.36 33 17 33 C16.90203125 32.37351563 16.8040625 31.74703125 16.703125 31.1015625 C16.55359375 30.28429687 16.4040625 29.46703125 16.25 28.625 C16.11078125 27.81289062 15.9715625 27.00078125 15.828125 26.1640625 C15.18250739 23.82290908 15.18250739 23.82290908 12.921875 22.7109375 C12.28765625 22.47632813 11.6534375 22.24171875 11 22 C11 21.01 11 20.02 11 19 C10.34 18.67 9.68 18.34 9 18 C8.375 15.4375 8.375 15.4375 8 13 C7.34 13 6.68 13 6 13 C5.67 11.35 5.34 9.7 5 8 C4.34 8 3.68 8 3 8 C3 6.68 3 5.36 3 4 C2.01 4 1.02 4 0 4 C0 2.68 0 1.36 0 0 Z " fill="#FAF380" transform="translate(375,120)"/>
<path d="M0 0 C3.65316671 1.24976756 4.78065836 1.67098753 7 5 C7.99 5.33 8.98 5.66 10 6 C10 7.98 10 9.96 10 12 C10.66 12 11.32 12 12 12 C13.03590199 17.05002222 13.10251672 21.87416389 13 27 C11.10908934 24.16363401 10.6097423 22.79086771 10 19.5625 C9.39799867 16.38586799 8.55386173 13.84227209 7 11 C7.30744141 11.76957031 7.30744141 11.76957031 7.62109375 12.5546875 C10.20823542 19.90761646 10.512733 27.0217997 10.7890625 34.73046875 C10.93538155 38.54767456 11.39081285 42.23003036 12 46 C11.01 46.495 11.01 46.495 10 47 C9.76289307 46.04109863 9.52578613 45.08219727 9.28149414 44.09423828 C8.40236537 40.54156177 7.52013694 36.98966113 6.63696289 33.43798828 C6.25492925 31.89978737 5.87374004 30.36137648 5.4934082 28.82275391 C4.94703735 26.61305066 4.39764843 24.4041168 3.84765625 22.1953125 C3.6778273 21.50567413 3.50799835 20.81603577 3.33302307 20.10549927 C2.43074671 16.45976242 2.43074671 16.45976242 1 13 C0.95977609 10.6670134 0.95679753 8.33293334 1 6 C1.99 6 2.98 6 4 6 C4 5.34 4 4.68 4 4 C3.34 4 2.68 4 2 4 C1.34 2.68 0.68 1.36 0 0 Z M4 6 C4 6.66 4 7.32 4 8 C4.66 7.67 5.32 7.34 6 7 C5.34 6.67 4.68 6.34 4 6 Z " fill="#FAF69A" transform="translate(331,141)"/>
<path d="M0 0 C1.98 0 3.96 0 6 0 C-8.85091222 11.93624721 -32.91917488 12.96937477 -51.0546875 11.51171875 C-61.05953451 10.21406038 -70.61615497 7.66966007 -80 4 C-80 3.67 -80 3.34 -80 3 C-77.03 3.33 -74.06 3.66 -71 4 C-71 4.66 -71 5.32 -71 6 C-69.02 6 -67.04 6 -65 6 C-64.67 5.34 -64.34 4.68 -64 4 C-63.4946875 4.48210937 -62.989375 4.96421875 -62.46875 5.4609375 C-59.11038652 7.55460081 -56.43178031 7.47794522 -52.5 7.625 C-45.26286765 7.92417279 -45.26286765 7.92417279 -42.96875 8.5859375 C-39.89933033 9.23149005 -37.08033215 8.48110009 -34 8 C-31.45902492 7.88014268 -28.91723745 7.77665662 -26.375 7.6875 C-19.74214046 7.37818362 -13.95949592 6.08200299 -7.671875 3.83984375 C-5 3 -5 3 -1 3 C-0.67 2.01 -0.34 1.02 0 0 Z " fill="#F6D656" transform="translate(346,263)"/>
<path d="M0 0 C1.4540625 0.0309375 1.4540625 0.0309375 2.9375 0.0625 C1.9375 2.0625 1.9375 2.0625 -0.0234375 2.80859375 C-1.62731003 3.2679553 -3.23147534 3.7262959 -4.8359375 4.18359375 C-7.24543893 5.13471273 -8.34566818 6.16260542 -10.0625 8.0625 C-12.77277117 9.89376431 -14.94962208 11.0325528 -18.125 11.875 C-21.96952573 13.42916998 -22.90305446 15.60738713 -25.0625 19.0625 C-25.64773437 19.34996094 -26.23296875 19.63742188 -26.8359375 19.93359375 C-30.9805032 22.03496127 -34.07351297 25.65683522 -37.40625 28.84765625 C-39.81624388 30.85716585 -41.01271422 31.71004834 -44.0625 32.0625 C-40.56053183 24.02094346 -32.88906795 17.3565731 -26.0625 12.0625 C-25.4025 12.0625 -24.7425 12.0625 -24.0625 12.0625 C-24.0625 11.4025 -24.0625 10.7425 -24.0625 10.0625 C-17.80563158 5.64097965 -11.57849217 2.48061173 -4.0625 1.0625 C-3.0625 0.0625 -3.0625 0.0625 0 0 Z " fill="#F8F554" transform="translate(271.0625,100.9375)"/>
<path d="M0 0 C0.9583374 0.00523682 1.9166748 0.01047363 2.90405273 0.01586914 C4.45576172 0.02070313 4.45576172 0.02070313 6.03881836 0.02563477 C7.12743164 0.03401367 8.21604492 0.04239258 9.33764648 0.05102539 C10.97636719 0.05779297 10.97636719 0.05779297 12.64819336 0.06469727 C15.35723144 0.07652713 18.06616248 0.09300996 20.77514648 0.11352539 C22.00205715 2.56734673 21.9769058 4.31336642 22.02514648 7.05102539 C22.05092773 7.92629883 22.07670898 8.80157227 22.10327148 9.70336914 C21.77514648 12.11352539 21.77514648 12.11352539 20.45874023 13.91821289 C17.95069693 15.69886545 15.7605365 15.31255139 12.77514648 15.11352539 C13.55889648 14.51540039 14.34264648 13.91727539 15.15014648 13.30102539 C17.92088972 11.2026729 17.92088972 11.2026729 19.77514648 8.11352539 C19.77514648 6.46352539 19.77514648 4.81352539 19.77514648 3.11352539 C14.82514648 3.11352539 9.87514648 3.11352539 4.77514648 3.11352539 C3.35176261 7.80574929 3.35176261 7.80574929 4.90014648 10.80102539 C7.02029243 13.41587206 8.5867003 14.16560896 11.77514648 15.11352539 C11.77514648 15.44352539 11.77514648 15.77352539 11.77514648 16.11352539 C4.55679474 16.72525011 4.55679474 16.72525011 0.90014648 13.86352539 C-2.56829179 9.37495821 -3.60955128 6.88399185 -3.22485352 1.11352539 C-2.22485352 0.11352539 -2.22485352 0.11352539 0 0 Z " fill="#FDF7A3" transform="translate(296.224853515625,220.886474609375)"/>
<path d="M0 0 C1.49609225 0.00502697 2.99218613 0.00958775 4.48828125 0.01367188 C8.11722219 0.02457815 11.74610027 0.04177618 15.375 0.0625 C15.375 0.7225 15.375 1.3825 15.375 2.0625 C16.035 2.3925 16.695 2.7225 17.375 3.0625 C17.045 3.3925 16.715 3.7225 16.375 4.0625 C16.30320036 5.58178038 16.29107993 7.10417482 16.3125 8.625 C16.32152344 9.45128906 16.33054687 10.27757812 16.33984375 11.12890625 C16.35144531 11.76699219 16.36304688 12.40507812 16.375 13.0625 C15.715 13.3925 15.055 13.7225 14.375 14.0625 C14.045 10.7625 13.715 7.4625 13.375 4.0625 C5.785 4.3925 -1.805 4.7225 -9.625 5.0625 C-10.285 6.7125 -10.945 8.3625 -11.625 10.0625 C-11.955 10.0625 -12.285 10.0625 -12.625 10.0625 C-12.295 7.4225 -11.965 4.7825 -11.625 2.0625 C-17.565 2.3925 -23.505 2.7225 -29.625 3.0625 C-21.74008443 -2.19411038 -9.236475 -0.05435634 0 0 Z " fill="#EDA70E" transform="translate(303.625,216.9375)"/>
<path d="M0 0 C0.86517746 -0.00961258 1.73035492 -0.01922516 2.62174988 -0.02912903 C5.41454002 -0.05380719 8.20711356 -0.06638406 11 -0.07421875 C11.9463028 -0.07750183 12.89260559 -0.08078491 13.86758423 -0.08416748 C30.6235949 -0.10304107 45.89120322 1.50165491 62 6.23828125 C62 6.56828125 62 6.89828125 62 7.23828125 C60.27277272 7.46212507 58.54303993 7.66668094 56.8125 7.86328125 C55.84957031 7.97929687 54.88664062 8.0953125 53.89453125 8.21484375 C50.74360795 8.2403573 48.8544456 7.48954507 46 6.23828125 C43.75759218 6.5256805 43.75759218 6.5256805 42 7.23828125 C42 6.57828125 42 5.91828125 42 5.23828125 C40.5459375 5.26921875 40.5459375 5.26921875 39.0625 5.30078125 C36 5.23828125 36 5.23828125 35 4.23828125 C33.31816052 4.00541117 31.6287584 3.82563959 29.9375 3.67578125 C28.55884766 3.55009766 28.55884766 3.55009766 27.15234375 3.421875 C26.08693359 3.33099609 26.08693359 3.33099609 25 3.23828125 C25 2.57828125 25 1.91828125 25 1.23828125 C11.8 1.56828125 -1.4 1.89828125 -15 2.23828125 C-15 1.90828125 -15 1.57828125 -15 1.23828125 C-9.96375194 0.23597507 -5.1124872 0.0472379 0 0 Z " fill="#ECAE2E" transform="translate(294,215.76171875)"/>
<path d="M0 0 C9.04803716 -0.1738041 17.77690509 0.82216631 26.70703125 2.12109375 C26.70703125 2.45109375 26.70703125 2.78109375 26.70703125 3.12109375 C25.80573486 3.1053833 24.90443848 3.08967285 23.97583008 3.07348633 C20.56691503 3.02174016 17.15842933 2.9844489 13.74926758 2.95629883 C12.28598359 2.94139842 10.82274272 2.92107093 9.35961914 2.89477539 C-1.15863306 2.71075108 -11.05832259 3.213688 -20.97875977 7.20043945 C-24.50529841 8.60339095 -28.01219546 8.57146234 -31.76953125 8.77734375 C-34.53522505 8.96675793 -34.53522505 8.96675793 -37.29296875 11.12109375 C-39.48046875 10.74609375 -39.48046875 10.74609375 -41.29296875 10.12109375 C-28.0142396 3.3851064 -14.77385831 0.54328542 0 0 Z " fill="#F9F88B" transform="translate(302.29296875,92.87890625)"/>
<path d="M0 0 C-0.125 2.25 -0.125 2.25 -1 5 C-2.4086785 5.87203907 -3.81941613 6.74099223 -5.2421875 7.58984375 C-11.77520856 12.83077843 -14.81768501 20.98653172 -16 29 C-16.33 29 -16.66 29 -17 29 C-17 25.37 -17 21.74 -17 18 C-18.32 18.99 -19.64 19.98 -21 21 C-19.75496833 15.34076516 -18.0646279 12.1662436 -14 8 C-13.34 8 -12.68 8 -12 8 C-11.79375 7.4225 -11.5875 6.845 -11.375 6.25 C-8.61755438 1.73781627 -5.17673877 0 0 0 Z " fill="#FAF58E" transform="translate(294,137)"/>
<path d="M0 0 C3.81565144 2.09245402 6.45392621 6.01638967 7.9375 10.0625 C7.6075 11.0525 7.2775 12.0425 6.9375 13.0625 C0.0075 12.5675 0.0075 12.5675 -7.0625 12.0625 C-7.30084364 9.2023763 -7.49487406 6.86492445 -7.0625 4.0625 C-4.80459572 1.49099791 -3.49186945 0.10581423 0 0 Z " fill="#F8E516" transform="translate(307.0625,118.9375)"/>
<path d="M0 0 C2.97 0 5.94 0 9 0 C9 4.29 9 8.58 9 13 C11.8771875 12.9071875 11.8771875 12.9071875 14.8125 12.8125 C20.49047534 12.62933951 20.49047534 12.62933951 22.86328125 14.35546875 C24.48797756 16.70597441 24.4189057 18.20729532 24 21 C23.01 21.99 22.02 22.98 21 24 C17.04 24 13.08 24 9 24 C9 32.25 9 40.5 9 49 C8.67 49 8.34 49 8 49 C8 40.09 8 31.18 8 22 C12.29 22 16.58 22 21 22 C21 19.69 21 17.38 21 15 C19.84371094 15.01740234 19.84371094 15.01740234 18.6640625 15.03515625 C17.15972656 15.04869141 17.15972656 15.04869141 15.625 15.0625 C14.62726563 15.07410156 13.62953125 15.08570313 12.6015625 15.09765625 C10 15 10 15 8 14 C8 9.71 8 5.42 8 1 C5.36 1 2.72 1 0 1 C0 0.67 0 0.34 0 0 Z " fill="#F7EA79" transform="translate(302,145)"/>
<path d="M0 0 C-0.59167969 0.30292969 -1.18335938 0.60585937 -1.79296875 0.91796875 C-10.22801529 5.39005705 -16.55943563 11.44991591 -21 20 C-21.90353951 23.06988306 -22.55162018 26.17763725 -23.1875 29.3125 C-23.36474609 30.14845703 -23.54199219 30.98441406 -23.72460938 31.84570312 C-24.15797623 33.89541123 -24.58011932 35.94748682 -25 38 C-25.33 38 -25.66 38 -26 38 C-26.71240023 29.41161947 -24.61177122 22.0918269 -22 14 C-21.34 14 -20.68 14 -20 14 C-20 13.34 -20 12.68 -20 12 C-19.34 12 -18.68 12 -18 12 C-17.9175 10.9275 -17.835 9.855 -17.75 8.75 C-16.94523098 4.7261549 -16.12270126 3.51830747 -13 1 C-12.34 1.33 -11.68 1.66 -11 2 C-9.68 2 -8.36 2 -7 2 C-7 1.34 -7 0.68 -7 0 C-3.86650268 -1.04449911 -3.01031744 -0.93423645 0 0 Z " fill="#FBEC3E" transform="translate(293,135)"/>
<path d="M0 0 C1.43540577 0.20291076 2.87291997 0.39170237 4.3125 0.5625 C5.529375 0.706875 6.74625 0.85125 8 1 C8 1.66 8 2.32 8 3 C-3.34615583 3.63922005 -14.63216352 4.16938829 -26 4 C-25.67 3.01 -25.34 2.02 -25 1 C-21.30242236 -0.53066805 -17.02292272 -0.37950433 -13.0625 -0.625 C-12.00772461 -0.70234375 -12.00772461 -0.70234375 -10.93164062 -0.78125 C-7.08175961 -1.02660324 -3.74086045 -0.92231559 0 0 Z " fill="#FAF170" transform="translate(310,197)"/>
<path d="M0 0 C31.56582535 -0.29099116 31.56582535 -0.29099116 41 3 C41 3.66 41 4.32 41 5 C42.32 5.33 43.64 5.66 45 6 C45 6.66 45 7.32 45 8 C38.125 7.125 38.125 7.125 37 6 C35.00458104 5.77471076 33.00840136 5.55238905 31.0078125 5.37890625 C29 5 29 5 26 3 C23.19390866 2.53975918 23.19390866 2.53975918 20.01953125 2.3671875 C18.85615234 2.28339844 17.69277344 2.19960937 16.49414062 2.11328125 C15.27919922 2.03464844 14.06425781 1.95601563 12.8125 1.875 C10.97268555 1.74544922 10.97268555 1.74544922 9.09570312 1.61328125 C6.06425714 1.40096208 3.03248215 1.19686921 0 1 C0 0.67 0 0.34 0 0 Z " fill="#F9F654" transform="translate(299,95)"/>
<path d="M0 0 C0.33 0 0.66 0 1 0 C1.33 2.31 1.66 4.62 2 7 C2.56203125 6.9278125 3.1240625 6.855625 3.703125 6.78125 C13.4518782 5.70470057 23.20751984 5.91368039 33 6 C33 6.33 33 6.66 33 7 C31.83597656 7.12060791 31.83597656 7.12060791 30.6484375 7.24365234 C27.09831312 7.61486911 23.54917967 7.99486129 20 8.375 C18.77925781 8.50132812 17.55851562 8.62765625 16.30078125 8.7578125 C10.0352862 9.43516332 4.06056404 10.25758784 -2 12 C-3.15957207 8.52128379 -2.77456651 7.65780355 -1.5625 4.3125 C-1.13130859 3.10013672 -1.13130859 3.10013672 -0.69140625 1.86328125 C-0.46324219 1.24839844 -0.23507812 0.63351563 0 0 Z " fill="#FBF7A6" transform="translate(264,195)"/>
<path d="M0 0 C0 0.99 0 1.98 0 3 C0.061875 3.99 0.12375 4.98 0.1875 6 C0 9 0 9 -1.4375 10.625 C-1.953125 11.07875 -2.46875 11.5325 -3 12 C-3.12375 12.59039062 -3.2475 13.18078125 -3.375 13.7890625 C-4.19133892 16.67686143 -5.68204062 18.4250684 -7.5625 20.75 C-8.20316406 21.54921875 -8.84382812 22.3484375 -9.50390625 23.171875 C-9.99761719 23.77515625 -10.49132812 24.3784375 -11 25 C-12 23 -12 23 -11.21484375 20.53125 C-4.4298441 4.4298441 -4.4298441 4.4298441 0 0 Z " fill="#FAF355" transform="translate(226,133)"/>
<path d="M0 0 C0.90951416 -0.00095673 1.81902832 -0.00191345 2.75610352 -0.00289917 C4.67236399 -0.00357738 6.5886268 -0.00174819 8.50488281 0.00244141 C11.42778717 0.00779471 14.35053788 0.00248421 17.2734375 -0.00390625 C19.14062534 -0.0032454 21.00781308 -0.00196411 22.875 0 C24.17836304 -0.00303635 24.17836304 -0.00303635 25.50805664 -0.00613403 C29.93171656 0.01084916 34.08245581 0.24144472 38.4375 1.1328125 C35.22567851 3.03889348 32.89867397 3.35547497 29.1875 3.2578125 C28.29546875 3.23976562 27.4034375 3.22171875 26.484375 3.203125 C25.47117187 3.16832031 25.47117187 3.16832031 24.4375 3.1328125 C24.4375 2.4728125 24.4375 1.8128125 24.4375 1.1328125 C11.2375 1.4628125 -1.9625 1.7928125 -15.5625 2.1328125 C-15.5625 1.8028125 -15.5625 1.4728125 -15.5625 1.1328125 C-10.3352823 0.06293278 -5.30827529 -0.01236629 0 0 Z " fill="#E9C360" transform="translate(294.5625,215.8671875)"/>
<path d="M0 0 C0.9583374 0.00523682 1.9166748 0.01047363 2.90405273 0.01586914 C4.45576172 0.02070313 4.45576172 0.02070313 6.03881836 0.02563477 C7.12743164 0.03401367 8.21604492 0.04239258 9.33764648 0.05102539 C10.97636719 0.05779297 10.97636719 0.05779297 12.64819336 0.06469727 C15.35723144 0.07652713 18.06616248 0.09300996 20.77514648 0.11352539 C22.00205715 2.56734673 21.9769058 4.31336642 22.02514648 7.05102539 C22.05092773 7.92629883 22.07670898 8.80157227 22.10327148 9.70336914 C21.77514648 12.11352539 21.77514648 12.11352539 20.45874023 13.91821289 C17.95069693 15.69886545 15.7605365 15.31255139 12.77514648 15.11352539 C13.55889648 14.51540039 14.34264648 13.91727539 15.15014648 13.30102539 C17.92088972 11.2026729 17.92088972 11.2026729 19.77514648 8.11352539 C19.94228218 5.48821015 19.94228218 5.48821015 19.77514648 3.11352539 C15.72206315 2.00563004 11.70403274 1.77621272 7.52514648 1.55102539 C6.78006836 1.5078418 6.03499023 1.4646582 5.26733398 1.42016602 C3.43679749 1.31455814 1.60599473 1.21358338 -0.22485352 1.11352539 C-0.22485352 1.77352539 -0.22485352 2.43352539 -0.22485352 3.11352539 C-0.88485352 3.11352539 -1.54485352 3.11352539 -2.22485352 3.11352539 C-2.55485352 4.43352539 -2.88485352 5.75352539 -3.22485352 7.11352539 C-3.26739708 5.11397793 -3.26566134 3.11310903 -3.22485352 1.11352539 C-2.22485352 0.11352539 -2.22485352 0.11352539 0 0 Z " fill="#FED574" transform="translate(296.224853515625,220.886474609375)"/>
<path d="M0 0 C0.28875 0.598125 0.5775 1.19625 0.875 1.8125 C2.04742026 4.19327792 2.04742026 4.19327792 4 7 C4.27311344 9.2412196 4.44878554 11.49506646 4.5625 13.75 C4.84137945 18.56067056 5.20816709 23.24900256 6 28 C5.34 28.33 4.68 28.66 4 29 C1.40389041 19.21822996 -0.70861513 10.21586809 0 0 Z " fill="#FAF070" transform="translate(337,159)"/>
<path d="M0 0 C2.97 0.33 5.94 0.66 9 1 C9 1.66 9 2.32 9 3 C10.98 3 12.96 3 15 3 C15.33 2.34 15.66 1.68 16 1 C16.75216797 1.72509766 16.75216797 1.72509766 17.51953125 2.46484375 C20.83125639 4.51446261 23.90323687 4.48688675 27.6875 4.5625 C30.15255178 4.62476043 32.54024606 4.76559643 35 5 C35.495 5.99 35.495 5.99 36 7 C23.54616192 7.44477993 11.46781289 6.00502003 0 1 C0 0.67 0 0.34 0 0 Z " fill="#F5C825" transform="translate(266,266)"/>
<path d="M0 0 C3.65316671 1.24976756 4.78065836 1.67098753 7 5 C7.99 5.33 8.98 5.66 10 6 C10 7.98 10 9.96 10 12 C10.66 12 11.32 12 12 12 C13.03590199 17.05002222 13.10251672 21.87416389 13 27 C11.11568177 24.17352265 10.67854558 23.0038597 10.125 19.8125 C9.29019958 15.71863873 7.89649358 12.38375805 5.90234375 8.7265625 C5 7 5 7 4 4 C3.34 4 2.68 4 2 4 C1.34 2.68 0.68 1.36 0 0 Z " fill="#F7EC58" transform="translate(331,141)"/>
<path d="M0 0 C1.60717771 2.41076656 2.61542515 4.28099245 3.625 6.9375 C4.01558594 7.94103516 4.01558594 7.94103516 4.4140625 8.96484375 C5 11 5 11 5 15 C3.92621094 14.79503906 2.85242188 14.59007812 1.74609375 14.37890625 C0.3099114 14.10668868 -1.1262874 13.83455789 -2.5625 13.5625 C-3.26697266 13.42779297 -3.97144531 13.29308594 -4.69726562 13.15429688 C-9.12027231 12.31861358 -13.53930209 11.60374755 -18 11 C-18 10.67 -18 10.34 -18 10 C-12.06 10 -6.12 10 0 10 C0 6.7 0 3.4 0 0 Z " fill="#F8F7A9" transform="translate(346,192)"/>
<path d="M0 0 C2.55999547 2.55999547 2.3677931 4.56237431 2.71875 8.046875 C3.04921706 10.34178515 3.91467354 11.96501288 5 14 C6.30126506 19.70341707 6.1837128 25.43285327 6.1875 31.25 C6.19974609 32.25546875 6.21199219 33.2609375 6.22460938 34.296875 C6.22654297 35.2559375 6.22847656 36.215 6.23046875 37.203125 C6.23457764 38.07614258 6.23868652 38.94916016 6.24291992 39.84863281 C6 42 6 42 4 44 C4 34.43 4 24.86 4 15 C3.34 15 2.68 15 2 15 C2 14.01 2 13.02 2 12 C1.34 12 0.68 12 0 12 C0 8.04 0 4.08 0 0 Z " fill="#FAE724" transform="translate(395,153)"/>
<path d="M0 0 C4.01393283 2.95163089 6.85122307 6.12752169 9.8125 10.125 C10.60269531 11.17945313 11.39289063 12.23390625 12.20703125 13.3203125 C14 16 14 16 14 18 C12.68 18 11.36 18 10 18 C9.34 16.35 8.68 14.7 8 13 C7.34 13 6.68 13 6 13 C5.67 11.35 5.34 9.7 5 8 C4.34 8 3.68 8 3 8 C3 6.68 3 5.36 3 4 C2.01 4 1.02 4 0 4 C0 2.68 0 1.36 0 0 Z " fill="#F8F36F" transform="translate(375,120)"/>
<path d="M0 0 C-8.23017469 4.58725962 -14.84593127 5.66821293 -24.1875 5.3125 C-25.90163086 5.27866211 -25.90163086 5.27866211 -27.65039062 5.24414062 C-30.4350253 5.18588467 -33.21676919 5.10415084 -36 5 C-35.67 4.34 -35.34 3.68 -35 3 C-33.09154297 3.04447266 -33.09154297 3.04447266 -31.14453125 3.08984375 C-25.89483981 3.08881581 -20.86150844 2.39576728 -15.6875 1.5625 C-14.80771484 1.42779297 -13.92792969 1.29308594 -13.02148438 1.15429688 C-8.39495655 0.4587097 -8.39495655 0.4587097 -3.84692383 -0.60961914 C-2 -1 -2 -1 0 0 Z " fill="#F1D06A" transform="translate(356,233)"/>
<path d="M0 0 C0.38929688 0.45246094 0.77859375 0.90492188 1.1796875 1.37109375 C8.81922307 8.20733052 22.24395894 8.12149393 32 9 C32 9.33 32 9.66 32 10 C13.87029144 10.19801866 13.87029144 10.19801866 8 9 C7.67 8.34 7.34 7.68 7 7 C4.69034152 5.94647157 2.3570226 4.94280904 0 4 C0 2.68 0 1.36 0 0 Z " fill="#F1CD5F" transform="translate(250,227)"/>
<path d="M0 0 C-0.99 0.33 -1.98 0.66 -3 1 C-3 1.66 -3 2.32 -3 3 C-9.16645379 5.52653315 -13.43592388 6.31281522 -20 5 C-20 5.66 -20 6.32 -20 7 C-20.66 7 -21.32 7 -22 7 C-22 7.99 -22 8.98 -22 10 C-22.66 10 -23.32 10 -24 10 C-24 8.68 -24 7.36 -24 6 C-16.55864981 2.4484465 -8.31842558 -0.31993945 0 0 Z " fill="#EEC05B" transform="translate(277,218)"/>
<path d="M0 0 C-1.92824732 5.04310837 -6.19585314 7.43921821 -10.37109375 10.5859375 C-13.20676666 13.18986894 -14.38985445 15.5455059 -16 19 C-18.1875 19.875 -18.1875 19.875 -20 20 C-17.38629967 13.9981696 -7.10439944 0 0 0 Z " fill="#F7F47D" transform="translate(247,113)"/>
<path d="M0 0 C4.39856003 0.62361437 8.0267781 2.304519 11.9375 4.3125 C12.53240234 4.60833984 13.12730469 4.90417969 13.74023438 5.20898438 C17.71076737 7.21811747 21.34925591 9.47513424 25 12 C24.01 12.495 24.01 12.495 23 13 C22.401875 12.690625 21.80375 12.38125 21.1875 12.0625 C18.6236061 10.81718011 16.81458835 10.84363398 14 11 C14 10.34 14 9.68 14 9 C13.34 9 12.68 9 12 9 C12 8.34 12 7.68 12 7 C11.05125 6.690625 10.1025 6.38125 9.125 6.0625 C6 5 6 5 4 4 C4 3.34 4 2.68 4 2 C2.68 1.34 1.36 0.68 0 0 Z " fill="#F6F778" transform="translate(340,99)"/>
<path d="M0 0 C1.98 0 3.96 0 6 0 C11.74031891 9.22551253 11.74031891 9.22551253 11 15 C10.01 15 9.02 15 8 15 C7.90203125 14.37351563 7.8040625 13.74703125 7.703125 13.1015625 C7.55359375 12.28429687 7.4040625 11.46703125 7.25 10.625 C7.11078125 9.81289062 6.9715625 9.00078125 6.828125 8.1640625 C6.18250739 5.82290908 6.18250739 5.82290908 3.921875 4.7109375 C3.28765625 4.47632813 2.6534375 4.24171875 2 4 C2 3.01 2 2.02 2 1 C1.34 0.67 0.68 0.34 0 0 Z " fill="#F8F165" transform="translate(384,138)"/>
<path d="M0 0 C-2.34182032 6.63515757 -6.5025205 13.75126025 -13 17 C-13 15.35 -13 13.7 -13 12 C-12.01 11.67 -11.02 11.34 -10 11 C-8.77479736 7.99152582 -8.77479736 7.99152582 -8 5 C-6.68 5 -5.36 5 -4 5 C-4 3.68 -4 2.36 -4 1 C-2 0 -2 0 0 0 Z " fill="#F7DB4D" transform="translate(390,228)"/>
<path d="M0 0 C-0.1141866 1.93816735 -0.24173423 3.87555099 -0.375 5.8125 C-0.44460938 6.89144531 -0.51421875 7.97039062 -0.5859375 9.08203125 C-1 12 -1 12 -3 15 C-3.66 15 -4.32 15 -5 15 C-5.33 15.66 -5.66 16.32 -6 17 C-5.93976506 14.91587093 -5.85091679 12.83255565 -5.75 10.75 C-5.70359375 9.58984375 -5.6571875 8.4296875 -5.609375 7.234375 C-5.07172154 4.38067589 -3.66527881 0 0 0 Z " fill="#FAF270" transform="translate(278,154)"/>
<path d="M0 0 C3 1 3 1 4.09765625 3.1796875 C4.41605469 4.06914062 4.73445312 4.95859375 5.0625 5.875 C6.18204353 8.95936491 7.16262419 11.24393629 9 14 C9 14.99 9 15.98 9 17 C9.66 17 10.32 17 11 17 C10.67 18.32 10.34 19.64 10 21 C0 6.9 0 6.9 0 0 Z " fill="#F6DD51" transform="translate(216,214)"/>
<path d="M0 0 C0.99 0.33 1.98 0.66 3 1 C2.38640625 1.96035156 1.7728125 2.92070312 1.140625 3.91015625 C-1.33020747 8.23411307 -2.29632127 12.58702745 -3.25 17.4375 C-3.42273438 18.26443359 -3.59546875 19.09136719 -3.7734375 19.94335938 C-4.19308998 21.96002266 -4.5980833 23.97972725 -5 26 C-5.33 26 -5.66 26 -6 26 C-6.71240023 17.41161947 -4.61177122 10.0918269 -2 2 C-1.34 2 -0.68 2 0 2 C0 1.34 0 0.68 0 0 Z " fill="#F7EB6E" transform="translate(273,147)"/>
<path d="M0 0 C1.33332095 2.6666419 0.67102033 4.16680303 0 7 C0.99 7 1.98 7 3 7 C3 6.34 3 5.68 3 5 C3.66 5 4.32 5 5 5 C5.33 5.66 5.66 6.32 6 7 C8.02463255 7.65213292 8.02463255 7.65213292 10 8 C9.67 5.36 9.34 2.72 9 0 C11.32947183 2.11770166 12.88750845 4.03335588 14 7 C13.67 7.99 13.34 8.98 13 10 C6.07 9.505 6.07 9.505 -1 9 C-1.09765625 2.84765625 -1.09765625 2.84765625 -1 1 C-0.67 0.67 -0.34 0.34 0 0 Z " fill="#F9EE55" transform="translate(301,122)"/>
<path d="M0 0 C0.99 0.33 1.98 0.66 3 1 C2.26121661 2.1323975 1.50841355 3.2556547 0.75 4.375 C0.12351563 5.31472656 0.12351563 5.31472656 -0.515625 6.2734375 C-2.20968496 8.24389672 -3.67662314 8.87247888 -6 10 C-7.6179937 11.33404116 -9.20038133 12.71211239 -10.75 14.125 C-11.54921875 14.84945312 -12.3484375 15.57390625 -13.171875 16.3203125 C-13.77515625 16.87460938 -14.3784375 17.42890625 -15 18 C-15.33 17.34 -15.66 16.68 -16 16 C-12.18303789 12.05991008 -8.13944382 8.45323382 -3.98828125 4.8671875 C-1.81411592 2.96687677 -1.81411592 2.96687677 0 0 Z " fill="#F8F331" transform="translate(248,112)"/>
<path d="M0 0 C1.258125 -0.020625 2.51625 -0.04125 3.8125 -0.0625 C4.52019531 -0.07410156 5.22789062 -0.08570312 5.95703125 -0.09765625 C8 0 8 0 11 1 C11 1.99 11 2.98 11 4 C11.66 4 12.32 4 13 4 C13.66 8.29 14.32 12.58 15 17 C14.34 17 13.68 17 13 17 C12.80664062 16.15695313 12.61328125 15.31390625 12.4140625 14.4453125 C12.02347656 12.80175781 12.02347656 12.80175781 11.625 11.125 C11.36976563 10.03445312 11.11453125 8.94390625 10.8515625 7.8203125 C10.21093785 4.89591545 10.21093785 4.89591545 8 3 C7.01 3.495 7.01 3.495 6 4 C5.67 3.34 5.34 2.68 5 2 C3.02 2 1.04 2 -1 2 C-0.67 1.34 -0.34 0.68 0 0 Z " fill="#F8EF5D" transform="translate(304,116)"/>
<path d="M0 0 C0 0.33 0 0.66 0 1 C-7.92 1.495 -7.92 1.495 -16 2 C-16 2.66 -16 3.32 -16 4 C-12.37 4 -8.74 4 -5 4 C-5 4.33 -5 4.66 -5 5 C-6.43640171 5.19573608 -7.87419504 5.38127816 -9.3125 5.5625 C-10.11300781 5.66691406 -10.91351563 5.77132812 -11.73828125 5.87890625 C-14 6 -14 6 -17 5 C-17.8125 3.0625 -17.8125 3.0625 -18 1 C-13.1090507 -3.8909493 -5.89562053 -1.78974195 0 0 Z " fill="#F0BE3E" transform="translate(336,234)"/>
<path d="M0 0 C0.66 0.33 1.32 0.66 2 1 C1.98839844 1.75925781 1.97679687 2.51851562 1.96484375 3.30078125 C1.95582031 4.29464844 1.94679688 5.28851563 1.9375 6.3125 C1.92589844 7.29863281 1.91429687 8.28476563 1.90234375 9.30078125 C1.87670138 12.09963849 1.87670138 12.09963849 3 15 C1.02 15 -0.96 15 -3 15 C-3 13.68 -3 12.36 -3 11 C-2.34 11 -1.68 11 -1 11 C-1.20625 9.9275 -1.4125 8.855 -1.625 7.75 C-1.9876191 4.12380904 -1.98362069 2.91708924 0 0 Z " fill="#FCF170" transform="translate(269,188)"/>
<path d="M0 0 C5.94 0 11.88 0 18 0 C18 0.66 18 1.32 18 2 C18.66 2 19.32 2 20 2 C20 2.99 20 3.98 20 5 C16.7 5 13.4 5 10 5 C10 4.67 10 4.34 10 4 C11.98 3.67 13.96 3.34 16 3 C10.72 2.34 5.44 1.68 0 1 C0 0.67 0 0.34 0 0 Z " fill="#F3D776" transform="translate(272,233)"/>
<path d="M0 0 C1.65 0 3.3 0 5 0 C4.01 0.495 4.01 0.495 3 1 C3 1.66 3 2.32 3 3 C2.01 3.66 1.02 4.32 0 5 C-1.01752555 7.64047252 -1.01752555 7.64047252 -1.6875 10.625 C-2.06455078 12.12933594 -2.06455078 12.12933594 -2.44921875 13.6640625 C-2.63097656 14.43492187 -2.81273437 15.20578125 -3 16 C-4.74565111 12.78360346 -5.204437 10.67986596 -5 7 C-4.34 7 -3.68 7 -3 7 C-3 5.35 -3 3.7 -3 2 C-2.01 2.33 -1.02 2.66 0 3 C0 2.01 0 1.02 0 0 Z " fill="#F6DE51" transform="translate(252,208)"/>
<path d="M0 0 C0.99 0 1.98 0 3 0 C3.19406478 1.64507218 3.38007935 3.29109594 3.5625 4.9375 C3.66691406 5.85402344 3.77132813 6.77054688 3.87890625 7.71484375 C3.91886719 8.46894531 3.95882813 9.22304687 4 10 C3 11 3 11 0.0625 11.1875 C-3 11 -3 11 -5 9 C-3.35 9 -1.7 9 0 9 C0 6.03 0 3.06 0 0 Z " fill="#FBF371" transform="translate(343,192)"/>
<path d="M0 0 C1.98 0 3.96 0 6 0 C2.87097592 2.56489714 -0.27109139 4.13534179 -4 5.6875 C-5.546875 6.34298828 -5.546875 6.34298828 -7.125 7.01171875 C-10 8 -10 8 -14 8 C-14 7.34 -14 6.68 -14 6 C-12.58603098 5.49242138 -11.16868271 4.99425075 -9.75 4.5 C-8.96109375 4.2215625 -8.1721875 3.943125 -7.359375 3.65625 C-5 3 -5 3 -1 3 C-0.67 2.01 -0.34 1.02 0 0 Z " fill="#F7DD71" transform="translate(346,263)"/>
<path d="M0 0 C4.75 0.875 4.75 0.875 7 2 C7 2.66 7 3.32 7 4 C7.7425 4.2475 8.485 4.495 9.25 4.75 C12.20124062 6.09147301 13.84814974 7.60905526 16 10 C12.42275566 10 11.03911142 9.07708484 8 7.25 C6.700625 6.48429687 6.700625 6.48429687 5.375 5.703125 C3.00911091 4.00653348 1.59528915 2.41392437 0 0 Z " fill="#F6DC5C" transform="translate(242,251)"/>
<path d="M0 0 C1.72985242 0.11512153 3.45888751 0.24255677 5.1875 0.375 C6.15042969 0.44460937 7.11335938 0.51421875 8.10546875 0.5859375 C11.01508938 1.00215853 13.32890774 1.79874096 16 3 C15.67 3.99 15.34 4.98 15 6 C9.22621075 5.5188509 5.04140164 3.81532819 0 1 C0 0.67 0 0.34 0 0 Z " fill="#F8F37E" transform="translate(307,133)"/>
<path d="M0 0 C1.98 0 3.96 0 6 0 C6 0.66 6 1.32 6 2 C6.62648438 1.98839844 7.25296875 1.97679687 7.8984375 1.96484375 C8.71570313 1.95582031 9.53296875 1.94679687 10.375 1.9375 C11.18710937 1.92589844 11.99921875 1.91429687 12.8359375 1.90234375 C15 2 15 2 17 3 C17 3.66 17 4.32 17 5 C13.09970958 6.30009681 11.26488883 5.40794184 7.375 4.1875 C6.20710938 3.83042969 5.03921875 3.47335938 3.8359375 3.10546875 C1 2 1 2 0 0 Z " fill="#EFBC3F" transform="translate(255,228)"/>
<path d="M0 0 C0.66 0.66 1.32 1.32 2 2 C4.56300728 2 7.07298116 1.7373971 9.625 1.5 C10.62789063 1.4071875 11.63078125 1.314375 12.6640625 1.21875 C13.43492187 1.1465625 14.20578125 1.074375 15 1 C15 1.99 15 2.98 15 4 C10.71 4.66 6.42 5.32 2 6 C1.01 4.35 0.02 2.7 -1 1 C-0.67 0.67 -0.34 0.34 0 0 Z " fill="#F7EC2B" transform="translate(297,112)"/>
<path d="M0 0 C0.33 0 0.66 0 1 0 C1.50534727 2.72827365 2.00443845 5.45744694 2.5 8.1875 C2.64308594 8.95642578 2.78617188 9.72535156 2.93359375 10.51757812 C3.63238715 14.39421773 4.19039017 18.041471 4 22 C0.50282974 16.75424461 -0.2430834 13.00496213 -0.125 6.6875 C-0.10695312 5.43324219 -0.08890625 4.17898437 -0.0703125 2.88671875 C-0.03550781 1.45779297 -0.03550781 1.45779297 0 0 Z " fill="#F6E453" transform="translate(212,192)"/>
<path d="M0 0 C1.98478693 2.9771804 2.45406619 4.5641385 3.0625 8 C3.56510094 10.79130441 4.10053023 13.3015907 5 16 C5.12781786 18.67394964 5.04391871 21.32095857 5 24 C2.75061292 20.62591937 2.11783557 17.58738675 1.375 13.6875 C1.2409375 13.03587891 1.106875 12.38425781 0.96875 11.71289062 C0.19201053 7.75389711 -0.13745625 4.02996743 0 0 Z " fill="#F6E86D" transform="translate(344,168)"/>
<path d="M0 0 C0.33 0 0.66 0 1 0 C0.59248958 7.39139585 -0.58507186 13.99822721 -3 21 C-3.33 21 -3.66 21 -4 21 C-4.14909404 16.66330827 -3.67232801 13.00223347 -2.5625 8.8125 C-2.16224609 7.27529297 -2.16224609 7.27529297 -1.75390625 5.70703125 C-1.21996987 3.78984001 -0.62934174 1.88802523 0 0 Z " fill="#F8EA70" transform="translate(401,192)"/>
<path d="M0 0 C3.46994421 -0.39656505 4.72510143 -0.19635612 7.625 1.875 C8.40875 2.57625 9.1925 3.2775 10 4 C10.99 4.66 11.98 5.32 13 6 C5.75560803 6.61393152 5.75560803 6.61393152 2 3.5625 C0 1 0 1 0 0 Z " fill="#FAEC80" transform="translate(295,231)"/>
<path d="M0 0 C3 1 3 1 3.87890625 2.63671875 C4.10449219 3.31347656 4.33007812 3.99023438 4.5625 4.6875 C4.80742187 5.40292969 5.05234375 6.11835938 5.3046875 6.85546875 C5.53414063 7.56316406 5.76359375 8.27085937 6 9 C6.391875 10.155 6.78375 11.31 7.1875 12.5 C7.455625 13.325 7.72375 14.15 8 15 C7.34 15 6.68 15 6 15 C4.99267601 13.06629769 3.99436712 11.12789694 3 9.1875 C2.443125 8.10855469 1.88625 7.02960938 1.3125 5.91796875 C0 3 0 3 0 0 Z " fill="#F3E46A" transform="translate(349,194)"/>
<path d="M0 0 C0.66 0 1.32 0 2 0 C0.95518663 6.70880162 -0.69800644 12.0564116 -4 18 C-5.13315882 14.60052355 -4.86787136 13.92652852 -3.6875 10.6875 C-3.40648437 9.89859375 -3.12546875 9.1096875 -2.8359375 8.296875 C-2.56007813 7.53890625 -2.28421875 6.7809375 -2 6 C-1.608125 4.824375 -1.21625 3.64875 -0.8125 2.4375 C-0.4103125 1.2309375 -0.4103125 1.2309375 0 0 Z " fill="#F5E465" transform="translate(262,189)"/>
<path d="M0 0 C1.32 0.33 2.64 0.66 4 1 C2.44210317 2.13136586 0.87846143 3.25482321 -0.6875 4.375 C-1.55761719 5.00148438 -2.42773438 5.62796875 -3.32421875 6.2734375 C-5.83596952 7.89415843 -8.19299187 8.99858088 -11 10 C-11 9.34 -11 8.68 -11 8 C-10.34 8 -9.68 8 -9 8 C-9 7.01 -9 6.02 -9 5 C-5.535 4.505 -5.535 4.505 -2 4 C-2 3.34 -2 2.68 -2 2 C-1.34 2 -0.68 2 0 2 C0 1.34 0 0.68 0 0 Z " fill="#F6DF5F" transform="translate(364,253)"/>
<path d="M0 0 C7.75493514 -0.09928082 15.31068715 -0.06059488 23 1 C23 1.33 23 1.66 23 2 C14.91027535 3.04474629 7.9446047 2.89231726 0 1 C0 0.67 0 0.34 0 0 Z " fill="#EAAD13" transform="translate(268,237)"/>
<path d="M0 0 C-2.9364575 1.95763833 -4.37812006 2.4135861 -7.75 3 C-11.93281484 3.77277811 -15.93245666 4.76205203 -20 6 C-19.67 5.34 -19.34 4.68 -19 4 C-18.34 4 -17.68 4 -17 4 C-17 3.34 -17 2.68 -17 2 C-12.06632757 -0.46683622 -5.39745703 -0.13839633 0 0 Z " fill="#F8F440" transform="translate(297,95)"/>
<path d="M0 0 C1.32 0.33 2.64 0.66 4 1 C3.2575 1.6496875 3.2575 1.6496875 2.5 2.3125 C0.66781808 3.99740483 0.66781808 3.99740483 1 7 C-0.98 7.99 -0.98 7.99 -3 9 C-3.26218749 5.85375007 -3.24754367 4.38162983 -1.5 1.6875 C-1.005 1.130625 -0.51 0.57375 0 0 Z " fill="#F8F12B" transform="translate(228,132)"/>
<path d="M0 0 C0 2.31 0 4.62 0 7 C-4.75 5.125 -4.75 5.125 -7 4 C-7 3.01 -7 2.02 -7 1 C-3.375 -1.125 -3.375 -1.125 0 0 Z " fill="#F9EC30" transform="translate(326,130)"/>
<path d="M0 0 C0.33 0 0.66 0 1 0 C1.27018742 7.46017494 1.26429585 13.60355623 -3 20 C-2.69140975 17.22867983 -2.3782967 14.45800014 -2.0625 11.6875 C-1.97548828 10.90181641 -1.88847656 10.11613281 -1.79882812 9.30664062 C-1.71181641 8.54931641 -1.62480469 7.79199219 -1.53515625 7.01171875 C-1.41732788 5.96697388 -1.41732788 5.96697388 -1.29711914 4.90112305 C-1 3 -1 3 0 0 Z " fill="#FBF6A6" transform="translate(272,158)"/>
<path d="M0 0 C2.31 0.33 4.62 0.66 7 1 C7 1.66 7 2.32 7 3 C5.68 3 4.36 3 3 3 C1.38935371 6.65079826 0.55105909 10.0507432 0 14 C-0.33 14 -0.66 14 -1 14 C-0.67 9.38 -0.34 4.76 0 0 Z " fill="#FAF783" transform="translate(296,117)"/>
<path d="M0 0 C1.47557505 3.83649513 0.61403853 6.31076908 -1 10 C-3.125 12.375 -3.125 12.375 -5 14 C-4.54636829 12.41531323 -4.08688548 10.83230076 -3.625 9.25 C-3.36976563 8.36828125 -3.11453125 7.4865625 -2.8515625 6.578125 C-2.0790066 4.23919428 -1.16374324 2.16557438 0 0 Z " fill="#F7F27B" transform="translate(219,144)"/>
<path d="M0 0 C1.91635217 -0.05423638 3.83314925 -0.09289963 5.75 -0.125 C7.35101563 -0.15980469 7.35101563 -0.15980469 8.984375 -0.1953125 C11.92470106 -0.00487687 13.52361878 0.47329896 16 2 C16 2.66 16 3.32 16 4 C9.125 3.125 9.125 3.125 8 2 C6.65252916 1.76924918 5.29622435 1.58846937 3.9375 1.4375 C2.638125 1.293125 1.33875 1.14875 0 1 C0 0.67 0 0.34 0 0 Z " fill="#F7F540" transform="translate(328,99)"/>
<path d="M0 0 C0.33 0 0.66 0 1 0 C1.22223194 2.74086056 1.34781139 4.43963721 -0.125 6.8125 C-2.77535957 8.49106106 -4.93246424 8.20450238 -8 8 C-7.236875 7.4225 -6.47375 6.845 -5.6875 6.25 C-3.33393891 4.27957676 -1.76530467 2.47142654 0 0 Z " fill="#F4CD5B" transform="translate(317,228)"/>
<path d="M0 0 C0.33 0 0.66 0 1 0 C0.67 2.97 0.34 5.94 0 9 C-1.65 9 -3.3 9 -5 9 C-5.33 8.01 -5.66 7.02 -6 6 C-5.38125 5.7525 -4.7625 5.505 -4.125 5.25 C-1.64931313 3.79371361 -1.04874998 2.62187494 0 0 Z " fill="#F6CD46" transform="translate(362,225)"/>
<path d="M0 0 C0.33 0 0.66 0 1 0 C1.33848652 1.89492006 1.67056911 3.79098466 2 5.6875 C2.185625 6.74324219 2.37125 7.79898438 2.5625 8.88671875 C2.95068074 11.64904062 3.08259976 14.21742043 3 17 C1.51171875 15.94921875 1.51171875 15.94921875 0 14 C-0.29296875 10.64453125 -0.29296875 10.64453125 -0.1875 6.8125 C-0.16042969 5.54019531 -0.13335937 4.26789063 -0.10546875 2.95703125 C-0.07066406 1.98121094 -0.03585937 1.00539062 0 0 Z " fill="#FCF4A3" transform="translate(341,166)"/>
<path d="M0 0 C0 1.65 0 3.3 0 5 C-0.99 5.33 -1.98 5.66 -3 6 C-3 5.34 -3 4.68 -3 4 C-3.66 4 -4.32 4 -5 4 C-5 4.66 -5 5.32 -5 6 C-5.99 5.67 -6.98 5.34 -8 5 C-5.54299754 1.19164619 -5.54299754 1.19164619 -2.875 0.25 C-1 0 -1 0 0 0 Z " fill="#FCE809" transform="translate(309,123)"/>
<path d="M0 0 C0.28875 0.639375 0.5775 1.27875 0.875 1.9375 C1.82823451 4.15206079 1.82823451 4.15206079 4 5 C4 6.32 4 7.64 4 9 C2.35 8.67 0.7 8.34 -1 8 C-0.67 5.36 -0.34 2.72 0 0 Z " fill="#F7C807" transform="translate(364,222)"/>
<path d="M0 0 C1.9375 0.6875 1.9375 0.6875 4 2 C4.75 4.625 4.75 4.625 5 7 C5.66 7 6.32 7 7 7 C6.67 8.32 6.34 9.64 6 11 C4.9944239 9.54550599 3.99569565 8.08627557 3 6.625 C2.443125 5.81289062 1.88625 5.00078125 1.3125 4.1640625 C0 2 0 2 0 0 Z " fill="#F6E369" transform="translate(220,224)"/>
<path d="M0 0 C-0.33 1.65 -0.66 3.3 -1 5 C-1.99 5.33 -2.98 5.66 -4 6 C-4 5.34 -4 4.68 -4 4 C-5.32 3.67 -6.64 3.34 -8 3 C-4.93882432 0.37613513 -4.26826873 0 0 0 Z " fill="#FBF7BA" transform="translate(294,137)"/>
<path d="M0 0 C2.97 0.33 5.94 0.66 9 1 C9 1.66 9 2.32 9 3 C10.65 3 12.3 3 14 3 C14 3.66 14 4.32 14 5 C9.16371695 4.00956295 4.52381127 3.04301154 0 1 C0 0.67 0 0.34 0 0 Z " fill="#F7DE78" transform="translate(266,266)"/>
<path d="M0 0 C-1.28813342 0.83878455 -2.58063256 1.67086783 -3.875 2.5 C-4.59429687 2.9640625 -5.31359375 3.428125 -6.0546875 3.90625 C-8 5 -8 5 -10 5 C-10.33 5.66 -10.66 6.32 -11 7 C-11 6.34 -11 5.68 -11 5 C-11.66 4.67 -12.32 4.34 -13 4 C-4.33663366 -1.44554455 -4.33663366 -1.44554455 0 0 Z " fill="#F3B60A" transform="translate(359,233)"/>
<path d="M0 0 C0.99 0.33 1.98 0.66 3 1 C4.25 8.625 4.25 8.625 2 12 C1.34 8.04 0.68 4.08 0 0 Z " fill="#F4D852" transform="translate(361,213)"/>
<path d="M0 0 C0 1.98 0 3.96 0 6 C-0.99 6.495 -0.99 6.495 -2 7 C-3.13350534 9.01669827 -3.13350534 9.01669827 -4 11 C-4.3682455 3.51234156 -4.3682455 3.51234156 -2.5625 1 C-1 0 -1 0 0 0 Z " fill="#F8EC30" transform="translate(218,155)"/>
<path d="M0 0 C0 1.65 0 3.3 0 5 C-0.99 5 -1.98 5 -3 5 C-3 4.01 -3 3.02 -3 2 C-4.32 2 -5.64 2 -7 2 C-7 1.34 -7 0.68 -7 0 C-3.98968256 -0.93423645 -3.13349732 -1.04449911 0 0 Z " fill="#FBED08" transform="translate(293,128)"/>
<path d="M0 0 C1.21386936 3.64160808 0.6674695 4.33165469 -0.9375 7.6875 C-1.31777344 8.49574219 -1.69804687 9.30398437 -2.08984375 10.13671875 C-2.39019531 10.75160156 -2.69054687 11.36648437 -3 12 C-3.33 12 -3.66 12 -4 12 C-3.28571429 3.42857143 -3.28571429 3.42857143 0 0 Z " fill="#F5E35F" transform="translate(396,213)"/>
<path d="M0 0 C-1.45804169 0.81302325 -2.91644315 1.62540131 -4.375 2.4375 C-5.18710937 2.88996094 -5.99921875 3.34242188 -6.8359375 3.80859375 C-8.20996622 4.5650536 -9.59709261 5.29854631 -11 6 C-11 4.68 -11 3.36 -11 2 C-9.68 2 -8.36 2 -7 2 C-7 1.34 -7 0.68 -7 0 C-3.86650268 -1.04449911 -3.01031744 -0.93423645 0 0 Z " fill="#F9F272" transform="translate(293,135)"/>
<path d="M0 0 C1.98 0.495 1.98 0.495 4 1 C4.33 2.32 4.66 3.64 5 5 C3.68 5.33 2.36 5.66 1 6 C1 5.01 1 4.02 1 3 C0.34 2.67 -0.32 2.34 -1 2 C-0.67 1.34 -0.34 0.68 0 0 Z " fill="#FDEE14" transform="translate(314,114)"/>
<path d="M0 0 C0.33 0 0.66 0 1 0 C1.17942163 3.94727588 1.09350689 6.5980513 -1 10 C-0.01 10.33 0.98 10.66 2 11 C0.68 11.33 -0.64 11.66 -2 12 C-3.15957207 8.52128379 -2.77456651 7.65780355 -1.5625 4.3125 C-1.13130859 3.10013672 -1.13130859 3.10013672 -0.69140625 1.86328125 C-0.46324219 1.24839844 -0.23507812 0.63351563 0 0 Z " fill="#FAF6B7" transform="translate(264,195)"/>
<path d="M0 0 C0.33 0.66 0.66 1.32 1 2 C0.06553465 4.03144641 -0.93224776 6.03533587 -2 8 C-2.66 8 -3.32 8 -4 8 C-4.33 9.32 -4.66 10.64 -5 12 C-5.33 11.34 -5.66 10.68 -6 10 C-4.39701907 6.31314387 -2.52394612 3.12488567 0 0 Z " fill="#FAF8AB" transform="translate(279,146)"/>
<path d="M0 0 C0.33 0 0.66 0 1 0 C1.33 2.97 1.66 5.94 2 9 C-0.31 9.33 -2.62 9.66 -5 10 C-4.67 9.01 -4.34 8.02 -4 7 C-3.01 6.67 -2.02 6.34 -1 6 C-0.67 4.02 -0.34 2.04 0 0 Z " fill="#FFFECA" transform="translate(299,124)"/>
<path d="M0 0 C1.98 0 3.96 0 6 0 C2.63576723 2.96052484 -0.69159287 3.92289822 -5 5 C-5 4.34 -5 3.68 -5 3 C-3.68 3 -2.36 3 -1 3 C-0.67 2.01 -0.34 1.02 0 0 Z " fill="#F5DB5C" transform="translate(346,263)"/>
<path d="M0 0 C0 1.98 0 3.96 0 6 C-1.32 6 -2.64 6 -4 6 C-4 4.35 -4 2.7 -4 1 C-1 0 -1 0 0 0 Z " fill="#F8CC13" transform="translate(369,247)"/>
<path d="M0 0 C0.99 0 1.98 0 3 0 C1.54744301 3.82946843 -0.42895561 5.12050295 -4 7 C-4 5.68 -4 4.36 -4 3 C-2.68 3 -1.36 3 0 3 C0 2.01 0 1.02 0 0 Z " fill="#F5DD55" transform="translate(373,245)"/>
<path d="M0 0 C-0.99 1.485 -0.99 1.485 -2 3 C-5.63 2.67 -9.26 2.34 -13 2 C-13 1.67 -13 1.34 -13 1 C-8.61414671 0.29826347 -4.44209357 -0.10834375 0 0 Z " fill="#F4AF07" transform="translate(344,237)"/>
<path d="M0 0 C2 2 2 2 2 5 C0.02 5.33 -1.96 5.66 -4 6 C-3.67 4.68 -3.34 3.36 -3 2 C-2.34 2 -1.68 2 -1 2 C-0.67 1.34 -0.34 0.68 0 0 Z " fill="#F0B63A" transform="translate(357,223)"/>
<path d="M0 0 C3.24299151 2.38957269 5.50902342 4.2047869 7 8 C5.68 8 4.36 8 3 8 C3 6.68 3 5.36 3 4 C2.01 4 1.02 4 0 4 C0 2.68 0 1.36 0 0 Z " fill="#F6F696" transform="translate(375,120)"/>
<path d="M0 0 C3.77300358 1.0197307 4.80206144 1.65872662 6.8125 5.125 C7.204375 6.07375 7.59625 7.0225 8 8 C3.83648025 6.61216008 2.66077051 4.45181039 0 1 C0 0.67 0 0.34 0 0 Z " fill="#F4DF77" transform="translate(234,243)"/>
<path d="M0 0 C1.37478516 0.01740234 1.37478516 0.01740234 2.77734375 0.03515625 C3.69644531 0.04417969 4.61554688 0.05320313 5.5625 0.0625 C6.27277344 0.07410156 6.98304688 0.08570313 7.71484375 0.09765625 C7.71484375 0.42765625 7.71484375 0.75765625 7.71484375 1.09765625 C5.07484375 1.09765625 2.43484375 1.09765625 -0.28515625 1.09765625 C-0.28515625 1.75765625 -0.28515625 2.41765625 -0.28515625 3.09765625 C-0.94515625 3.09765625 -1.60515625 3.09765625 -2.28515625 3.09765625 C-2.61515625 4.41765625 -2.94515625 5.73765625 -3.28515625 7.09765625 C-3.32769981 5.09810879 -3.32596408 3.09723989 -3.28515625 1.09765625 C-2.28515625 0.09765625 -2.28515625 0.09765625 0 0 Z " fill="#FEE363" transform="translate(296.28515625,220.90234375)"/>
<path d="M0 0 C2.64 0 5.28 0 8 0 C8.66 1.32 9.32 2.64 10 4 C9.01 4 8.02 4 7 4 C6.34 3.34 5.68 2.68 5 2 C1.91652174 1.83318891 1.91652174 1.83318891 -1 2 C-0.67 1.34 -0.34 0.68 0 0 Z " fill="#FCF990" transform="translate(304,116)"/>
<path d="M0 0 C1.32 0.33 2.64 0.66 4 1 C4 1.99 4 2.98 4 4 C2.02 4.33 0.04 4.66 -2 5 C-1.34 3.35 -0.68 1.7 0 0 Z " fill="#FBC507" transform="translate(328,266)"/>
<path d="M0 0 C4.95 0.99 4.95 0.99 10 2 C10 2.33 10 2.66 10 3 C6.7 3 3.4 3 0 3 C0 2.01 0 1.02 0 0 Z " fill="#ECC663" transform="translate(346,220)"/>
<path d="M0 0 C1.80330533 3.60661066 2.46599103 6.08393425 3 10 C2.01 9.67 1.02 9.34 0 9 C0 6.03 0 3.06 0 0 Z " fill="#F9F263" transform="translate(337,159)"/>
<path d="M0 0 C3.55780196 0.60990891 6.6828589 1.5783681 10 3 C10 3.66 10 4.32 10 5 C7.03 4.505 7.03 4.505 4 4 C4 3.34 4 2.68 4 2 C2.68 1.34 1.36 0.68 0 0 Z " fill="#F8F992" transform="translate(340,99)"/>
<path d="M0 0 C1.875 0.75 1.875 0.75 2.875 2.75 C0 3.375 0 3.375 -3.125 3.75 C-3.785 3.09 -4.445 2.43 -5.125 1.75 C-2.125 -0.25 -2.125 -0.25 0 0 Z " fill="#FAF172" transform="translate(307.125,119.25)"/>
<path d="M0 0 C1.98 0 3.96 0 6 0 C6.66 1.32 7.32 2.64 8 4 C5.64828869 3.40138258 3.3140622 2.73075648 1 2 C0.67 1.34 0.34 0.68 0 0 Z " fill="#EFCA62" transform="translate(255,228)"/>
<path d="M0 0 C0.99 0 1.98 0 3 0 C2.34 1.65 1.68 3.3 1 5 C0.01 5 -0.98 5 -2 5 C-2 4.01 -2 3.02 -2 2 C-1.34 2 -0.68 2 0 2 C0 1.34 0 0.68 0 0 Z " fill="#EDA206" transform="translate(257,223)"/>
<path d="M0 0 C0.33 1.32 0.66 2.64 1 4 C1.66 4 2.32 4 3 4 C3 4.99 3 5.98 3 7 C1.68 7 0.36 7 -1 7 C-0.67 4.69 -0.34 2.38 0 0 Z " fill="#F5CE2A" transform="translate(247,220)"/>
<path d="M0 0 C2.64 0 5.28 0 8 0 C7.67 0.99 7.34 1.98 7 3 C4.625 3.1875 4.625 3.1875 2 3 C1.34 2.01 0.68 1.02 0 0 Z " fill="#EBA50A" transform="translate(349,223)"/>
<path d="M0 0 C1.65 0 3.3 0 5 0 C5.33 1.65 5.66 3.3 6 5 C4.68 4.67 3.36 4.34 2 4 C2 3.01 2 2.02 2 1 C1.34 0.67 0.68 0.34 0 0 Z " fill="#F9EF3A" transform="translate(384,138)"/>
</svg>
