<?xml version="1.0" encoding="UTF-8"?>
<svg version="1.1" xmlns="http://www.w3.org/2000/svg" width="476" height="448">
<path d="M0 0 C0.6717627 0.39010254 1.34352539 0.78020508 2.03564453 1.18212891 C11.98971639 7.03483087 21.12194859 13.6297322 30 21 C30.57991699 21.47695313 31.15983398 21.95390625 31.75732422 22.4453125 C70.22645346 54.19693586 96.89158406 96.94160228 107.75 145.6875 C108.04825684 147.02131714 108.04825684 147.02131714 108.35253906 148.38208008 C111.27996999 162.22461044 112.38548809 175.88383101 112.3125 190 C112.31034485 190.7580191 112.3081897 191.51603821 112.30596924 192.29702759 C112.02983447 253.2597642 87.35437642 306.10649139 44.54370117 348.7590332 C37.73517382 355.43020724 30.73656474 361.44726125 23 367 C22.32340332 367.49435547 21.64680664 367.98871094 20.94970703 368.49804688 C-14.0197409 394.02503391 -54.05055783 408.85833147 -97 414 C-97.69810791 414.0942627 -98.39621582 414.18852539 -99.11547852 414.28564453 C-155.46750238 421.09294466 -218.31925331 407.98741123 -265 375 C-265.74217773 374.48501953 -266.48435547 373.97003906 -267.24902344 373.43945312 C-277.98170826 365.95234617 -287.88925998 357.9339458 -297.21484375 348.75439453 C-299.02468522 346.97574016 -300.85463022 345.21972938 -302.6875 343.46484375 C-310.23956313 336.16320336 -316.95309814 328.59022333 -323 320 C-323.6180249 319.12456543 -323.6180249 319.12456543 -324.24853516 318.23144531 C-330.80903652 308.85065927 -336.65553802 299.12025467 -342 289 C-342.59425781 287.87980469 -343.18851562 286.75960938 -343.80078125 285.60546875 C-351.37635609 270.3672435 -356.88630828 253.56312939 -360.4375 236.9375 C-360.57696045 236.2868457 -360.7164209 235.63619141 -360.86010742 234.96582031 C-363.66070803 220.4473367 -364.40958609 205.7488609 -364.375 191 C-364.37478851 190.1568222 -364.37457703 189.31364441 -364.37435913 188.44491577 C-364.33757607 173.64609802 -363.11538451 159.50457977 -360 145 C-359.81276367 144.10345703 -359.62552734 143.20691406 -359.43261719 142.28320312 C-352.55155686 110.12405071 -337.91306019 80.34631565 -317 55 C-316.53625977 54.43474609 -316.07251953 53.86949219 -315.59472656 53.28710938 C-305.44526976 40.9884356 -294.63976461 29.7819367 -282 20 C-281.41766602 19.54125488 -280.83533203 19.08250977 -280.23535156 18.60986328 C-270.30405879 10.80229175 -260.03730137 4.13095245 -249 -2 C-248.37270996 -2.35545898 -247.74541992 -2.71091797 -247.09912109 -3.07714844 C-172.15654183 -45.49747632 -74.01217098 -43.0329235 0 0 Z " fill="#FDD52E" transform="translate(364,33)"/>
<path d="M0 0 C8.73554903 6.23734529 13.33812509 13.70320354 15.65234375 24.1171875 C16.01170455 29.32791914 15.9794959 34.52155847 15.90234375 39.7421875 C16.76472656 39.84402344 17.62710938 39.94585937 18.515625 40.05078125 C28.65188952 42.12012245 37.93265729 49.41647224 45.90234375 55.7421875 C47.14951172 56.72251953 47.14951172 56.72251953 48.421875 57.72265625 C60.55797037 67.90933158 68.62061334 81.37436019 74.90234375 95.7421875 C75.37285156 96.81210938 75.84335937 97.88203125 76.328125 98.984375 C82.16067894 113.75536301 84.12595518 129.99515394 86.72607422 145.57397461 C93.46738928 194.03190048 93.46738928 194.03190048 118.77734375 233.9921875 C127.08085224 241.15145087 131.32234121 249.70339124 132.21875 260.58203125 C132.54673701 268.37980695 132.45916694 276.09168879 127.90234375 282.7421875 C109.88405745 301.73241455 74.17522407 303.31577917 49.71484375 305.5546875 C49.04045258 305.6179422 48.3660614 305.6811969 47.67123413 305.74636841 C37.72311108 306.6600506 27.87953081 306.88366681 17.90234375 306.7421875 C19.47715762 301.71943312 20.48913189 298.85739587 24.90234375 295.7421875 C31.31518733 293.99956696 38.04258411 293.72647092 44.63867188 293.10107422 C80.54099499 291.15060303 80.54099499 291.15060303 112.90234375 277.7421875 C113.69345145 275.67171406 113.69345145 275.67171406 113.90234375 273.7421875 C109.05000676 270.09705551 104.41781574 268.3928373 98.58984375 266.8046875 C97.67106445 266.55090332 96.75228516 266.29711914 95.80566406 266.03564453 C78.97915949 261.51108393 61.99454104 258.57978892 44.71484375 256.4921875 C44.02773315 256.40910339 43.34062256 256.32601929 42.63269043 256.24041748 C28.92444604 254.60527435 15.28609646 253.58766743 1.47265625 253.57421875 C0.23981903 253.57089035 -0.99301819 253.56756195 -2.26321411 253.56413269 C-4.85646191 253.55910674 -7.44971608 253.55672301 -10.04296875 253.55688477 C-13.92849927 253.55471219 -17.81373875 253.53654731 -21.69921875 253.51757812 C-43.00325653 253.46820765 -63.96991284 254.80897821 -85.03515625 257.9921875 C-85.74391907 258.09756836 -86.45268188 258.20294922 -87.18292236 258.31152344 C-113.92065207 262.3075344 -113.92065207 262.3075344 -139.09765625 271.7421875 C-139.75765625 272.0721875 -140.41765625 272.4021875 -141.09765625 272.7421875 C-140.98424091 275.15096007 -140.98424091 275.15096007 -140.09765625 277.7421875 C-136.91272623 279.94157099 -133.66394645 281.42859829 -130.03515625 282.7421875 C-129.19855469 283.0515625 -128.36195313 283.3609375 -127.5 283.6796875 C-118.5478211 286.47531627 -109.48765694 288.34692208 -100.22265625 289.7421875 C-99.12928955 289.91024902 -98.03592285 290.07831055 -96.90942383 290.25146484 C-86.60346707 291.77768276 -76.26242827 292.80923543 -65.88525391 293.703125 C-64.07806885 293.86554688 -64.07806885 293.86554688 -62.234375 294.03125 C-61.16920654 294.12100098 -60.10403809 294.21075195 -59.0065918 294.30322266 C-54.67213316 294.9573021 -51.92174573 295.89520664 -48.84765625 299.0546875 C-47.07639533 301.7748382 -46.6248611 303.59477456 -46.09765625 306.7421875 C-77.40384719 307.7342851 -127.1560953 306.84710515 -152.38671875 285.8359375 C-158.03959031 279.97370033 -160.18383209 273.470552 -160.47265625 265.4296875 C-160.17178501 256.07651643 -157.98194493 246.20771675 -152.09765625 238.7421875 C-150.18113751 237.01897757 -148.25227268 235.34199661 -146.28515625 233.6796875 C-139.11929287 227.53313945 -135.66019628 220.35575412 -132.09765625 211.7421875 C-131.69256836 210.78916748 -131.69256836 210.78916748 -131.27929688 209.81689453 C-121.11850337 185.62542506 -117.0527277 159.46529336 -112.75 133.73828125 C-112.5341626 132.45574463 -112.3183252 131.17320801 -112.09594727 129.85180664 C-111.69597548 127.45526593 -111.30384065 125.05739652 -110.92163086 122.65795898 C-109.0767718 111.49962961 -106.5672129 100.47210018 -101.22265625 90.4296875 C-100.69949829 89.42107666 -100.69949829 89.42107666 -100.16577148 88.39208984 C-88.40418023 66.0561292 -69.11351438 48.8838498 -45.09765625 40.7421875 C-44.43765625 40.7421875 -43.77765625 40.7421875 -43.09765625 40.7421875 C-43.12085938 39.69160156 -43.1440625 38.64101562 -43.16796875 37.55859375 C-43.36214692 25.40072175 -42.87339777 15.74664474 -35.09765625 5.7421875 C-25.67987353 -3.3891868 -11.90260575 -7.13713045 0 0 Z " fill="#FEFEF2" transform="translate(251.09765625,55.2578125)"/>
<path d="M0 0 C1.31519623 -0.00133942 2.63039246 -0.00267883 3.98544312 -0.00405884 C22.62609294 -0.00823899 40.96650163 0.40717651 59.46240234 2.84423828 C62.40548642 3.229449 65.34924362 3.55832423 68.30078125 3.87109375 C79.06097971 5.08089424 89.57976872 7.21222662 100.125 9.625 C101.3620166 9.90504883 102.5990332 10.18509766 103.87353516 10.47363281 C126.39987874 15.8242075 126.39987874 15.8242075 130.5625 21.25 C130.43359375 23.28515625 130.43359375 23.28515625 129.5625 25.25 C113.21466512 38.81522469 81.07401313 40.15883997 60.7421875 41.70703125 C59.71279053 41.78743652 58.68339355 41.8678418 57.62280273 41.95068359 C55.58415074 42.10528389 53.54455915 42.2480764 51.50415039 42.37744141 C44.07643368 42.89281849 44.07643368 42.89281849 37.5625 46.25 C35.94617333 48.81300967 34.69587937 51.44321933 33.5625 54.25 C57.21140398 52.88568726 80.5402392 51.04462099 103.8125 46.375 C104.99013916 46.14264648 106.16777832 45.91029297 107.38110352 45.67089844 C120.8340211 42.83910645 132.17317915 37.84288057 143.5625 30.25 C143.2325 30.86875 142.9025 31.4875 142.5625 32.125 C141.42056765 34.16018344 141.42056765 34.16018344 141.5625 36.25 C143.02083358 37.87514468 143.02083358 37.87514468 144.5625 39.25 C144.2325 39.91 143.9025 40.57 143.5625 41.25 C142.9025 41.25 142.2425 41.25 141.5625 41.25 C141.5625 40.59 141.5625 39.93 141.5625 39.25 C140.5725 39.25 139.5825 39.25 138.5625 39.25 C138.2325 40.24 137.9025 41.23 137.5625 42.25 C136.23946283 42.6221042 134.90512065 42.95630173 133.5625 43.25 C133.2325 43.91 132.9025 44.57 132.5625 45.25 C131.5725 45.25 130.5825 45.25 129.5625 45.25 C129.2325 44.59 128.9025 43.93 128.5625 43.25 C126.53786745 42.59786708 126.53786745 42.59786708 124.5625 42.25 C123.9025 43.9 123.2425 45.55 122.5625 47.25 C121.84964844 47.21519531 121.13679687 47.18039062 120.40234375 47.14453125 C112.62479647 46.92470824 108.08722048 47.90018635 101.5625 52.25 C99.375 52.875 99.375 52.875 97.5625 53.25 C97.2325 52.26 96.9025 51.27 96.5625 50.25 C93.4879644 51.0263932 93.4879644 51.0263932 91.5625 53.25 C88.98185871 53.39497985 86.51306116 53.43677545 83.9375 53.375 C83.23109375 53.36597656 82.5246875 53.35695313 81.796875 53.34765625 C80.05193902 53.32407603 78.30717705 53.28820461 76.5625 53.25 C76.5625 53.91 76.5625 54.57 76.5625 55.25 C75.97235107 55.23952637 75.38220215 55.22905273 74.77416992 55.21826172 C72.09948996 55.17667956 69.42487803 55.1506671 66.75 55.125 C65.82123047 55.10824219 64.89246094 55.09148437 63.93554688 55.07421875 C63.04287109 55.06777344 62.15019531 55.06132812 61.23046875 55.0546875 C60.40828857 55.04421387 59.5861084 55.03374023 58.73901367 55.02294922 C56.26828408 55.11003865 56.26828408 55.11003865 53.5625 57.25 C45.99175929 57.96303375 38.86946826 57.23155071 31.5625 55.25 C31.2325 52.61 30.9025 49.97 30.5625 47.25 C32.5425 46.26 32.5425 46.26 34.5625 45.25 C33.5725 43.27 33.5725 43.27 32.5625 41.25 C31.5725 42.24 30.5825 43.23 29.5625 44.25 C29.5625 43.59 29.5625 42.93 29.5625 42.25 C28.9025 42.25 28.2425 42.25 27.5625 42.25 C27.4078125 43.2090625 27.4078125 43.2090625 27.25 44.1875 C26.9096875 45.2084375 26.9096875 45.2084375 26.5625 46.25 C25.5725 46.58 24.5825 46.91 23.5625 47.25 C23.2325 47.91 22.9025 48.57 22.5625 49.25 C21.2425 49.25 19.9225 49.25 18.5625 49.25 C18.5625 50.9 18.5625 52.55 18.5625 54.25 C17.9025 53.26 17.2425 52.27 16.5625 51.25 C15.77875 51.600625 14.995 51.95125 14.1875 52.3125 C13.32125 52.621875 12.455 52.93125 11.5625 53.25 C10.9025 52.92 10.2425 52.59 9.5625 52.25 C9.5625 51.59 9.5625 50.93 9.5625 50.25 C10.1915625 50.04246094 10.820625 49.83492188 11.46875 49.62109375 C20.1909021 46.48164442 26.18795615 42.42786507 30.5 34.0625 C32.85135259 29.00111392 33.74337511 24.7780941 33.875 19.1875 C33.91238281 18.14464844 33.94976562 17.10179687 33.98828125 16.02734375 C33.83694558 13.19128425 33.83694558 13.19128425 31.8873291 11.60166931 C29.03409305 9.94278109 27.22954249 9.86387322 23.93945312 9.84594727 C22.81148315 9.83326309 21.68351318 9.82057892 20.5213623 9.80751038 C18.70094421 9.81191383 18.70094421 9.81191383 16.84375 9.81640625 C15.59372192 9.8111644 14.34369385 9.80592255 13.05578613 9.80052185 C10.41268423 9.79409785 7.77044557 9.79400471 5.12744141 9.80395508 C1.74437048 9.81545209 -1.63765778 9.7952204 -5.02059174 9.76603794 C-8.25331655 9.7432597 -11.48596372 9.75014277 -14.71875 9.75390625 C-15.93236206 9.74267227 -17.14597412 9.73143829 -18.3963623 9.71986389 C-19.52433228 9.72924484 -20.65230225 9.73862579 -21.81445312 9.74829102 C-23.30193054 9.74854027 -23.30193054 9.74854027 -24.81945801 9.74879456 C-28.19699646 10.39540017 -29.37568366 11.53791477 -31.4375 14.25 C-32.69089396 23.02375769 -29.62792825 31.31789877 -24.86328125 38.68359375 C-16.51661185 48.97587373 -5.86490528 50.49503921 6.5625 52.25 C5.6034375 52.683125 5.6034375 52.683125 4.625 53.125 C2.41043921 54.07823451 2.41043921 54.07823451 1.5625 56.25 C0.94375 55.899375 0.325 55.54875 -0.3125 55.1875 C-1.01375 54.878125 -1.715 54.56875 -2.4375 54.25 C-3.4275 54.745 -3.4275 54.745 -4.4375 55.25 C-4.4375 54.26 -4.4375 53.27 -4.4375 52.25 C-5.0975 52.25 -5.7575 52.25 -6.4375 52.25 C-6.4375 52.91 -6.4375 53.57 -6.4375 54.25 C-9.0775 53.92 -11.7175 53.59 -14.4375 53.25 C-13.4475 52.26 -13.4475 52.26 -12.4375 51.25 C-13.9225 50.755 -13.9225 50.755 -15.4375 50.25 C-15.4375 49.59 -15.4375 48.93 -15.4375 48.25 C-16.7575 48.58 -18.0775 48.91 -19.4375 49.25 C-19.4375 48.59 -19.4375 47.93 -19.4375 47.25 C-20.05625 47.12625 -20.675 47.0025 -21.3125 46.875 C-23.4375 46.25 -23.4375 46.25 -25.4375 44.25 C-27.85880331 46.67130331 -27.96590504 48.05111377 -28.5625 51.375 C-28.73007813 52.28507812 -28.89765625 53.19515625 -29.0703125 54.1328125 C-29.25207031 55.18082031 -29.25207031 55.18082031 -29.4375 56.25 C-30.9225 56.745 -30.9225 56.745 -32.4375 57.25 C-32.4375 57.91 -32.4375 58.57 -32.4375 59.25 C-35.3125 59.375 -35.3125 59.375 -38.4375 59.25 C-39.0975 58.59 -39.7575 57.93 -40.4375 57.25 C-43.33039611 57.08254078 -43.33039611 57.08254078 -46.625 57.25 C-51.71204299 57.33914862 -55.55674715 56.69614899 -60.4375 55.25 C-63.33058536 55.18525963 -66.19127648 55.24740807 -69.08203125 55.375 C-71.4375 55.25 -71.4375 55.25 -73.4375 53.25 C-79.32086903 52.74033587 -79.32086903 52.74033587 -84.4375 55.25 C-87.125 54.875 -87.125 54.875 -89.4375 54.25 C-88.9425 53.26 -88.9425 53.26 -88.4375 52.25 C-92.27879009 49.8491937 -96.00146935 49.60774441 -100.4375 49.25 C-101.4275 49.745 -101.4275 49.745 -102.4375 50.25 C-102.4375 49.59 -102.4375 48.93 -102.4375 48.25 C-103.15679687 48.10820312 -103.87609375 47.96640625 -104.6171875 47.8203125 C-106.41740904 47.45627878 -108.21476111 47.07753781 -110.0078125 46.6796875 C-110.85085937 46.49664062 -111.69390625 46.31359375 -112.5625 46.125 C-113.41070312 45.93679688 -114.25890625 45.74859375 -115.1328125 45.5546875 C-117.59242623 45.05839914 -117.59242623 45.05839914 -120.4375 46.25 C-121.076875 46.04375 -121.71625 45.8375 -122.375 45.625 C-124.58089635 44.98229047 -124.58089635 44.98229047 -126.6875 46.6875 C-127.265 47.203125 -127.8425 47.71875 -128.4375 48.25 C-128.4375 47.26 -128.4375 46.27 -128.4375 45.25 C-127.7775 45.25 -127.1175 45.25 -126.4375 45.25 C-127.6233237 41.87496331 -128.71323689 39.60277269 -131.4375 37.25 C-128.36257177 38.27186538 -125.2915987 39.30064783 -122.23046875 40.36328125 C-92.62058219 50.21185673 -61.38459742 52.47659123 -30.4375 54.25 C-31.05746078 52.95590711 -31.68366353 51.66480327 -32.3125 50.375 C-32.66054687 49.65570313 -33.00859375 48.93640625 -33.3671875 48.1953125 C-34.40307543 46.09864981 -34.40307543 46.09864981 -36.4375 44.25 C-38.83327006 43.65582838 -38.83327006 43.65582838 -41.8125 43.3125 C-43.06804687 43.14621094 -44.32359375 42.97992188 -45.6171875 42.80859375 C-49.34737004 42.36074509 -53.08235646 41.97473556 -56.8203125 41.59765625 C-110.92075606 36.13285054 -110.92075606 36.13285054 -125.375 25.875 C-126.4375 24.25 -126.4375 24.25 -126.26171875 21.80078125 C-125.4375 19.25 -125.4375 19.25 -123.7421875 17.87890625 C-102.20056778 8.4241439 -78.00473002 5.5366111 -54.875 2.5625 C-53.48583374 2.38328003 -53.48583374 2.38328003 -52.06860352 2.20043945 C-34.73490949 0.08298422 -17.43924089 0.01046373 0 0 Z " fill="#EEAA12" transform="translate(235.4375,307.75)"/>
<path d="M0 0 C0.99 0.495 0.99 0.495 2 1 C1.00033203 1.65742187 1.00033203 1.65742187 -0.01953125 2.328125 C-20.74039189 16.58639554 -34.52116122 39.60656058 -40 64 C-40.93782344 69.21994783 -41.53929509 74.4880811 -42.15234375 79.75424194 C-42.64335704 83.94409243 -43.17807523 88.12829999 -43.71484375 92.3125 C-43.8212619 93.14335617 -43.92768005 93.97421234 -44.037323 94.83024597 C-46.72923913 115.51191289 -50.42587061 136.4955223 -58 156 C-57.11554199 155.85900879 -56.23108398 155.71801758 -55.31982422 155.57275391 C-51.91719987 155.0339646 -48.51365358 154.50183163 -45.109375 153.97363281 C-43.65878681 153.74729541 -42.20856511 153.51859184 -40.75878906 153.28710938 C-19.42928521 149.88632135 1.58289093 148.66954353 23.18359375 148.73925781 C27.0991179 148.74992946 31.01417759 148.739323 34.9296875 148.7265625 C66.6092607 148.70979254 98.09479264 150.82557686 129 158 C128.56300781 156.90945313 128.12601563 155.81890625 127.67578125 154.6953125 C117.80128135 128.23604915 115.31181895 97.63842853 111.9675293 69.74804688 C110.4939407 57.57653135 108.42483055 46.13506099 103.890625 34.6953125 C103 32 103 32 104 30 C115.20364335 46.88492349 119.64334542 65.94259895 122.46450806 85.71377563 C126.62211948 114.52172409 133.23147965 142.26013414 145 169 C139.80446738 168.02982683 134.66618517 166.92564809 129.54101562 165.63134766 C79.79439704 153.28990185 24.65899323 154.06494522 -26 160 C-26.66 160.07732361 -27.32 160.15464722 -28 160.23431396 C-41.13719766 161.79605329 -54.13775434 163.61704694 -66.8984375 167.16796875 C-69.9221052 167.97910379 -72.90574563 168.53726408 -76 169 C-75.08608331 166.37401272 -74.16948157 163.74903998 -73.25 161.125 C-72.97486572 160.33851074 -72.69973145 159.55202148 -72.41625977 158.74169922 C-71.03164235 154.81355137 -69.59615563 150.94741627 -67.9375 147.125 C-62.60038688 133.98760486 -60.14511361 119.58351702 -57.74194336 105.6730957 C-57.30934618 103.16924585 -56.86561008 100.66756541 -56.41992188 98.16601562 C-55.14477925 90.95316195 -53.93857927 83.74864362 -52.9609375 76.48828125 C-49.3053195 50.17586597 -38.74907952 27.74186596 -17.49609375 11.03125 C-15.03860217 9.27754709 -12.54756757 7.61974975 -10 6 C-9.0821875 5.40703125 -8.164375 4.8140625 -7.21875 4.203125 C-2.13335305 1.0174453 -2.13335305 1.0174453 0 0 Z " fill="#FAE57A" transform="translate(203,109)"/>
<path d="M0 0 C0.79792969 0.00386719 1.59585938 0.00773438 2.41796875 0.01171875 C3.61486328 0.00591797 3.61486328 0.00591797 4.8359375 0 C10.79136108 0.01011108 10.79136108 0.01011108 11.91796875 1.13671875 C12.00636545 3.51240395 12.0332718 5.85880549 12.015625 8.234375 C12.01421005 8.94323349 12.0127951 9.65209198 12.01133728 10.38243103 C12.00572318 12.65473587 11.99316838 14.9269435 11.98046875 17.19921875 C11.97545556 18.73632671 11.97089234 20.2734362 11.96679688 21.81054688 C11.95574917 25.58597517 11.93847516 29.36133046 11.91796875 33.13671875 C12.8716333 33.11577148 13.82529785 33.09482422 14.80786133 33.07324219 C18.34677103 33.00083107 21.88561531 32.95491604 25.42504883 32.91699219 C26.95673637 32.89687895 28.48834714 32.86958425 30.01977539 32.83496094 C32.22170948 32.7864256 34.42262857 32.76374879 36.625 32.74609375 C37.65171562 32.71512604 37.65171562 32.71512604 38.69917297 32.68353271 C41.90135761 32.6820221 43.49303792 32.72774498 45.84887695 34.99511719 C47.1903793 37.68241077 47.31766587 39.64013494 47.29296875 42.63671875 C47.30457031 44.044375 47.30457031 44.044375 47.31640625 45.48046875 C46.83354397 48.69955059 46.26520676 49.87762458 43.91796875 52.13671875 C41.33999438 52.49383742 39.19482762 52.60485468 36.625 52.52734375 C35.56595711 52.51885406 35.56595711 52.51885406 34.48551941 52.51019287 C32.23314249 52.48782286 29.98236372 52.43763074 27.73046875 52.38671875 C26.20249696 52.36665431 24.67450019 52.34840343 23.14648438 52.33203125 C19.40303119 52.28795677 15.6607708 52.21892949 11.91796875 52.13671875 C11.92018936 52.94882309 11.92240997 53.76092743 11.92469788 54.59764099 C11.94469946 62.23500823 11.9599422 69.87236285 11.96978092 77.50974941 C11.97500906 81.43660533 11.98210544 85.36343969 11.9934082 89.2902832 C12.00423955 93.07686132 12.01024611 96.86341865 12.01284599 100.65001106 C12.0146998 102.09776194 12.01831956 103.54551163 12.02369881 104.99325371 C12.03091242 107.0142901 12.03137683 109.03534723 12.03149414 111.05639648 C12.03371475 112.20889389 12.03593536 113.3613913 12.03822327 114.54881287 C11.91796875 117.13671875 11.91796875 117.13671875 10.91796875 118.13671875 C8.07461827 118.2365885 5.26099712 118.27549756 2.41796875 118.26171875 C1.22107422 118.26751953 1.22107422 118.26751953 0 118.2734375 C-5.95542358 118.26332642 -5.95542358 118.26332642 -7.08203125 117.13671875 C-7.17612604 115.11177644 -7.19946247 113.08352005 -7.19555664 111.05639648 C-7.19548111 109.75512314 -7.19540558 108.45384979 -7.19532776 107.11314392 C-7.19022034 105.68219973 -7.18500433 104.25125593 -7.1796875 102.8203125 C-7.17782328 101.36442615 -7.1763994 99.90853918 -7.17539978 98.45265198 C-7.1715749 94.61392496 -7.16174489 90.77523556 -7.1506958 86.93652344 C-7.14048103 83.02214059 -7.13590202 79.10775169 -7.13085938 75.19335938 C-7.12012259 67.50779532 -7.10304654 59.8222623 -7.08203125 52.13671875 C-8.0356958 52.15766602 -8.98936035 52.17861328 -9.97192383 52.20019531 C-13.51083353 52.27260643 -17.04967781 52.31852146 -20.58911133 52.35644531 C-22.12079887 52.37655855 -23.65240964 52.40385325 -25.18383789 52.43847656 C-27.38577198 52.4870119 -29.58669107 52.50968871 -31.7890625 52.52734375 C-32.47353958 52.54798889 -33.15801666 52.56863403 -33.86323547 52.58990479 C-37.06481463 52.59141512 -38.65650561 52.54673156 -41.01074219 50.27832031 C-42.35104007 47.59894633 -42.51542375 45.62698208 -42.51953125 42.63671875 C-42.53886719 41.69828125 -42.55820313 40.75984375 -42.578125 39.79296875 C-41.92450481 36.29327011 -40.89404237 35.29862448 -38.08203125 33.13671875 C-34.78222656 32.68261719 -34.78222656 32.68261719 -30.91015625 32.74609375 C-29.88652985 32.75458344 -29.88652985 32.75458344 -28.84222412 32.76324463 C-26.67143363 32.78556239 -24.50231919 32.83574367 -22.33203125 32.88671875 C-20.85679475 32.90678999 -19.38153226 32.92503968 -17.90625 32.94140625 C-14.29763624 32.98540995 -10.68999744 33.05440292 -7.08203125 33.13671875 C-7.08726807 32.17258057 -7.09250488 31.20844238 -7.09790039 30.21508789 C-7.11595243 26.64999311 -7.12746399 23.08490239 -7.13696289 19.51977539 C-7.14200265 17.97452109 -7.14883445 16.42927159 -7.1574707 14.8840332 C-7.16955201 12.66746846 -7.17526298 10.45096657 -7.1796875 8.234375 C-7.18484879 7.53957535 -7.19001007 6.8447757 -7.19532776 6.12892151 C-7.19552402 4.46442545 -7.14392254 2.80006376 -7.08203125 1.13671875 C-5.19650595 -0.74880655 -2.50434294 0.00425186 0 0 Z " fill="#FBD02B" transform="translate(235.08203125,130.86328125)"/>
<path d="M0 0 C1.86936218 -0.00361794 1.86936218 -0.00361794 3.77648926 -0.00730896 C7.08268124 -0.00607986 10.38768042 0.01895467 13.69366455 0.0524292 C15.71711325 0.06639495 17.7397217 0.06282619 19.76318359 0.05249023 C23.65501228 0.03371783 27.54569195 0.04314286 31.4375 0.0625 C33.24547058 0.0550602 33.24547058 0.0550602 35.08996582 0.04747009 C43.40897493 0.16460933 43.40897493 0.16460933 47.47827148 2.49780273 C50.36204267 6.02879427 49.83166771 9.07269124 49.64453125 13.45703125 C48.38228766 22.86016695 43.64739407 31.31099099 36.23828125 37.23828125 C27.56688525 43.20930055 18.39627649 43.62284576 8.21875 42.62890625 C0.4672006 40.97744433 -5.69722128 36.64436007 -10.78125 30.62890625 C-14.71982338 24.17494147 -17.81295569 17.80989912 -18.15625 10.19140625 C-18.20523438 9.45019531 -18.25421875 8.70898438 -18.3046875 7.9453125 C-17.69454894 5.24522172 -16.66522018 3.61307002 -14.66348267 1.70277405 C-10.32041079 -0.7750732 -4.85213673 -0.05337253 0 0 Z " fill="#FEFEF4" transform="translate(220.78125,316.37109375)"/>
<path d="M0 0 C8.73554903 6.23734529 13.33812509 13.70320354 15.65234375 24.1171875 C16.01170455 29.32791914 15.9794959 34.52155847 15.90234375 39.7421875 C16.76085937 39.84402344 17.619375 39.94585937 18.50390625 40.05078125 C22.1873013 40.80016162 24.95257583 42.06841981 28.27734375 43.8046875 C29.33695312 44.35253906 30.3965625 44.90039062 31.48828125 45.46484375 C32.28492188 45.88636719 33.0815625 46.30789062 33.90234375 46.7421875 C29.65234375 51.20647321 29.65234375 51.20647321 25.90234375 51.7421875 C25.90234375 52.7321875 25.90234375 53.7221875 25.90234375 54.7421875 C23.92234375 54.2471875 23.92234375 54.2471875 21.90234375 53.7421875 C21.90234375 53.0821875 21.90234375 52.4221875 21.90234375 51.7421875 C21.32693848 51.63406738 20.7515332 51.52594727 20.15869141 51.41455078 C13.13337531 50.05620251 6.21141819 48.37808854 -0.72265625 46.6171875 C-1.82222656 46.34003906 -2.92179687 46.06289062 -4.0546875 45.77734375 C-6.73623336 45.10112784 -9.41719937 44.42270474 -12.09765625 43.7421875 C-12.09765625 43.4121875 -12.09765625 43.0821875 -12.09765625 42.7421875 C-7.47765625 42.4121875 -2.85765625 42.0821875 1.90234375 41.7421875 C1.90234375 41.0821875 1.90234375 40.4221875 1.90234375 39.7421875 C1.24234375 39.7421875 0.58234375 39.7421875 -0.09765625 39.7421875 C-0.09765625 38.7521875 -0.09765625 37.7621875 -0.09765625 36.7421875 C-15.93765625 37.2371875 -15.93765625 37.2371875 -32.09765625 37.7421875 C-32.09765625 37.0821875 -32.09765625 36.4221875 -32.09765625 35.7421875 C-33.41765625 35.7421875 -34.73765625 35.7421875 -36.09765625 35.7421875 C-36.09765625 36.4021875 -36.09765625 37.0621875 -36.09765625 37.7421875 C-37.58265625 38.2371875 -37.58265625 38.2371875 -39.09765625 38.7421875 C-39.75765625 39.4021875 -40.41765625 40.0621875 -41.09765625 40.7421875 C-41.75765625 40.4121875 -42.41765625 40.0821875 -43.09765625 39.7421875 C-43.40420961 26.81585402 -43.34942301 16.35911033 -35.09765625 5.7421875 C-25.67987353 -3.3891868 -11.90260575 -7.13713045 0 0 Z " fill="#FDFDED" transform="translate(251.09765625,55.2578125)"/>
<path d="M0 0 C-1.98 0.33 -3.96 0.66 -6 1 C-6 1.66 -6 2.32 -6 3 C-7.36125 3.3403125 -7.36125 3.3403125 -8.75 3.6875 C-12.1549958 4.74900424 -12.1549958 4.74900424 -14.0625 7.625 C-16 10 -16 10 -18.75 10.3125 C-19.86375 10.1578125 -19.86375 10.1578125 -21 10 C-21 10.66 -21 11.32 -21 12 C-20.236875 11.835 -19.47375 11.67 -18.6875 11.5 C-13.77854151 10.83437851 -8.94564886 10.92079922 -4 11 C-4 10.34 -4 9.68 -4 9 C-1.36 9 1.28 9 4 9 C4 8.34 4 7.68 4 7 C8.455 6.505 8.455 6.505 13 6 C0.38891768 18.61108232 -33.19198564 18.25104198 -50.1875 19.8125 C-50.86216309 19.87584534 -51.53682617 19.93919067 -52.23193359 20.00445557 C-62.17974732 20.9179993 -72.02313158 21.14147479 -82 21 C-80.42518613 15.97724562 -79.41321186 13.11520837 -75 10 C-68.58648949 8.25719823 -61.85862062 7.98476295 -55.26196289 7.35839844 C-54.45364014 7.28137695 -53.64531738 7.20435547 -52.8125 7.125 C-51.98290771 7.04668945 -51.15331543 6.96837891 -50.29858398 6.88769531 C-42.99781706 6.16733667 -35.75260367 5.16262279 -28.5 4.0625 C-27.43885986 3.90475098 -26.37771973 3.74700195 -25.28442383 3.58447266 C-18.91648222 2.59347324 -12.77693911 1.24928324 -6.57617188 -0.51391602 C-3.95325026 -1.00882096 -2.49018664 -0.87369181 0 0 Z " fill="#FDFCEF" transform="translate(351,341)"/>
<path d="M0 0 C25.64495239 2.30573997 50.96147266 14.18613103 73 27 C73.6717627 27.39010254 74.34352539 27.78020508 75.03564453 28.18212891 C84.98971639 34.03483087 94.12194859 40.6297322 103 48 C103.57991699 48.47695313 104.15983398 48.95390625 104.75732422 49.4453125 C130.816875 70.95432655 154.95150245 98.9627343 167 131 C167 131.66 167 132.32 167 133 C166.34 133 165.68 133 165 133 C164.16180842 131.37750059 163.3295884 129.75191503 162.5 128.125 C162.0359375 127.22007812 161.571875 126.31515625 161.09375 125.3828125 C160 123 160 123 160 121 C159.34 121 158.68 121 158 121 C157.67 119.02 157.34 117.04 157 115 C156.01 114.67 155.02 114.34 154 114 C153.67 112.35 153.34 110.7 153 109 C152.01 108.67 151.02 108.34 150 108 C148.25 106.6875 148.25 106.6875 147 105 C147.3125 102.8125 147.3125 102.8125 148 101 C147.34 101 146.68 101 146 101 C146 100.01 146 99.02 146 98 C144.68 97.67 143.36 97.34 142 97 C141.67 97.99 141.34 98.98 141 100 C140.01 100 139.02 100 138 100 C137.71428571 91.42857143 137.71428571 91.42857143 140 88 C139.34 88 138.68 88 138 88 C137.525625 87.360625 137.05125 86.72125 136.5625 86.0625 C135.0908635 83.71627037 135.0908635 83.71627037 132 83 C131.34 82.34 130.68 81.68 130 81 C129.01 81.33 128.02 81.66 127 82 C127.33 80.35 127.66 78.7 128 77 C126.68 77 125.36 77 124 77 C124 75.68 124 74.36 124 73 C123.34 72.67 122.68 72.34 122 72 C121.67 71.01 121.34 70.02 121 69 C119.7934375 68.5978125 119.7934375 68.5978125 118.5625 68.1875 C116 67 116 67 114.6875 63.875 C114.460625 62.92625 114.23375 61.9775 114 61 C111.36 61 108.72 61 106 61 C106.99 59.35 107.98 57.7 109 56 C107.515 55.505 107.515 55.505 106 55 C104.3125 53.4375 104.3125 53.4375 103 52 C102.34 53.32 101.68 54.64 101 56 C100.01 54.68 99.02 53.36 98 52 C98.66 51.01 99.32 50.02 100 49 C98.92250558 48.17977251 97.83770492 47.36913831 96.75 46.5625 C96.14671875 46.11003906 95.5434375 45.65757813 94.921875 45.19140625 C93.04906265 43.89373685 93.04906265 43.89373685 90.828125 43.46484375 C90.22484375 43.31144531 89.6215625 43.15804687 89 43 C88.67 42.34 88.34 41.68 88 41 C87.34 40.67 86.68 40.34 86 40 C85.525625 39.484375 85.05125 38.96875 84.5625 38.4375 C82.98589466 36.66147173 82.98589466 36.66147173 80 37 C79 35.66666667 78 34.33333333 77 33 C76.01 33 75.02 33 74 33 C74 32.34 74 31.68 74 31 C70.55166676 28.94742069 68.68338409 27.9367237 64.625 28.3125 C63.325625 28.6528125 63.325625 28.6528125 62 29 C62 27.68 62 26.36 62 25 C61.01 24.67 60.02 24.34 59 24 C58.505 23.01 58.505 23.01 58 22 C57.01 21.835 56.02 21.67 55 21.5 C54.01 21.335 53.02 21.17 52 21 C51.505 20.01 51.505 20.01 51 19 C46.93975679 21.03802135 46.93975679 21.03802135 45 25 C44.01 25 43.02 25 42 25 C42.75 20.25 42.75 20.25 45 18 C43.04160401 15.35040542 42.01559714 15.00264857 38.6875 14.4375 C37.470625 14.293125 36.25375 14.14875 35 14 C32.98583438 13.37743972 30.97984481 12.72433347 29 12 C29 11.34 29 10.68 29 10 C27.741875 9.67 26.48375 9.34 25.1875 9 C24.47980469 8.814375 23.77210938 8.62875 23.04296875 8.4375 C20.85929991 7.8952993 20.85929991 7.8952993 18 8 C17.566875 7.505 17.13375 7.01 16.6875 6.5 C15.03373723 4.69549991 15.03373723 4.69549991 12.25 5 C8.09832241 5 5.71876355 3.7850065 2 2 C1.67 2.66 1.34 3.32 1 4 C0.67 2.68 0.34 1.36 0 0 Z M139 94 C140 96 140 96 140 96 Z " fill="#F6E350" transform="translate(291,6)"/>
<path d="M0 0 C1.25809982 0.00707474 2.51619965 0.01414948 3.81242371 0.0214386 C7.14546202 0.04465755 10.4767685 0.08951577 13.80932617 0.1449585 C17.2145293 0.19625391 20.61991189 0.21897434 24.02539062 0.24414062 C30.69839321 0.29924355 37.37058105 0.38289833 44.04296875 0.48828125 C41.67655883 3.2372781 41.25627003 3.46676889 37.38525391 3.85717773 C35.86758136 3.8715989 34.34972479 3.87138589 32.83203125 3.859375 C31.17838337 3.87675972 29.52473758 3.89434408 27.87109375 3.91210938 C25.26851512 3.92217595 22.66607384 3.92578001 20.06347656 3.92407227 C17.54841326 3.92764886 15.03440617 3.95501769 12.51953125 3.984375 C11.35836288 3.97210121 11.35836288 3.97210121 10.17373657 3.95957947 C5.16059092 4.02843016 2.55292494 4.88771591 -0.95703125 8.48828125 C-3.55052266 12.81076693 -3.60869061 17.59288901 -2.95703125 22.48828125 C-0.88499132 29.06754205 2.07881136 34.76906996 8.16796875 38.30078125 C16.18625408 41.3033732 24.95201808 39.21106922 33.04296875 37.48828125 C33.04296875 36.82828125 33.04296875 36.16828125 33.04296875 35.48828125 C34.03296875 35.48828125 35.02296875 35.48828125 36.04296875 35.48828125 C36.31109375 34.84890625 36.57921875 34.20953125 36.85546875 33.55078125 C38.04296875 31.48828125 38.04296875 31.48828125 41.04296875 30.48828125 C41.04296875 29.82828125 41.04296875 29.16828125 41.04296875 28.48828125 C41.70296875 28.48828125 42.36296875 28.48828125 43.04296875 28.48828125 C40.34090888 34.51595326 35.49089548 38.06447798 29.60546875 40.86328125 C21.31212737 43.87673964 10.9394215 43.90061419 2.60546875 40.98828125 C-7.45449874 36.11891883 -12.86724644 28.71274328 -16.95703125 18.48828125 C-17.81390503 15.66906072 -18.1994024 12.99412151 -18.33203125 10.05078125 C-18.38101563 9.30957031 -18.43 8.56835938 -18.48046875 7.8046875 C-17.87085515 5.10691987 -16.8512195 3.46304218 -14.85040283 1.55323792 C-10.45285924 -0.92022973 -4.89143144 -0.10338286 0 0 Z " fill="#FBEAA4" transform="translate(220.95703125,316.51171875)"/>
<path d="M0 0 C3.98991778 2.07913437 6.27273994 4.07440474 8.1640625 8.27734375 C9.1640625 12.27734375 9.1640625 12.27734375 9.1640625 22.27734375 C-0.0759375 22.27734375 -9.3159375 22.27734375 -18.8359375 22.27734375 C-18.8359375 13.09677138 -18.10547064 7.9268486 -11.8359375 1.27734375 C-8.14585437 -1.30571444 -4.22172047 -1.66174104 0 0 Z " fill="#FADB34" transform="translate(241.8359375,67.72265625)"/>
<path d="M0 0 C-1.450954 3.82524236 -3.38181932 5.19090966 -7 7 C-7.66 7 -8.32 7 -9 7 C-9 7.66 -9 8.32 -9 9 C-9.9075 9.2475 -10.815 9.495 -11.75 9.75 C-15.15731334 11.06050513 -16.51172103 12.4287784 -19 15 C-19.66257812 15.12117188 -20.32515625 15.24234375 -21.0078125 15.3671875 C-23.16558877 15.80404408 -23.16558877 15.80404408 -24.046875 17.84765625 C-24.27890625 18.57855469 -24.5109375 19.30945313 -24.75 20.0625 C-25.11351563 21.16271484 -25.11351563 21.16271484 -25.484375 22.28515625 C-25.65453125 22.85105469 -25.8246875 23.41695312 -26 24 C-26.56847656 23.93039063 -27.13695313 23.86078125 -27.72265625 23.7890625 C-32.44873832 23.45768446 -35.25556881 23.66654613 -38.9375 26.8125 C-41.01101206 28.7977775 -42.38507207 30.5776081 -44 33 C-45.77230692 33.96671287 -47.54505907 34.9326766 -49.32421875 35.88671875 C-51.68821155 37.45720347 -52.67048749 39.54040186 -54 42 C-54.99 42.33 -55.98 42.66 -57 43 C-57.103125 43.5775 -57.20625 44.155 -57.3125 44.75 C-58.56903003 48.8622801 -62.76906871 51.09490346 -66.125 53.5625 C-70.49510869 56.89016965 -70.49510869 56.89016965 -72.75 61.75 C-72.8325 62.4925 -72.915 63.235 -73 64 C-74.32 63.67 -75.64 63.34 -77 63 C-77.26554687 63.5671875 -77.53109375 64.134375 -77.8046875 64.71875 C-79.49685593 67.94824791 -81.63845471 70.82023337 -83.7578125 73.78125 C-85.32567321 76.15790398 -85.32567321 76.15790398 -85 80 C-85.66 80 -86.32 80 -87 80 C-87.144375 80.598125 -87.28875 81.19625 -87.4375 81.8125 C-87.8872439 83.56150404 -88.42892341 85.28677023 -89 87 C-89.598125 87.12375 -90.19625 87.2475 -90.8125 87.375 C-94.10547789 88.31585083 -95.13194838 90.19792257 -97 93 C-98.25556887 96.17921787 -98.25556887 96.17921787 -99 99 C-99.66 99 -100.32 99 -101 99 C-100.67 100.32 -100.34 101.64 -100 103 C-103.75 106 -103.75 106 -106 106 C-104.57920083 101.23226671 -102.56660883 97.00061489 -100.125 92.6875 C-99.54105469 91.65459839 -99.54105469 91.65459839 -98.9453125 90.60083008 C-88.81167344 73.06290514 -75.87586158 57.66361921 -62 43 C-61.04287109 41.9790625 -61.04287109 41.9790625 -60.06640625 40.9375 C-55.11949333 35.81264057 -49.59546733 31.39158904 -44 27 C-43.41041504 26.53400391 -42.82083008 26.06800781 -42.21337891 25.58789062 C-32.85451386 18.23293517 -23.21113248 11.84235019 -12.828125 6.02490234 C-11.21179594 5.11873923 -9.60512134 4.19540202 -8 3.26953125 C-2.28518908 0 -2.28518908 0 0 0 Z " fill="#F5E04D" transform="translate(126,26)"/>
<path d="M0 0 C0 0.99 0 1.98 0 3 C-0.66 3.66 -1.32 4.32 -2 5 C-0.68 6.32 0.64 7.64 2 9 C1.67 9.66 1.34 10.32 1 11 C0.34 11 -0.32 11 -1 11 C-1 10.34 -1 9.68 -1 9 C-1.99 9 -2.98 9 -4 9 C-4.33 9.99 -4.66 10.98 -5 12 C-6.32303717 12.3721042 -7.65737935 12.70630173 -9 13 C-9.33 13.66 -9.66 14.32 -10 15 C-10.99 15 -11.98 15 -13 15 C-13.495 14.01 -13.495 14.01 -14 13 C-16.02463255 12.34786708 -16.02463255 12.34786708 -18 12 C-18.66 13.65 -19.32 15.3 -20 17 C-20.71285156 16.96519531 -21.42570312 16.93039062 -22.16015625 16.89453125 C-29.93770353 16.67470824 -34.47527952 17.65018635 -41 22 C-43.1875 22.625 -43.1875 22.625 -45 23 C-45.495 21.515 -45.495 21.515 -46 20 C-49.0745356 20.7763932 -49.0745356 20.7763932 -51 23 C-53.58064129 23.14497985 -56.04943884 23.18677545 -58.625 23.125 C-59.68460937 23.11146484 -59.68460937 23.11146484 -60.765625 23.09765625 C-62.51056098 23.07407603 -64.25532295 23.03820461 -66 23 C-66 23.66 -66 24.32 -66 25 C-66.59014893 24.98952637 -67.18029785 24.97905273 -67.78833008 24.96826172 C-70.46301004 24.92667956 -73.13762197 24.9006671 -75.8125 24.875 C-76.74126953 24.85824219 -77.67003906 24.84148437 -78.62695312 24.82421875 C-79.51962891 24.81777344 -80.41230469 24.81132812 -81.33203125 24.8046875 C-82.15421143 24.79421387 -82.9763916 24.78374023 -83.82348633 24.77294922 C-86.29421592 24.86003865 -86.29421592 24.86003865 -89 27 C-96.57074071 27.71303375 -103.69303174 26.98155071 -111 25 C-111.33 22.36 -111.66 19.72 -112 17 C-111.38125 16.7525 -110.7625 16.505 -110.125 16.25 C-107.64931313 14.79371361 -107.04874998 13.62187494 -106 11 C-104.35 11.33 -102.7 11.66 -101 12 C-101 11.34 -101 10.68 -101 10 C-94.07 10 -87.14 10 -80 10 C-80 10.33 -80 10.66 -80 11 C-81.30195313 11.10957031 -82.60390625 11.21914063 -83.9453125 11.33203125 C-85.67193346 11.49155601 -87.39849291 11.65174751 -89.125 11.8125 C-89.9809375 11.88275391 -90.836875 11.95300781 -91.71875 12.02539062 C-96.68906711 12.50330573 -100.8693494 12.97861907 -105 16 C-106.62061275 18.56064408 -107.86656997 21.19309386 -109 24 C-85.35109602 22.63568726 -62.0222608 20.79462099 -38.75 16.125 C-37.57236084 15.89264648 -36.39472168 15.66029297 -35.18139648 15.42089844 C-23.06897074 12.87127528 -9.02067984 9.02067984 0 0 Z " fill="#DEA022" transform="translate(378,338)"/>
<path d="M0 0 C-2 2 -2 2 -5.75 2.1875 C-9.23746762 2.1047681 -12.57471633 1.68505673 -16 1 C-16 0.34 -16 -0.32 -16 -1 C-16.92369385 -0.9278125 -17.8473877 -0.855625 -18.79907227 -0.78125 C-29.86206759 0.00550045 -40.85082208 0.08916045 -51.9375 0 C-55.34244395 -0.02654434 -58.74733614 -0.0464651 -62.15234375 -0.0625 C-62.92819321 -0.07079834 -63.70404266 -0.07909668 -64.50340271 -0.08764648 C-66.33581484 -0.09618283 -68.16834706 -0.05342822 -70 0 C-70.33 0.33 -70.66 0.66 -71 1 C-73.66473378 1.52045582 -76.32226546 1.99453898 -79 2.4375 C-84.35468741 3.35074119 -89.6751504 4.29562784 -94.96484375 5.5390625 C-97.29981621 6.06790463 -99.64643897 6.4991268 -102 6.9375 C-106.83162191 7.89336956 -111.36475227 9.35681694 -116 11 C-118.24381776 11.75314231 -120.4905576 12.49688549 -122.73828125 13.23828125 C-124.28372484 13.75876743 -125.82269072 14.29878817 -127.35546875 14.85546875 C-131.73348656 16.4174751 -135.27515376 17.36344971 -140 17 C-140 17.66 -140 18.32 -140 19 C-141.0625 20.6875 -141.0625 20.6875 -143 22 C-146.6875 21.6875 -146.6875 21.6875 -150 21 C-109.11914535 -6.2539031 -46.4535881 -6.93990347 0 0 Z " fill="#F3DF54" transform="translate(280,3)"/>
<path d="M0 0 C8.57078647 -0.02314216 17.14155995 -0.04092467 25.71236992 -0.05181217 C29.69188412 -0.05703689 33.67137699 -0.0641271 37.65087891 -0.07543945 C41.48933243 -0.08628291 45.3277654 -0.09227994 49.16623306 -0.09487724 C50.63269499 -0.09672885 52.09915577 -0.10034444 53.56560898 -0.10573006 C55.61521612 -0.11295983 57.66473768 -0.11399012 59.71435547 -0.11352539 C61.466418 -0.11685631 61.466418 -0.11685631 63.25387573 -0.12025452 C66 0 66 0 68 1 C69.66565749 1.15222973 71.33656496 1.24917215 73.0078125 1.31640625 C73.99394531 1.35830078 74.98007812 1.40019531 75.99609375 1.44335938 C77.54490234 1.50233398 77.54490234 1.50233398 79.125 1.5625 C80.68541016 1.62727539 80.68541016 1.62727539 82.27734375 1.69335938 C84.85142528 1.7996288 87.42560508 1.90166583 90 2 C90 2.66 90 3.32 90 4 C91.98 4.495 91.98 4.495 94 5 C91.45825993 4.85537314 88.91661482 4.70930017 86.375 4.5625 C85.68148437 4.52318359 84.98796875 4.48386719 84.2734375 4.44335938 C80.81711353 4.24276914 77.36453053 4.02878233 73.91296387 3.7562561 C65.78579023 3.11994489 57.72069006 2.83996641 49.5703125 2.83203125 C47.72105667 2.82703865 47.72105667 2.82703865 45.83444214 2.82194519 C43.24119434 2.81691924 40.64794017 2.81453551 38.0546875 2.81469727 C34.16915698 2.81252469 30.2839175 2.79435981 26.3984375 2.77539062 C4.60862405 2.72436976 -16.67502103 4.20475062 -38.1875 7.625 C-40.39955697 7.97124765 -42.61194314 8.31501179 -44.82502747 8.65463257 C-46.78152221 8.9555747 -48.73687903 9.26388891 -50.69213867 9.57275391 C-53.51689285 9.93760148 -56.15879564 10.08833458 -59 10 C-59 9.34 -59 8.68 -59 8 C-56.03 8 -53.06 8 -50 8 C-50 7.34 -50 6.68 -50 6 C-49.01257813 5.93941406 -48.02515625 5.87882812 -47.0078125 5.81640625 C-45.72648438 5.73261719 -44.44515625 5.64882813 -43.125 5.5625 C-41.84882813 5.48128906 -40.57265625 5.40007812 -39.2578125 5.31640625 C-36.11699848 5.20793973 -36.11699848 5.20793973 -34 4 C-32.12620395 3.92966231 -30.24998898 3.9156978 -28.375 3.9375 C-26.87066406 3.95103516 -26.87066406 3.95103516 -25.3359375 3.96484375 C-24.56507813 3.97644531 -23.79421875 3.98804688 -23 4 C-23 3.34 -23 2.68 -23 2 C-15.41 2 -7.82 2 0 2 C0 1.34 0 0.68 0 0 Z " fill="#FEF7D0" transform="translate(203,306)"/>
<path d="M0 0 C1.65 0 3.3 0 5 0 C6.88695626 4.28853694 8.58192622 8.52761347 10 13 C10.66 12.67 11.32 12.34 12 12 C15.06814626 13.45333244 16.82832582 14.7711011 18.875 17.5 C22.08865709 21.28077305 25.46600014 22.72324916 30.2890625 23.25 C36.67556248 23.41219683 42.77218487 22.3260747 49 21 C49 20.34 49 19.68 49 19 C49.99 19 50.98 19 52 19 C52.268125 18.360625 52.53625 17.72125 52.8125 17.0625 C54 15 54 15 57 14 C57 13.34 57 12.68 57 12 C57.66 12 58.32 12 59 12 C56.29794013 18.02767201 51.44792673 21.57619673 45.5625 24.375 C37.26915862 27.38845839 26.89645275 27.41233294 18.5625 24.5 C10.21203934 20.47940783 4.70885383 14.60996702 0.77734375 6.296875 C0 4 0 4 0 0 Z " fill="#FCF2B3" transform="translate(205,333)"/>
<path d="M0 0 C3.3 0.33 6.6 0.66 10 1 C10 1.66 10 2.32 10 3 C10.96164063 3.1340625 11.92328125 3.268125 12.9140625 3.40625 C17.41008678 4.0495099 21.89295064 4.76630959 26.375 5.5 C27.19355469 5.63019531 28.01210937 5.76039063 28.85546875 5.89453125 C34.8843471 6.8843471 34.8843471 6.8843471 36 8 C38.01964199 8.07244053 40.04167124 8.08377188 42.0625 8.0625 C43.16722656 8.05347656 44.27195313 8.04445313 45.41015625 8.03515625 C46.69212891 8.01775391 46.69212891 8.01775391 48 8 C48 8.66 48 9.32 48 10 C55.47753957 10.07043133 62.95504354 10.1232725 70.43284225 10.15543652 C73.90749827 10.17089669 77.3819226 10.19175993 80.85644531 10.22631836 C99.80569584 10.40980505 117.53579861 9.31789604 136.078125 5.33984375 C138.73362895 4.87027293 141.31342416 4.85860127 144 5 C141.15182914 6.55753006 138.61779623 7.41452236 135.4296875 8 C134.53121094 8.165 133.63273438 8.33 132.70703125 8.5 C131.30517578 8.7475 131.30517578 8.7475 129.875 9 C128.99457031 9.165 128.11414063 9.33 127.20703125 9.5 C111.64613432 12.30139917 96.2310401 13.38349329 80.4375 13.3125 C79.56704041 13.31034485 78.69658081 13.3081897 77.79974365 13.30596924 C51.22880481 13.20094097 25.19472135 9.81815247 0 1 C0 0.67 0 0.34 0 0 Z " fill="#E7B33A" transform="translate(157,435)"/>
<path d="M0 0 C54.1295632 -0.63500578 54.1295632 -0.63500578 79.77099609 2.59423828 C82.76789731 2.97083361 85.76602263 3.30237329 88.76953125 3.62109375 C99.51834585 4.8356982 110.02765598 6.96460325 120.5625 9.375 C121.7995166 9.65504883 123.0365332 9.93509766 124.31103516 10.22363281 C146.3045705 15.4476521 146.3045705 15.4476521 151 21 C150.67 21.99 150.34 22.98 150 24 C150 23.34 150 22.68 150 22 C148.72125 21.690625 147.4425 21.38125 146.125 21.0625 C143.89898325 20.52394756 142.05260001 20.0263 140 19 C140 18.01 140 17.02 140 16 C139.39994141 15.88317871 138.79988281 15.76635742 138.18164062 15.64599609 C133.74237575 14.77136135 129.31703549 13.86066582 124.90625 12.8515625 C106.69003332 8.69843338 88.14942863 4.9952816 69.44140625 4.17578125 C67 4 67 4 64 3 C62.64203006 2.86009532 61.27899811 2.76611732 59.9152832 2.70336914 C58.68493599 2.64480995 58.68493599 2.64480995 57.42973328 2.58506775 C56.54155411 2.54797195 55.65337494 2.51087616 54.73828125 2.47265625 C53.80961746 2.43133072 52.88095367 2.39000519 51.92414856 2.34742737 C41.34897747 1.89698119 30.76947593 1.65906945 20.1875 1.4375 C18.21158315 1.39412503 16.23567164 1.35050616 14.25976562 1.30664062 C9.50656685 1.20163369 4.75330951 1.09986349 0 1 C0 0.67 0 0.34 0 0 Z " fill="#C88825" transform="translate(215,308)"/>
<path d="M0 0 C3.07492823 1.02186538 6.1459013 2.05064783 9.20703125 3.11328125 C33.14590899 11.07561653 58.02957401 13.52832405 83 16 C83 16.33 83 16.66 83 17 C79.5842767 17.22634311 76.16752678 17.42792113 72.75 17.625 C71.78191406 17.68945312 70.81382812 17.75390625 69.81640625 17.8203125 C68.88183594 17.871875 67.94726562 17.9234375 66.984375 17.9765625 C66.12553711 18.02893066 65.26669922 18.08129883 64.38183594 18.13525391 C61.75196209 17.98591503 60.27394905 17.27502589 58 16 C53.74968452 15.44525633 50.65283747 15.56477502 47 18 C44.3125 17.625 44.3125 17.625 42 17 C42.33 16.34 42.66 15.68 43 15 C39.15870991 12.5991937 35.43603065 12.35774441 31 12 C30.01 12.495 30.01 12.495 29 13 C29 12.34 29 11.68 29 11 C28.28070313 10.85820312 27.56140625 10.71640625 26.8203125 10.5703125 C25.02009096 10.20627878 23.22273889 9.82753781 21.4296875 9.4296875 C20.58664063 9.24664062 19.74359375 9.06359375 18.875 8.875 C18.02679688 8.68679688 17.17859375 8.49859375 16.3046875 8.3046875 C13.84507377 7.80839914 13.84507377 7.80839914 11 9 C10.360625 8.79375 9.72125 8.5875 9.0625 8.375 C6.85660365 7.73229047 6.85660365 7.73229047 4.75 9.4375 C4.1725 9.953125 3.595 10.46875 3 11 C3 10.01 3 9.02 3 8 C3.66 8 4.32 8 5 8 C3.8141763 4.62496331 2.72426311 2.35277269 0 0 Z " fill="#DC9F24" transform="translate(104,345)"/>
<path d="M0 0 C0.33 0.66 0.66 1.32 1 2 C-0.30855144 4.77339357 -1.68005039 7.39849894 -3.1875 10.0625 C-3.63440186 10.85873779 -4.08130371 11.65497559 -4.54174805 12.4753418 C-7.86603947 18.27926982 -11.46305848 23.84420771 -15.3125 29.3125 C-15.80322998 30.01060791 -16.29395996 30.70871582 -16.79956055 31.42797852 C-19.59672575 35.31211272 -22.51476937 38.71791578 -26 42 C-26.33 40.68 -26.66 39.36 -27 38 C-25.02 37.505 -25.02 37.505 -23 37 C-23 36.236875 -23 35.47375 -23 34.6875 C-23 32.79166667 -23 30.89583333 -23 29 C-21.1875 27.25 -21.1875 27.25 -19 26 C-18.01 26.33 -17.02 26.66 -16 27 C-15.25073929 23.33694766 -14.7619986 20.57644848 -16 17 C-14.35 17 -12.7 17 -11 17 C-11.33 15.68 -11.66 14.36 -12 13 C-10.68 12.34 -9.36 11.68 -8 11 C-8.04125 10.0925 -8.0825 9.185 -8.125 8.25 C-8.00381991 5.09931762 -7.7916033 3.54596259 -6 1 C-3 0 -3 0 0 0 Z M-7 6 C-6 8 -6 8 -6 8 Z " fill="#F7C62C" transform="translate(453,319)"/>
<path d="M0 0 C7.3800015 -0.06949629 14.7599325 -0.12280914 22.14019489 -0.15543652 C25.56713223 -0.17109574 28.99384577 -0.19233804 32.4206543 -0.22631836 C36.35983608 -0.26513514 40.29892709 -0.27970716 44.23828125 -0.29296875 C45.46960281 -0.30845261 46.70092438 -0.32393646 47.96955872 -0.33988953 C49.11051498 -0.34011612 50.25147125 -0.34034271 51.42700195 -0.34057617 C52.432939 -0.34723801 53.43887604 -0.35389984 54.47529602 -0.36076355 C57 0 57 0 58.82121277 1.36088562 C61.53757385 5.13801043 60.49541469 10.60519229 60 15 C58.72374608 19.51182723 57.35017286 23.64982714 54 27 C53.90234375 20.84765625 53.90234375 20.84765625 54 19 C54.495 18.505 54.495 18.505 55 18 C55.07320163 15.4672235 55.09227569 12.96896082 55.0625 10.4375 C55.041875 7.983125 55.02125 5.52875 55 3 C48.4 3 41.8 3 35 3 C35 2.67 35 2.34 35 2 C23.45 1.67 11.9 1.34 0 1 C0 0.67 0 0.34 0 0 Z " fill="#FEF9C6" transform="translate(210,318)"/>
<path d="M0 0 C0.33 0 0.66 0 1 0 C1.02684312 2.81256281 1.04676188 5.62487241 1.0625 8.4375 C1.07087891 9.23994141 1.07925781 10.04238281 1.08789062 10.86914062 C1.0965143 12.91295221 1.0522815 14.95683902 1 17 C0.67 17.33 0.34 17.66 0 18 C-0.20775561 19.66204487 -0.36718255 21.33029491 -0.5 23 C-0.88888889 27.88888889 -0.88888889 27.88888889 -2 29 C-2.20775561 30.66204487 -2.36718255 32.33029491 -2.5 34 C-2.88888889 38.88888889 -2.88888889 38.88888889 -4 40 C-4.20604085 41.32781878 -4.3662959 42.66295895 -4.5 44 C-4.88888889 47.88888889 -4.88888889 47.88888889 -6 49 C-6.165 50.155 -6.33 51.31 -6.5 52.5 C-7 56 -7 56 -8 57 C-8.144375 58.093125 -8.28875 59.18625 -8.4375 60.3125 C-8.91473064 63.44101199 -9.40460685 65.34101141 -11 68 C-10.14390137 67.76228882 -10.14390137 67.76228882 -9.27050781 67.51977539 C-7.02789812 67.00638657 -4.96682085 66.79834104 -2.671875 66.68359375 C-1.87265625 66.64169922 -1.0734375 66.59980469 -0.25 66.55664062 C0.575 66.51732422 1.4 66.47800781 2.25 66.4375 C3.09046875 66.39431641 3.9309375 66.35113281 4.796875 66.30664062 C6.86440671 66.20091457 8.93218281 66.09998705 11 66 C7.35482044 68.20191049 3.81244598 68.59843494 -0.375 69.125 C-1.66148437 69.29257812 -2.94796875 69.46015625 -4.2734375 69.6328125 C-7.55078659 69.95573788 -10.7107898 70.07128319 -14 70 C-13.81751709 69.34153076 -13.63503418 68.68306152 -13.44702148 68.00463867 C-7.29881632 45.66307957 -2.04970929 23.12436196 0 0 Z " fill="#FEFBD1" transform="translate(159,195)"/>
<path d="M0 0 C1.32 0.33 2.64 0.66 4 1 C4.08150744 3.06183633 4.1394194 5.12461349 4.1875 7.1875 C4.23970703 8.91033203 4.23970703 8.91033203 4.29296875 10.66796875 C3.95873122 14.46936359 3.44997209 16.08406725 1 19 C-1.71667147 19.45760061 -3.80477745 19.58717896 -6.51171875 19.48828125 C-7.23994339 19.48120651 -7.96816803 19.47413177 -8.71846008 19.46684265 C-11.04252237 19.43887081 -13.3641673 19.3761365 -15.6875 19.3125 C-17.26363705 19.28742031 -18.83981191 19.26460655 -20.41601562 19.24414062 C-24.27827398 19.18903626 -28.13872732 19.10275228 -32 19 C-31.99777939 19.81210434 -31.99555878 20.62420868 -31.99327087 21.46092224 C-31.97326929 29.09828948 -31.95802655 36.7356441 -31.94818783 44.37303066 C-31.94295969 48.29988658 -31.93586331 52.22672094 -31.92456055 56.15356445 C-31.9137292 59.94014257 -31.90772264 63.7266999 -31.90512276 67.51329231 C-31.90326895 68.96104319 -31.89964919 70.40879288 -31.89426994 71.85653496 C-31.88705633 73.87757135 -31.88659192 75.89862848 -31.88647461 77.91967773 C-31.884254 79.07217514 -31.88203339 80.22467255 -31.87974548 81.41209412 C-32 84 -32 84 -33 85 C-34.41570123 85.08651611 -35.835595 85.10704904 -37.25390625 85.09765625 C-38.10791016 85.09443359 -38.96191406 85.09121094 -39.84179688 85.08789062 C-40.73962891 85.07951172 -41.63746094 85.07113281 -42.5625 85.0625 C-43.46419922 85.05798828 -44.36589844 85.05347656 -45.29492188 85.04882812 C-47.53001314 85.03700225 -49.76497437 85.0205222 -52 85 C-51.505 84.01 -51.505 84.01 -51 83 C-45.39 83 -39.78 83 -34 83 C-33.67 61.55 -33.34 40.1 -33 18 C-22.44 17.67 -11.88 17.34 -1 17 C1.24666134 13.63000798 1.2457371 12.43894538 1.1875 8.5 C1.17783203 7.06140625 1.17783203 7.06140625 1.16796875 5.59375 C1.10292931 2.88502233 1.10292931 2.88502233 0 0 Z " fill="#FFF9C6" transform="translate(280,165)"/>
<path d="M0 0 C2.475 0.495 2.475 0.495 5 1 C-2.06232228 9.78018446 -10.16598439 17.43357607 -20 23 C-19.625 21.0625 -19.625 21.0625 -19 19 C-18.34 18.67 -17.68 18.34 -17 18 C-16.34444881 15.47266765 -16.34444881 15.47266765 -16 13 C-15.05125 12.814375 -14.1025 12.62875 -13.125 12.4375 C-12.09375 11.963125 -11.0625 11.48875 -10 11 C-9.505 9.2675 -9.505 9.2675 -9 7.5 C-8.67 6.345 -8.34 5.19 -8 4 C-5 2.5 -5 2.5 -2 2 C-1.34 2.33 -0.68 2.66 0 3 C0 2.01 0 1.02 0 0 Z " fill="#F4C32D" transform="translate(406,377)"/>
<path d="M0 0 C1.485 0.495 1.485 0.495 3 1 C2.67 11.56 2.34 22.12 2 33 C-14.335 33.495 -14.335 33.495 -31 34 C-30.67 33.01 -30.34 32.02 -30 31 C-20.1 31 -10.2 31 0 31 C0 20.77 0 10.54 0 0 Z " fill="#FEF8BB" transform="translate(226,131)"/>
<path d="M0 0 C0.33 0 0.66 0 1 0 C1.07073842 12.1974652 0.8588315 24.37065803 0.5 36.5625 C0.45160383 38.26757192 0.40342578 39.97265005 0.35546875 41.67773438 C0.23947964 45.78523175 0.1205879 49.89263518 0 54 C0.66 54 1.32 54 2 54 C2.33 59.94 2.66 65.88 3 72 C-3.99633947 58.00732107 -2.29799691 38.65411755 -2.3125 23.3125 C-2.31590393 22.44321869 -2.31930786 21.57393738 -2.32281494 20.67831421 C-2.32842336 18.17722626 -2.31797887 15.67680673 -2.30078125 13.17578125 C-2.30156174 12.42459015 -2.30234222 11.67339905 -2.30314636 10.89944458 C-2.24884061 6.83416338 -1.80576863 3.66051183 0 0 Z " fill="#F0D04C" transform="translate(2,199)"/>
<path d="M0 0 C0 0.99 0 1.98 0 3 C-0.66 3.66 -1.32 4.32 -2 5 C-0.68 6.32 0.64 7.64 2 9 C1.67 9.66 1.34 10.32 1 11 C0.34 11 -0.32 11 -1 11 C-1 10.34 -1 9.68 -1 9 C-1.99 9 -2.98 9 -4 9 C-4.33 9.99 -4.66 10.98 -5 12 C-6.32303717 12.3721042 -7.65737935 12.70630173 -9 13 C-9.33 13.66 -9.66 14.32 -10 15 C-10.99 15 -11.98 15 -13 15 C-13.33 14.34 -13.66 13.68 -14 13 C-16.02463255 12.34786708 -16.02463255 12.34786708 -18 12 C-18.66 13.65 -19.32 15.3 -20 17 C-21.98 17 -23.96 17 -26 17 C-26.33 16.34 -26.66 15.68 -27 15 C-26.34 15 -25.68 15 -25 15 C-25 14.34 -25 13.68 -25 13 C-24.17757813 12.70867187 -23.35515625 12.41734375 -22.5078125 12.1171875 C-10.3277255 7.65400934 -10.3277255 7.65400934 0 0 Z " fill="#FABB1E" transform="translate(378,338)"/>
<path d="M0 0 C3.50806583 3.18412281 5.87930711 6.7560976 8.25 10.8125 C8.63478516 11.46395996 9.01957031 12.11541992 9.41601562 12.78662109 C12.18954872 17.52228133 14.8809116 22.30229384 17.5 27.125 C17.83805664 27.73964111 18.17611328 28.35428223 18.52441406 28.98754883 C20.29281989 32.30262397 21.4931019 35.26866678 22 39 C21.34 39 20.68 39 20 39 C19.16180842 37.37750059 18.3295884 35.75191503 17.5 34.125 C17.0359375 33.22007812 16.571875 32.31515625 16.09375 31.3828125 C15 29 15 29 15 27 C14.34 27 13.68 27 13 27 C12.67 25.02 12.34 23.04 12 21 C11.01 20.67 10.02 20.34 9 20 C8.67 18.35 8.34 16.7 8 15 C7.01 14.67 6.02 14.34 5 14 C3.25 12.6875 3.25 12.6875 2 11 C2.3125 8.8125 2.3125 8.8125 3 7 C2.34 7 1.68 7 1 7 C0.67 4.69 0.34 2.38 0 0 Z " fill="#F3DE51" transform="translate(436,100)"/>
<path d="M0 0 C20.13 0 40.26 0 61 0 C61 0.33 61 0.66 61 1 C60.2947821 1.00364563 59.58956421 1.00729126 58.86297607 1.01104736 C52.21225402 1.04893673 45.56199532 1.10579939 38.91161728 1.18390274 C35.4926539 1.2233884 32.07394846 1.25557099 28.65478516 1.27099609 C24.72264629 1.28905691 20.79122235 1.33900351 16.859375 1.390625 C15.63321472 1.39185364 14.40705444 1.39308228 13.14373779 1.39434814 C12.00285706 1.41406677 10.86197632 1.4337854 9.68652344 1.45410156 C8.68280701 1.46298401 7.67909058 1.47186646 6.6449585 1.48101807 C3.30159124 2.13703865 2.10583213 3.37784103 0 6 C-1.65679467 12.15206843 0.87121546 18.08563701 3.22265625 23.71484375 C3.47917969 24.46894531 3.73570312 25.22304688 4 26 C3.67 26.66 3.34 27.32 3 28 C-0.56121004 22.02635735 -2.14305384 18.11166019 -2.1875 11.0625 C-2.20167969 10.04285156 -2.21585938 9.02320313 -2.23046875 7.97265625 C-2 5 -2 5 0 0 Z " fill="#CE8512" transform="translate(204,316)"/>
<path d="M0 0 C0.33 0 0.66 0 1 0 C2.11658501 4.68965706 1.80619523 7.53763531 0 12 C-0.66 12 -1.32 12 -2 12 C-2.2165625 12.8971875 -2.2165625 12.8971875 -2.4375 13.8125 C-2.8872439 15.56150404 -3.42892341 17.28677023 -4 19 C-4 19.99 -4 20.98 -4 22 C-5.375 24.6875 -5.375 24.6875 -7 27 C-7.66 27 -8.32 27 -9 27 C-8.938125 27.825 -8.87625 28.65 -8.8125 29.5 C-9.04724662 33.88193696 -10.32618654 36.95495082 -12 41 C-13.00925403 37.86805968 -12.97047592 35.97122975 -12.03125 32.83203125 C-11.79293457 32.02862305 -11.55461914 31.22521484 -11.30908203 30.39746094 C-10.90858643 29.11790527 -10.90858643 29.11790527 -10.5 27.8125 C-10.23171387 26.9349707 -9.96342773 26.05744141 -9.68701172 25.15332031 C-6.98533243 16.54452698 -3.61613673 8.25934189 0 0 Z " fill="#F5DA4C" transform="translate(19,132)"/>
<path d="M0 0 C-10.02798632 4.03979485 -20.36320012 6.25837158 -30.9375 8.3125 C-31.61821564 8.44714661 -32.29893127 8.58179321 -33.00027466 8.72052002 C-40.02290868 10.10037861 -46.81490355 11.39458384 -54 11 C-51.44725126 8.54394629 -50.14109357 8.01197061 -46.546875 7.70703125 C-45.29390625 7.74183594 -44.0409375 7.77664063 -42.75 7.8125 C-41.48671875 7.83957031 -40.2234375 7.86664063 -38.921875 7.89453125 C-37.95765625 7.92933594 -36.9934375 7.96414063 -36 8 C-36 7.34 -36 6.68 -36 6 C-31.545 5.505 -31.545 5.505 -27 5 C-27 4.67 -27 4.34 -27 4 C-23.7 4 -20.4 4 -17 4 C-17 3.34 -17 2.68 -17 2 C-14.36 2 -11.72 2 -9 2 C-9 1.34 -9 0.68 -9 0 C-3.375 -1.125 -3.375 -1.125 0 0 Z " fill="#FDF3C6" transform="translate(364,348)"/>
<path d="M0 0 C1 2 1 2 0.08837891 4.74658203 C-0.27078613 5.82020996 -0.62995117 6.89383789 -1 8 C-1.35811221 10.98788817 -1.35811221 10.98788817 -1.4140625 14.0546875 C-1.45273438 15.16328125 -1.49140625 16.271875 -1.53125 17.4140625 C-1.5621875 18.55617188 -1.593125 19.69828125 -1.625 20.875 C-1.66367188 22.0403125 -1.70234375 23.205625 -1.7421875 24.40625 C-1.83610319 27.27067864 -1.92177983 30.13510692 -2 33 C-1.34 33 -0.68 33 0 33 C2 35 2 35 2.9375 37.375 C3.99016897 39.97571158 5.23678745 41.83605732 7 44 C2.15966424 42.20728305 -0.77504478 38.49851976 -2.984375 33.9921875 C-6.80219801 23.94338919 -5.24241539 14.00984199 -2 4 C-1.36677361 2.65046432 -0.71209461 1.30963487 0 0 Z " fill="#FEF6C8" transform="translate(96,299)"/>
<path d="M0 0 C0.66022156 0.00565979 1.32044312 0.01131958 2.00067139 0.01715088 C4.10015763 0.0394627 6.1979087 0.08964186 8.296875 0.140625 C9.7239336 0.16069706 11.15101908 0.17894661 12.578125 0.1953125 C16.06826793 0.23930807 19.55740199 0.30829624 23.046875 0.390625 C22.716875 1.050625 22.386875 1.710625 22.046875 2.390625 C12.146875 2.720625 2.246875 3.050625 -7.953125 3.390625 C-7.953125 8.340625 -7.953125 13.290625 -7.953125 18.390625 C-11.33104259 15.01270741 -11.3844881 14.47602051 -11.390625 9.953125 C-11.40996094 9.00566406 -11.42929688 8.05820313 -11.44921875 7.08203125 C-10.24984578 0.57519681 -5.92651176 -0.10044935 0 0 Z " fill="#EFCB40" transform="translate(203.953125,163.609375)"/>
<path d="M0 0 C6.65148766 -0.27485486 12.58410706 0.72520958 19.0625 2.1875 C20.57626221 2.52479126 20.57626221 2.52479126 22.12060547 2.86889648 C44.05151401 7.89101511 44.05151401 7.89101511 51 14 C50.67 14.99 50.34 15.98 50 17 C50 16.34 50 15.68 50 15 C48.72125 14.690625 47.4425 14.38125 46.125 14.0625 C43.89898325 13.52394756 42.05260001 13.0263 40 12 C40 11.01 40 10.02 40 9 C39.41371826 8.885354 38.82743652 8.77070801 38.22338867 8.65258789 C30.55736396 7.13830214 22.9299481 5.46526424 15.30273438 3.76757812 C10.21228017 2.64801644 5.17303739 1.64391654 0 1 C0 0.67 0 0.34 0 0 Z " fill="#C98819" transform="translate(315,315)"/>
<path d="M0 0 C7.27482267 -0.73565623 13.80619077 0.43519798 20.8125 2.25 C22.03030151 2.55683716 22.03030151 2.55683716 23.27270508 2.86987305 C28.21795884 4.21626483 31.9032601 5.91260182 36 9 C32.93498116 10.53250942 30.88458841 9.30797001 27.63671875 8.3828125 C27.00772171 8.20620087 26.37872467 8.02958923 25.73066711 7.84762573 C23.71429637 7.28017266 21.70087178 6.70299457 19.6875 6.125 C17.6843678 5.55598037 15.68067758 4.98901005 13.6764679 4.42379761 C11.84924648 3.90754221 10.02357989 3.38579314 8.19799805 2.86376953 C5.47294129 2.12774 2.77464135 1.51064618 0 1 C0 0.67 0 0.34 0 0 Z " fill="#F2E17D" transform="translate(239,98)"/>
<path d="M0 0 C0.33 0 0.66 0 1 0 C0.70465475 9.73620901 0.40971701 19.01018312 -2.30859375 28.42578125 C-3.1602857 31.59676992 -3.46431051 34.69150335 -3.75 37.953125 C-4.1343567 41.1000455 -5.03753691 43.98428231 -6 47 C-6.66 47 -7.32 47 -8 47 C-7.386815 41.77382711 -6.61367014 36.63642575 -5.625 31.46484375 C-5.43091553 30.44131554 -5.43091553 30.44131554 -5.23291016 29.39710999 C-4.82428856 27.24345172 -4.41243338 25.09043127 -4 22.9375 C-3.58789073 20.78093992 -3.17655101 18.62424286 -2.76708984 16.46717834 C-2.39598491 14.51285508 -2.02228873 12.55902438 -1.6484375 10.60522461 C-1.01348187 7.07495738 -0.48440208 3.5533292 0 0 Z " fill="#FEF8BF" transform="translate(138,190)"/>
<path d="M0 0 C0.66 0.33 1.32 0.66 2 1 C0.68 3.31 -0.64 5.62 -2 8 C15.325 7.505 15.325 7.505 33 7 C33 7.33 33 7.66 33 8 C20.29304542 9.32129837 7.7821215 10.32962491 -5 10 C-3.77207194 6.10266311 -2.65575614 3.13862089 0 0 Z " fill="#FDF0BD" transform="translate(274,352)"/>
<path d="M0 0 C2.375 1.5 2.375 1.5 4 3 C2.0625 3.5625 2.0625 3.5625 0 4 C-0.33 3.67 -0.66 3.34 -1 3 C-2.99958364 2.95919217 -5.00045254 2.95745644 -7 3 C-7 3.66 -7 4.32 -7 5 C-7.31802943 6.66965451 -7.64984951 8.33678518 -8 10 C-10.97 9.505 -10.97 9.505 -14 9 C-14.33 10.65 -14.66 12.3 -15 14 C-15.66796875 12.2578125 -15.66796875 12.2578125 -16 10 C-14.92578125 7.9296875 -14.92578125 7.9296875 -13.3125 5.875 C-12.79300781 5.19179687 -12.27351562 4.50859375 -11.73828125 3.8046875 C-8.22467459 0.15685316 -4.99013083 -0.5198053 0 0 Z " fill="#F8D73B" transform="translate(240,67)"/>
<path d="M0 0 C0.66 0.33 1.32 0.66 2 1 C1.61328125 1.40089844 1.2265625 1.80179687 0.828125 2.21484375 C-9.82575817 13.84445384 -10.33075933 27.02395233 -10 42 C-12.53352978 39.46647022 -12.28380238 37.79897863 -12.328125 34.33666992 C-12.32039063 33.21095581 -12.32039063 33.21095581 -12.3125 32.0625 C-12.31121094 31.29848877 -12.30992188 30.53447754 -12.30859375 29.74731445 C-12.21626149 24.26912607 -11.42391225 19.41218567 -9.65625 14.19921875 C-8.80937185 11.7436761 -8.80937185 11.7436761 -9 8 C-7.68 7.34 -6.36 6.68 -5 6 C-5 5.34 -5 4.68 -5 4 C-3.37373596 2.61767557 -1.7074998 1.28062485 0 0 Z " fill="#E9B932" transform="translate(102,289)"/>
<path d="M0 0 C0.99 0.33 1.98 0.66 3 1 C2.67 1.66 2.34 2.32 2 3 C2.78375 2.79375 3.5675 2.5875 4.375 2.375 C5.674375 2.189375 5.674375 2.189375 7 2 C7.66 2.66 8.32 3.32 9 4 C7.63875 5.0828125 7.63875 5.0828125 6.25 6.1875 C3.4298006 8.52652794 1.19093342 11.05066655 -1 14 C-2.1577506 10.52674819 -2.06866652 7.63932552 -2 4 C-1.01 4.495 -1.01 4.495 0 5 C0 3.35 0 1.7 0 0 Z " fill="#FDE139" transform="translate(213,53)"/>
<path d="M0 0 C6.89859824 8.15288883 6.14894232 18.9215696 6 29 C5.34 29 4.68 29 4 29 C2.80198611 23.95051999 2.67309832 18.86924709 2.48242188 13.70703125 C2.29844924 9.99286674 2.10878404 8.16317605 0 5 C-0.125 2.3125 -0.125 2.3125 0 0 Z " fill="#FDF8C0" transform="translate(261,66)"/>
<path d="M0 0 C1 2 1 2 0.25 4.5625 C-1 7 -1 7 -4 8 C-4.33 8.66 -4.66 9.32 -5 10 C-6.32 10 -7.64 10 -9 10 C-9 11.65 -9 13.3 -9 15 C-9.66 14.01 -10.32 13.02 -11 12 C-11.78375 12.350625 -12.5675 12.70125 -13.375 13.0625 C-14.24125 13.371875 -15.1075 13.68125 -16 14 C-16.66 13.67 -17.32 13.34 -18 13 C-18 12.34 -18 11.68 -18 11 C-17.3709375 10.79246094 -16.741875 10.58492188 -16.09375 10.37109375 C-9.51340586 8.00256626 -4.94748331 4.91984374 0 0 Z " fill="#E5A61F" transform="translate(263,347)"/>
<path d="M0 0 C13.2 0 26.4 0 40 0 C40.495 1.485 40.495 1.485 41 3 C36.12517426 2.88127872 31.2505328 2.7570007 26.37597656 2.62768555 C24.71943969 2.58450951 23.06286328 2.54282303 21.40625 2.50268555 C19.0181082 2.4445607 16.6301623 2.38099052 14.2421875 2.31640625 C13.50757294 2.29969376 12.77295837 2.28298126 12.01608276 2.26576233 C7.9269034 2.14929408 4.01688857 1.77630378 0 1 C0 0.67 0 0.34 0 0 Z " fill="#FEFCE1" transform="translate(225,320)"/>
<path d="M0 0 C2.24348796 2.76948453 3.64650298 5.26654434 4.82421875 8.625 C5.13037109 9.49640625 5.43652344 10.3678125 5.75195312 11.265625 C6.06068359 12.16796875 6.36941406 13.0703125 6.6875 14 C7.00783203 14.90234375 7.32816406 15.8046875 7.65820312 16.734375 C9.05928112 20.77330345 10 23.66645416 10 28 C9.34 28 8.68 28 8 28 C7.80664062 27.24074219 7.61328125 26.48148438 7.4140625 25.69921875 C7.15367187 24.70535156 6.89328125 23.71148437 6.625 22.6875 C6.36976563 21.70136719 6.11453125 20.71523437 5.8515625 19.69921875 C5.08086826 16.8194184 5.08086826 16.8194184 3 14 C1.1309408 9.42166232 -0.48458309 5.00735856 0 0 Z " fill="#F1D950" transform="translate(458,139)"/>
<path d="M0 0 C3 3.625 3 3.625 3 7 C-9.74209104 7.40379866 -22.32535895 6.17467711 -35 5 C-35 4.67 -35 4.34 -35 4 C-34.04633545 4.03552979 -33.0926709 4.07105957 -32.11010742 4.10766602 C-28.57122985 4.23805567 -25.032131 4.36120824 -21.49291992 4.48217773 C-19.96127431 4.53554122 -18.42969573 4.59086614 -16.89819336 4.64819336 C-14.69659883 4.73026252 -12.49485949 4.80527067 -10.29296875 4.87890625 C-9.60849167 4.90594131 -8.92401459 4.93297638 -8.21879578 4.96083069 C-5.1530145 5.05703182 -2.94080618 4.98026873 0 4 C0 2.68 0 1.36 0 0 Z " fill="#FDF1BD" transform="translate(202,355)"/>
<path d="M0 0 C2.61527381 2.36620011 4.26440562 4.942048 6 8 C5.195625 8.268125 4.39125 8.53625 3.5625 8.8125 C2.716875 9.204375 1.87125 9.59625 1 10 C0.67 10.99 0.34 11.98 0 13 C-0.99 12.67 -1.98 12.34 -3 12 C-3 9.36 -3 6.72 -3 4 C-2.34 3.67 -1.68 3.34 -1 3 C-0.67 2.01 -0.34 1.02 0 0 Z " fill="#F6B215" transform="translate(206,343)"/>
<path d="M0 0 C0.66 0.66 1.32 1.32 2 2 C0.35 2 -1.3 2 -3 2 C-3 1.34 -3 0.68 -3 0 C-5.56406672 0.08737713 -8.12482216 0.19429119 -10.6875 0.3125 C-11.40873047 0.33505859 -12.12996094 0.35761719 -12.87304688 0.38085938 C-17.43890811 0.61019487 -20.13068031 1.38251903 -24 4 C-26.3125 3.6875 -26.3125 3.6875 -28 3 C-19.09711494 -3.2724872 -10.25869307 -3.29743706 0 0 Z " fill="#FEFABC" transform="translate(249,54)"/>
<path d="M0 0 C-14.9488174 7.55881231 -14.9488174 7.55881231 -22.3125 11.0625 C-23.57513672 11.66771484 -23.57513672 11.66771484 -24.86328125 12.28515625 C-27 13 -27 13 -30 12 C-29.67 11.34 -29.34 10.68 -29 10 C-27.33871537 9.64080332 -25.67099977 9.31088368 -24 9 C-22.65812182 8.3507041 -21.32520503 7.68268138 -20 7 C-14.44444444 5 -14.44444444 5 -12 5 C-12 4.34 -12 3.68 -12 3 C-10.02 2.67 -8.04 2.34 -6 2 C-6 1.34 -6 0.68 -6 0 C-2.25 -1.125 -2.25 -1.125 0 0 Z " fill="#EBBA3C" transform="translate(359,418)"/>
<path d="M0 0 C3.07877133 -0.4505519 5.21010698 -0.50042912 7.88671875 1.1953125 C11.10244076 3.87845162 13.28517045 6.13322749 15 10 C11.71303767 10.79953138 10.28976808 11.09658936 7 10 C7.99 8.68 8.98 7.36 10 6 C9.01 5.67 8.02 5.34 7 5 C5.3125 3.4375 5.3125 3.4375 4 2 C3.34 3.32 2.68 4.64 2 6 C1.01 4.68 0.02 3.36 -1 2 C-0.67 1.34 -0.34 0.68 0 0 Z " fill="#F7E44A" transform="translate(390,56)"/>
<path d="M0 0 C0.66 0 1.32 0 2 0 C-0.43378591 5.52373959 -4.84303503 8.49514072 -9.6875 11.875 C-14.73926077 13.59069234 -19.71489181 13.23090279 -25 13 C-25 12.67 -25 12.34 -25 12 C-19.39 11.01 -13.78 10.02 -8 9 C-8 8.34 -8 7.68 -8 7 C-7.01 7 -6.02 7 -5 7 C-4.731875 6.360625 -4.46375 5.72125 -4.1875 5.0625 C-3 3 -3 3 0 2 C0 1.34 0 0.68 0 0 Z " fill="#FBF4C7" transform="translate(262,345)"/>
<path d="M0 0 C0.37125 0.515625 0.7425 1.03125 1.125 1.5625 C4.49139205 5.93880967 8.05333595 10.13555812 12 14 C4.57142857 14.28571429 4.57142857 14.28571429 1 12 C1.020625 10.948125 1.04125 9.89625 1.0625 8.8125 C1.01103198 5.67295096 0.73482813 3.03116604 0 0 Z " fill="#EDB229" transform="translate(92,331)"/>
<path d="M0 0 C-0.61488281 0.26554687 -1.22976562 0.53109375 -1.86328125 0.8046875 C-2.67152344 1.15789062 -3.47976562 1.51109375 -4.3125 1.875 C-5.11300781 2.22304688 -5.91351563 2.57109375 -6.73828125 2.9296875 C-9.1961834 4.02571894 -9.1961834 4.02571894 -12 6 C-14.30285441 6.55416283 -16.60644924 6.94493312 -18.94140625 7.33984375 C-21.3723586 7.8837067 -21.3723586 7.8837067 -23 11 C-22.8203125 8.66796875 -22.8203125 8.66796875 -22 6 C-19.7421875 4.48828125 -19.7421875 4.48828125 -16.875 3.3125 C-15.88113281 2.90386719 -14.88726562 2.49523437 -13.86328125 2.07421875 C-4.64461066 -1.3843548 -4.64461066 -1.3843548 0 0 Z " fill="#D8951F" transform="translate(132,321)"/>
<path d="M0 0 C-1.98 0.33 -3.96 0.66 -6 1 C-6 1.66 -6 2.32 -6 3 C-6.94875 3.309375 -7.8975 3.61875 -8.875 3.9375 C-11.86080408 4.87394742 -11.86080408 4.87394742 -14 6 C-16.21138855 5.91188555 -18.42042185 5.7570216 -20.625 5.5625 C-21.81351562 5.46066406 -23.00203125 5.35882813 -24.2265625 5.25390625 C-25.14179688 5.17011719 -26.05703125 5.08632813 -27 5 C-23.24148381 2.73311426 -19.19630793 2.16199568 -14.9375 1.4375 C-2.41320505 -0.74892571 -2.41320505 -0.74892571 0 0 Z " fill="#FDF3C8" transform="translate(351,341)"/>
<path d="M0 0 C4.72224516 1.53472968 9.35855331 3.23945126 14 5 C14 5.99 14 6.98 14 8 C11 9 11 9 9.0625 8.375 C6.85660365 7.73229047 6.85660365 7.73229047 4.75 9.4375 C4.1725 9.953125 3.595 10.46875 3 11 C3 10.01 3 9.02 3 8 C3.66 8 4.32 8 5 8 C3.8141763 4.62496331 2.72426311 2.35277269 0 0 Z " fill="#FCBC1F" transform="translate(104,345)"/>
<path d="M0 0 C0 0.99 0 1.98 0 3 C-0.66 3.66 -1.32 4.32 -2 5 C-0.68 6.32 0.64 7.64 2 9 C1.67 9.66 1.34 10.32 1 11 C0.34 11 -0.32 11 -1 11 C-1 10.34 -1 9.68 -1 9 C-1.99 8.67 -2.98 8.34 -4 8 C-3.67 7.34 -3.34 6.68 -3 6 C-3.845625 6.639375 -4.69125 7.27875 -5.5625 7.9375 C-8.90728565 10.1966273 -11.97396992 10.67791759 -16 11 C-12.27704726 8.09956008 -8.31298708 5.77597021 -4.2421875 3.40234375 C-1.91199854 2.06170146 -1.91199854 2.06170146 0 0 Z " fill="#F3BA2B" transform="translate(378,338)"/>
<path d="M0 0 C8.91 0 17.82 0 27 0 C27 0.66 27 1.32 27 2 C28.32 2.33 29.64 2.66 31 3 C20.66006789 2.41165035 10.32831031 1.76930362 0 1 C0 0.67 0 0.34 0 0 Z " fill="#FCF0C4" transform="translate(266,308)"/>
<path d="M0 0 C0.33 0.99 0.66 1.98 1 3 C3.97 3.33 6.94 3.66 10 4 C10.33 2.68 10.66 1.36 11 0 C11.33 1.98 11.66 3.96 12 6 C3.55467195 5.24595285 -4.68741223 3.62171958 -13 2 C-13 1.67 -13 1.34 -13 1 C-6.565 0.505 -6.565 0.505 0 0 Z " fill="#FDFAD9" transform="translate(320,261)"/>
<path d="M0 0 C1.32 0 2.64 0 4 0 C4 0.66 4 1.32 4 2 C3.01 2.7734375 3.01 2.7734375 2 3.5625 C-0.55749867 6.67945151 -0.56052008 8.47845258 -0.41015625 12.4140625 C0.22310535 16.40662612 1.66969216 19.99714184 3.22265625 23.71484375 C3.47917969 24.46894531 3.73570312 25.22304688 4 26 C3.67 26.66 3.34 27.32 3 28 C-0.56121004 22.02635735 -2.14305384 18.11166019 -2.1875 11.0625 C-2.20167969 10.04285156 -2.21585938 9.02320313 -2.23046875 7.97265625 C-1.99444914 4.92840333 -1.28252995 2.75262357 0 0 Z " fill="#D99B21" transform="translate(204,316)"/>
<path d="M0 0 C1.24451915 3.59527755 0.70603283 6.31293967 0 10 C0 10.99 0 11.98 0 13 C-0.99 13 -1.98 13 -3 13 C-2.938125 14.258125 -2.87625 15.51625 -2.8125 16.8125 C-2.79173989 20.72231986 -2.79173989 20.72231986 -4.5 23 C-4.995 23.33 -5.49 23.66 -6 24 C-5.35792056 15.97400699 -3.61572404 7.23144808 0 0 Z " fill="#FDF9C1" transform="translate(147,152)"/>
<path d="M0 0 C0.33 0 0.66 0 1 0 C2.62807725 7.73336696 3.35493716 15.10468283 -1 22 C-1.33 22 -1.66 22 -2 22 C-2.09765625 15.84765625 -2.09765625 15.84765625 -2 14 C-1.67 13.67 -1.34 13.34 -1 13 C-0.76518307 10.81707226 -0.58636677 8.62796826 -0.4375 6.4375 C-0.35371094 5.23996094 -0.26992188 4.04242188 -0.18359375 2.80859375 C-0.12300781 1.88175781 -0.06242187 0.95492188 0 0 Z " fill="#FDF8D4" transform="translate(266,323)"/>
<path d="M0 0 C0.33 0 0.66 0 1 0 C1.33859902 6.17096719 0.08339806 11.49333809 -1.5 17.4375 C-1.73847656 18.35982422 -1.97695313 19.28214844 -2.22265625 20.23242188 C-2.80761228 22.49035216 -3.40020296 24.74597547 -4 27 C-4.33 27 -4.66 27 -5 27 C-5.25029797 20.61740167 -5.25029797 20.61740167 -4.0625 17.6875 C-2.98571088 14.96385693 -2.73571765 12.90147003 -2.5 10 C-2.1979404 6.32036491 -1.67271358 3.34542717 0 0 Z " fill="#EEC643" transform="translate(472,258)"/>
<path d="M0 0 C0.33 1.32 0.66 2.64 1 4 C1.639375 4.103125 2.27875 4.20625 2.9375 4.3125 C3.618125 4.539375 4.29875 4.76625 5 5 C5.33 5.99 5.66 6.98 6 8 C4.68 8 3.36 8 2 8 C1.67 8.99 1.34 9.98 1 11 C0.01 11 -0.98 11 -2 11 C-2.25 3.375 -2.25 3.375 0 0 Z M-1 5 C0 7 0 7 0 7 Z " fill="#FDE640" transform="translate(431,95)"/>
<path d="M0 0 C0.33 0 0.66 0 1 0 C1.31323013 5.01168211 0.64850329 8.31982226 -1.265625 12.93359375 C-2.44302749 16.24660395 -2.68821673 19.50802739 -3 23 C-3.66 23 -4.32 23 -5 23 C-4.63379732 14.88861071 -2.58459767 7.66964333 0 0 Z " fill="#FEFCD4" transform="translate(167,156)"/>
<path d="M0 0 C4.79474839 4.79474839 5.16204057 11.94557055 5.20654297 18.42138672 C5.17893082 21.61660768 5.10698204 24.8063879 5 28 C4.67 28 4.34 28 4 28 C3.95101563 27.16597656 3.90203125 26.33195312 3.8515625 25.47265625 C3.81295031 14.58888948 3.81295031 14.58888948 0 5 C-0.04063832 3.33382885 -0.042721 1.66611905 0 0 Z " fill="#FEF4BE" transform="translate(378,300)"/>
<path d="M0 0 C0.66 0 1.32 0 2 0 C1.4253379 4.78642607 0.01754357 8.53788787 -2.0625 12.875 C-2.61035156 14.02742188 -3.15820312 15.17984375 -3.72265625 16.3671875 C-4.14417969 17.23601562 -4.56570313 18.10484375 -5 19 C-5.33 19 -5.66 19 -6 19 C-6 17.35 -6 15.7 -6 14 C-5.34 14 -4.68 14 -4 14 C-3.67 10.7 -3.34 7.4 -3 4 C-2.01 4 -1.02 4 0 4 C0 2.68 0 1.36 0 0 Z " fill="#EFC440" transform="translate(460,300)"/>
<path d="M0 0 C2.80543654 3.36820375 4.41638477 6.91495611 6.125 10.9375 C6.64320313 12.14277344 7.16140625 13.34804687 7.6953125 14.58984375 C8.78517115 17.43848628 9.53306042 19.99905906 10 23 C6.91019927 21.45509963 6.31632597 19.11131592 5 16 C4.8125 13.125 4.8125 13.125 5 11 C4.34 11 3.68 11 3 11 C3 9.68 3 8.36 3 7 C2.34 7 1.68 7 1 7 C0.67 4.69 0.34 2.38 0 0 Z " fill="#FEFAC2" transform="translate(319,138)"/>
<path d="M0 0 C0.33 0 0.66 0 1 0 C0.46588214 8.85898937 -1.14289913 17.34520917 -3 26 C-3.33 26 -3.66 26 -4 26 C-3.85978195 23.35375716 -3.71310224 20.70815422 -3.5625 18.0625 C-3.52318359 17.30775391 -3.48386719 16.55300781 -3.44335938 15.77539062 C-3.11328125 10.11328125 -3.11328125 10.11328125 -2 9 C-1.79395915 7.67218122 -1.6337041 6.33704105 -1.5 5 C-1.11111111 1.11111111 -1.11111111 1.11111111 0 0 Z " fill="#FEFBCD" transform="translate(145,211)"/>
<path d="M0 0 C1.89796206 3.38152192 2.80223042 6.73436548 3.6875 10.5 C3.95949219 11.6240625 4.23148437 12.748125 4.51171875 13.90625 C4.9634571 16.7684642 4.97784414 18.32241337 4 21 C0.93540281 13.8036691 -0.61187085 7.83534611 0 0 Z " fill="#F0D54B" transform="translate(468,167)"/>
<path d="M0 0 C1.92500007 3.85000014 2.86634918 7.33356971 3.6875 11.5 C3.82994141 12.16386719 3.97238281 12.82773438 4.11914062 13.51171875 C4.80884122 16.94992771 5.26537309 19.67096477 4 23 C4 22.34 4 21.68 4 21 C3.34 21 2.68 21 2 21 C2 17.37 2 13.74 2 10 C1.34 10 0.68 10 0 10 C0 6.7 0 3.4 0 0 Z " fill="#FEF8BF" transform="translate(330,165)"/>
<path d="M0 0 C2.79921583 4.19882375 1.86558093 6.12127113 1 11 C0 12 0 12 -3.81640625 12.09765625 C-5.39846682 12.09098089 -6.98051159 12.07901875 -8.5625 12.0625 C-9.36880859 12.05798828 -10.17511719 12.05347656 -11.00585938 12.04882812 C-13.00393756 12.03700518 -15.00197783 12.01906914 -17 12 C-17 11.67 -17 11.34 -17 11 C-11.72 11 -6.44 11 -1 11 C-1.66 8.69 -2.32 6.38 -3 4 C-2.01 4.33 -1.02 4.66 0 5 C0 3.35 0 1.7 0 0 Z " fill="#DFA121" transform="translate(206,351)"/>
<path d="M0 0 C1.27445454 0.42683632 2.54445882 0.86697202 3.8125 1.3125 C4.52019531 1.55613281 5.22789062 1.79976563 5.95703125 2.05078125 C8.14472373 3.06724258 9.40896718 4.20820594 11 6 C10.67 6.99 10.34 7.98 10 9 C10 8.34 10 7.68 10 7 C8.72125 6.690625 7.4425 6.38125 6.125 6.0625 C3.89898325 5.52394756 2.05260001 5.0263 0 4 C0 2.68 0 1.36 0 0 Z " fill="#DD971C" transform="translate(355,323)"/>
<path d="M0 0 C0.33 0.99 0.66 1.98 1 3 C1.66 3.33 2.32 3.66 3 4 C2.01 4 1.02 4 0 4 C-0.33 3.34 -0.66 2.68 -1 2 C-5.06024321 4.03802135 -5.06024321 4.03802135 -7 8 C-7.99 8 -8.98 8 -10 8 C-9.67372714 4.98197607 -9.38918764 3.40308719 -7.25 1.1875 C-4.62847443 -0.19608294 -2.92325122 -0.24360427 0 0 Z " fill="#FDE943" transform="translate(343,23)"/>
<path d="M0 0 C0 0.33 0 0.66 0 1 C-4.70461323 2.86132673 -8.8757696 3.2509496 -13.875 3.125 C-14.56335938 3.11597656 -15.25171875 3.10695313 -15.9609375 3.09765625 C-17.64077838 3.07432513 -19.32043746 3.03846326 -21 3 C-15.06281054 -0.9581263 -6.95604187 -0.12881559 0 0 Z " fill="#FEF6C8" transform="translate(297,349)"/>
<path d="M0 0 C1.32 0.33 2.64 0.66 4 1 C4 1.99 4 2.98 4 4 C2.68 4 1.36 4 0 4 C0 6.64 0 9.28 0 12 C-0.66 12 -1.32 12 -2 12 C-2.05422947 10.5629191 -2.09289723 9.12524538 -2.125 7.6875 C-2.14820313 6.88699219 -2.17140625 6.08648437 -2.1953125 5.26171875 C-2 3 -2 3 0 0 Z " fill="#FCF1B9" transform="translate(205,319)"/>
<path d="M0 0 C5.61 0 11.22 0 17 0 C17.33 0.99 17.66 1.98 18 3 C15.74943278 2.88566637 13.49953326 2.75813564 11.25 2.625 C9.99703125 2.55539062 8.7440625 2.48578125 7.453125 2.4140625 C4 2 4 2 0 0 Z " fill="#E0A328" transform="translate(181,348)"/>
<path d="M0 0 C0.33 0 0.66 0 1 0 C1 2.97 1 5.94 1 9 C0.34 9 -0.32 9 -1 9 C-0.9175 9.9075 -0.835 10.815 -0.75 11.75 C-1.05464439 15.71037702 -2.14911051 16.4184859 -5 19 C-3.43247063 12.63583076 -1.85735533 6.28643343 0 0 Z " fill="#FEF9C5" transform="translate(129,237)"/>
<path d="M0 0 C2.97 0.495 2.97 0.495 6 1 C6 1.66 6 2.32 6 3 C7.32 3 8.64 3 10 3 C10 3.66 10 4.32 10 5 C12.31 5 14.62 5 17 5 C17 5.99 17 6.98 17 8 C10.77274933 6.34608232 5.46037442 4.44240996 0 1 C0 0.67 0 0.34 0 0 Z " fill="#FDF2C1" transform="translate(103,343)"/>
<path d="M0 0 C2.375 1.5 2.375 1.5 4 3 C2.0625 3.5625 2.0625 3.5625 0 4 C-0.33 3.67 -0.66 3.34 -1 3 C-6.27329537 2.38682612 -8.84287226 3.83266458 -13 7 C-10.73102378 1.0181536 -6.13864559 -0.78365688 0 0 Z " fill="#EFCF46" transform="translate(240,67)"/>
<path d="M0 0 C1.4540625 0.0309375 1.4540625 0.0309375 2.9375 0.0625 C0.14553989 3.34715896 -3.29446817 5.07571958 -7.0625 7.0625 C-7.7225 7.0625 -8.3825 7.0625 -9.0625 7.0625 C-8.8125 5.1875 -8.8125 5.1875 -8.0625 3.0625 C-6.0625 1.875 -6.0625 1.875 -4.0625 1.0625 C-3.0625 0.0625 -3.0625 0.0625 0 0 Z " fill="#F1BE37" transform="translate(368.0625,409.9375)"/>
<path d="M0 0 C2.31 0.33 4.62 0.66 7 1 C5.91796875 2.48828125 5.91796875 2.48828125 4 4 C0.86328125 4.29296875 0.86328125 4.29296875 -2.6875 4.1875 C-4.45673828 4.14689453 -4.45673828 4.14689453 -6.26171875 4.10546875 C-7.61716797 4.05326172 -7.61716797 4.05326172 -9 4 C-9.33 3.34 -9.66 2.68 -10 2 C-6.7 2 -3.4 2 0 2 C0 1.34 0 0.68 0 0 Z " fill="#EEA91D" transform="translate(285,361)"/>
<path d="M0 0 C2.16385601 3.24578402 2.7744171 5.65283567 3.625 9.4375 C3.88539063 10.57058594 4.14578125 11.70367187 4.4140625 12.87109375 C5 16 5 16 5 20 C4.34 20 3.68 20 3 20 C2.77213542 17.94921875 2.54427083 15.8984375 2.31640625 13.84765625 C2.18113386 11.98859771 2.18113386 11.98859771 1 11 C0.76636119 9.15108054 0.58696365 7.29511969 0.4375 5.4375 C0.35371094 4.42558594 0.26992188 3.41367188 0.18359375 2.37109375 C0.12300781 1.58863281 0.06242187 0.80617187 0 0 Z " fill="#FEFAC5" transform="translate(309,149)"/>
<path d="M0 0 C3 1 3 1 4.75 3.3125 C6 6 6 6 5.6875 8.3125 C5.460625 8.869375 5.23375 9.42625 5 10 C4.67 9.34 4.34 8.68 4 8 C3.01 8.66 2.02 9.32 1 10 C0 2.25 0 2.25 0 0 Z " fill="#F5D440" transform="translate(244,70)"/>
<path d="M0 0 C0.66 0.33 1.32 0.66 2 1 C0.12459748 5.77375186 -3.20614205 8.2027298 -7.8125 10.25 C-8.534375 10.4975 -9.25625 10.745 -10 11 C-9.8125 9.125 -9.8125 9.125 -9 7 C-7.3364521 6.32558869 -5.66933058 5.6599679 -4 5 C-1.70422757 2.48593689 -1.70422757 2.48593689 0 0 Z " fill="#FDE543" transform="translate(67,69)"/>
<path d="M0 0 C1.32 0.99 2.64 1.98 4 3 C2.23358317 3.6987693 0.46167336 4.38366583 -1.3125 5.0625 C-2.79169922 5.63677734 -2.79169922 5.63677734 -4.30078125 6.22265625 C-7 7 -7 7 -10 6 C-3.375 2 -3.375 2 0 2 C0 1.34 0 0.68 0 0 Z " fill="#EDBA33" transform="translate(325,429)"/>
<path d="M0 0 C1.98 0.495 1.98 0.495 4 1 C4.08150744 3.06183633 4.1394194 5.12461349 4.1875 7.1875 C4.22230469 8.33605469 4.25710938 9.48460937 4.29296875 10.66796875 C3.97436317 14.29157624 3.21947332 16.14639144 1 19 C0.34 19 -0.32 19 -1 19 C-0.67386719 18.29101562 -0.34773438 17.58203125 -0.01171875 16.8515625 C1.06470065 13.81763908 1.23604195 11.57876896 1.1875 8.375 C1.18105469 7.43398437 1.17460937 6.49296875 1.16796875 5.5234375 C1.09828658 2.87399088 1.09828658 2.87399088 0 0 Z " fill="#FEF9CC" transform="translate(280,165)"/>
<path d="M0 0 C0.66 0.33 1.32 0.66 2 1 C1.29423828 2.02673828 1.29423828 2.02673828 0.57421875 3.07421875 C-1.21278593 6.39547559 -1.69805359 9.08517732 -2.1875 12.8125 C-2.42533203 14.55466797 -2.42533203 14.55466797 -2.66796875 16.33203125 C-2.77753906 17.21246094 -2.88710937 18.09289062 -3 19 C-3.33 19 -3.66 19 -4 19 C-4 14.38 -4 9.76 -4 5 C-3.34 5 -2.68 5 -2 5 C-2 3.68 -2 2.36 -2 1 C-1.34 0.67 -0.68 0.34 0 0 Z " fill="#FEFCCD" transform="translate(226,71)"/>
<path d="M0 0 C1.32 0.66 2.64 1.32 4 2 C2.63875 3.0828125 2.63875 3.0828125 1.25 4.1875 C-1.5701994 6.52652794 -3.80906658 9.05066655 -6 12 C-5.67 10.02 -5.34 8.04 -5 6 C-4.01 5.67 -3.02 5.34 -2 5 C-1.33820153 3.01954441 -1.33820153 3.01954441 -1 1 C-0.67 0.67 -0.34 0.34 0 0 Z " fill="#F3D73D" transform="translate(218,55)"/>
<path d="M0 0 C0.625 1.875 0.625 1.875 1 4 C0.34 4.66 -0.32 5.32 -1 6 C-3.625 5.625 -3.625 5.625 -6 5 C-6 3.68 -6 2.36 -6 1 C-4.02 0.67 -2.04 0.34 0 0 Z " fill="#FCE742" transform="translate(100,44)"/>
<path d="M0 0 C0.66 0.33 1.32 0.66 2 1 C1.67 2.98 1.34 4.96 1 7 C-0.65 6.67 -2.3 6.34 -4 6 C-3.67 4.35 -3.34 2.7 -3 1 C-2.01 0.67 -1.02 0.34 0 0 Z " fill="#FAC721" transform="translate(401,380)"/>
<path d="M0 0 C0.66 0 1.32 0 2 0 C2.66 0.99 3.32 1.98 4 3 C6.56282742 3.72965366 6.56282742 3.72965366 9 4 C9.33 6.31 9.66 8.62 10 11 C5.86062408 7.69984002 2.41337795 4.82675589 0 0 Z " fill="#EDBE38" transform="translate(50,363)"/>
<path d="M0 0 C0.99 0.33 1.98 0.66 3 1 C3 1.66 3 2.32 3 3 C3.66 3 4.32 3 5 3 C5 4.32 5 5.64 5 7 C5.66 7 6.32 7 7 7 C7.66 9.31 8.32 11.62 9 14 C5.15237434 10.5798883 2.39365978 6.53225744 0 2 C0 1.34 0 0.68 0 0 Z " fill="#EBBF40" transform="translate(31,336)"/>
<path d="M0 0 C0.66 0.33 1.32 0.66 2 1 C0.22970554 2.29240512 -1.54125498 3.58389793 -3.3125 4.875 C-4.29863281 5.59429687 -5.28476563 6.31359375 -6.30078125 7.0546875 C-8.17523115 8.4055935 -10.07752993 9.71835329 -12 11 C-12.33 10.01 -12.66 9.02 -13 8 C-10.880788 6.63594382 -8.75551882 5.28368225 -6.625 3.9375 C-6.02171875 3.54755859 -5.4184375 3.15761719 -4.796875 2.75585938 C-3.23507443 1.77539568 -1.62007786 0.88083925 0 0 Z " fill="#EDDF84" transform="translate(203,109)"/>
<path d="M0 0 C4.41309542 3.15221101 7.00793014 6.55463907 10 11 C9.67 11.66 9.34 12.32 9 13 C8.01 12.67 7.02 12.34 6 12 C5.87625 11.4225 5.7525 10.845 5.625 10.25 C5.11355167 7.69325277 5.11355167 7.69325277 2.4375 5.4375 C1.633125 4.633125 0.82875 3.82875 0 3 C0 2.01 0 1.02 0 0 Z " fill="#F1DE54" transform="translate(426,87)"/>
<path d="M0 0 C2.6875 0.875 2.6875 0.875 5 2 C5 2.99 5 3.98 5 5 C5.66 5 6.32 5 7 5 C7 5.66 7 6.32 7 7 C3.08788267 5.84414715 0.1254959 4.64465038 -3 2 C-2.01 1.34 -1.02 0.68 0 0 Z " fill="#F2BD2D" transform="translate(129,420)"/>
<path d="M0 0 C3.3 0.33 6.6 0.66 10 1 C10 1.66 10 2.32 10 3 C7 5 7 5 4.3125 4.625 C3.549375 4.41875 2.78625 4.2125 2 4 C2.33 3.34 2.66 2.68 3 2 C2.01 1.34 1.02 0.68 0 0 Z " fill="#F3B415" transform="translate(144,358)"/>
<path d="M0 0 C0 0.33 0 0.66 0 1 C-0.928125 1.28875 -1.85625 1.5775 -2.8125 1.875 C-6.09791667 2.8875 -6.09791667 2.8875 -9 5 C-11.1875 5.625 -11.1875 5.625 -13 6 C-13.33 4.68 -13.66 3.36 -14 2 C-9.15758367 0.66416101 -5.06562383 -0.25328119 0 0 Z " fill="#F2AF1D" transform="translate(346,355)"/>
<path d="M0 0 C-0.66 0 -1.32 0 -2 0 C-2.66 1.65 -3.32 3.3 -4 5 C-5.98 5 -7.96 5 -10 5 C-10.33 4.34 -10.66 3.68 -11 3 C-10.34 3 -9.68 3 -9 3 C-9 2.34 -9 1.68 -9 1 C-3.375 -1.125 -3.375 -1.125 0 0 Z " fill="#ECAC21" transform="translate(362,350)"/>
<path d="M0 0 C0.66 0.66 1.32 1.32 2 2 C1.25130208 3.72526042 0.50260417 5.45052083 -0.24609375 7.17578125 C-0.89961942 8.75711021 -1.45891802 10.37675406 -2 12 C-2 11.34 -2 10.68 -2 10 C-3.32 9.34 -4.64 8.68 -6 8 C-4.02 5.36 -2.04 2.72 0 0 Z " fill="#FCBF1E" transform="translate(381,335)"/>
<path d="M0 0 C2 0 2 0 3.54296875 1.3203125 C8.0275759 6.24166286 8.0275759 6.24166286 7.875 10.4375 C7.58625 11.283125 7.2975 12.12875 7 13 C4.63456284 10.63456284 3.72458677 8.42932795 2.375 5.375 C1.92898438 4.37210937 1.48296875 3.36921875 1.0234375 2.3359375 C0.68570312 1.56507813 0.34796875 0.79421875 0 0 Z " fill="#EFBD32" transform="translate(375,294)"/>
<path d="M0 0 C1.875 0.3125 1.875 0.3125 4 1 C6 4 6 4 5.625 6.1875 C5.41875 6.785625 5.2125 7.38375 5 8 C3.68 7.67 2.36 7.34 1 7 C1 5.68 1 4.36 1 3 C0.34 2.67 -0.32 2.34 -1 2 C-0.67 1.34 -0.34 0.68 0 0 Z " fill="#FCE746" transform="translate(414,76)"/>
<path d="M0 0 C0.598125 0.350625 1.19625 0.70125 1.8125 1.0625 C0.0625 3.125 0.0625 3.125 -2.1875 5.0625 C-4.4375 4.8125 -4.4375 4.8125 -6.1875 4.0625 C-5.875 2.125 -5.875 2.125 -5.1875 0.0625 C-2.1875 -0.9375 -2.1875 -0.9375 0 0 Z " fill="#F4CA31" transform="translate(108.1875,283.9375)"/>
<path d="M0 0 C1.2065625 0.0309375 1.2065625 0.0309375 2.4375 0.0625 C2.7675 1.0525 3.0975 2.0425 3.4375 3.0625 C2.125 5.25 2.125 5.25 0.4375 7.0625 C-0.2225 7.0625 -0.8825 7.0625 -1.5625 7.0625 C-2.2225 5.0825 -2.8825 3.1025 -3.5625 1.0625 C-2.5625 0.0625 -2.5625 0.0625 0 0 Z " fill="#FEE137" transform="translate(265.5625,61.9375)"/>
<path d="M0 0 C3.29078593 2.79716804 5.06305458 6.19528578 7 10 C6 12 6 12 4 13 C3.32942113 11.2097939 2.6636531 9.41778511 2 7.625 C1.62875 6.62726563 1.2575 5.62953125 0.875 4.6015625 C0 2 0 2 0 0 Z " fill="#EFDD7C" transform="translate(306,139)"/>
<path d="M0 0 C7.48291572 6.15034169 7.48291572 6.15034169 10 10 C8.35 10 6.7 10 5 10 C4.9175 9.401875 4.835 8.80375 4.75 8.1875 C3.79394921 5.39901853 2.32024306 4.72147066 0 3 C0 2.01 0 1.02 0 0 Z " fill="#EDDC55" transform="translate(408,67)"/>
<path d="M0 0 C0.66 0 1.32 0 2 0 C0.61811547 3.21043882 -0.92421903 5.04936365 -3.625 7.25 C-4.57246094 8.03117187 -4.57246094 8.03117187 -5.5390625 8.828125 C-6.02117187 9.21484375 -6.50328125 9.6015625 -7 10 C-7.33 9.01 -7.66 8.02 -8 7 C-7.01 7 -6.02 7 -5 7 C-4.731875 6.360625 -4.46375 5.72125 -4.1875 5.0625 C-3 3 -3 3 0 2 C0 1.34 0 0.68 0 0 Z " fill="#FDF0B9" transform="translate(262,345)"/>
<path d="M0 0 C2.33136151 2.8612164 3.72656129 5.5435235 5 9 C5.33 9.66 5.66 10.32 6 11 C5.01 11 4.02 11 3 11 C2.67 11.66 2.34 12.32 2 13 C1.05675742 8.68803391 0.51958285 4.37934119 0 0 Z " fill="#F5BB29" transform="translate(92,331)"/>
<path d="M0 0 C3.39417765 3.12621626 5.6062718 5.56541027 7 10 C4.69 9.01 2.38 8.02 0 7 C0 4.69 0 2.38 0 0 Z " fill="#FEFDD4" transform="translate(311,127)"/>
<path d="M0 0 C1.32 1.32 2.64 2.64 4 4 C3.01 4.33 2.02 4.66 1 5 C0.34 5.66 -0.32 6.32 -1 7 C-1.99 5.68 -2.98 4.36 -4 3 C-2.68 2.01 -1.36 1.02 0 0 Z " fill="#F4C128" transform="translate(72,379)"/>
<path d="M0 0 C3.63 0 7.26 0 11 0 C9.02 0.99 9.02 0.99 7 2 C6.67 2.66 6.34 3.32 6 4 C5.38125 3.649375 4.7625 3.29875 4.125 2.9375 C3.42375 2.628125 2.7225 2.31875 2 2 C1.01 2.495 1.01 2.495 0 3 C0 2.01 0 1.02 0 0 Z " fill="#EEAC12" transform="translate(231,360)"/>
<path d="M0 0 C4.29 0 8.58 0 13 0 C13.33 0.99 13.66 1.98 14 3 C4.58997722 2.03644647 4.58997722 2.03644647 0 1 C0 0.67 0 0.34 0 0 Z " fill="#FBEEBC" transform="translate(134,354)"/>
<path d="M0 0 C3.63 0.33 7.26 0.66 11 1 C10.67 1.66 10.34 2.32 10 3 C9.34 3 8.68 3 8 3 C8 3.66 8 4.32 8 5 C7.34 4.67 6.68 4.34 6 4 C5.34 3.87625 4.68 3.7525 4 3.625 C2 3 2 3 0 0 Z " fill="#F6E351" transform="translate(280,4)"/>
<path d="M0 0 C-3.33909037 2.22606025 -6.09914263 3.11033078 -10 4 C-12.22265625 3.55078125 -12.22265625 3.55078125 -14 3 C-9.05485878 0.07558908 -5.81671503 -1.74501451 0 0 Z " fill="#EAB83D" transform="translate(315,436)"/>
<path d="M0 0 C1.32 0.33 2.64 0.66 4 1 C1.03 4.96 1.03 4.96 -2 9 C-2.66 7.68 -3.32 6.36 -4 5 C-2.68 4.67 -1.36 4.34 0 4 C0 2.68 0 1.36 0 0 Z " fill="#EFC134" transform="translate(430,352)"/>
<path d="M0 0 C1.25640898 2.51281795 1.20872719 4.21697081 1 7 C0.34 7.66 -0.32 8.32 -1 9 C-1.39764263 10.98821313 -1.73775349 12.98944339 -2 15 C-2.33 15 -2.66 15 -3 15 C-3.35050464 9.158256 -3.16727335 5.1468192 0 0 Z " fill="#FDF8D7" transform="translate(220,324)"/>
<path d="M0 0 C0.99 0.33 1.98 0.66 3 1 C2.67 3.31 2.34 5.62 2 8 C1.01 7.34 0.02 6.68 -1 6 C-1 5.34 -1 4.68 -1 4 C-1.66 3.67 -2.32 3.34 -3 3 C-2.01 2.34 -1.02 1.68 0 1 C0 0.67 0 0.34 0 0 Z " fill="#FEE23A" transform="translate(257,52)"/>
<path d="M0 0 C0.66 0.33 1.32 0.66 2 1 C-2.455 4.465 -2.455 4.465 -7 8 C-7.33 7.01 -7.66 6.02 -8 5 C-5.31158141 2.74754119 -3.35358125 1.11786042 0 0 Z " fill="#EDBC39" transform="translate(394,392)"/>
<path d="M0 0 C4.72224516 1.53472968 9.35855331 3.23945126 14 5 C8.05319149 6.5212766 8.05319149 6.5212766 5 6 C3.02452221 4.14866426 1.60837963 2.20577778 0 0 Z " fill="#E4AA2A" transform="translate(104,345)"/>
<path d="M0 0 C0.66 0.33 1.32 0.66 2 1 C0.48328036 5.55015893 -3.16891053 7.50057264 -7 10 C-5.6062718 5.56541027 -3.39417765 3.12621626 0 0 Z " fill="#FEF7C6" transform="translate(104,289)"/>
<path d="M0 0 C1.90318884 2.85478326 2.4619099 4.41941308 3.125 7.6875 C3.29257812 8.49574219 3.46015625 9.30398437 3.6328125 10.13671875 C3.75398438 10.75160156 3.87515625 11.36648437 4 12 C2.68 11.34 1.36 10.68 0 10 C0 6.7 0 3.4 0 0 Z " fill="#FEF6C3" transform="translate(344,237)"/>
<path d="M0 0 C1.46184058 0.22860058 2.91955419 0.48370392 4.375 0.75 C5.59316406 0.95882813 5.59316406 0.95882813 6.8359375 1.171875 C9 2 9 2 10.2890625 4.078125 C10.64097656 5.02945312 10.64097656 5.02945312 11 6 C6.95743617 4.77782954 3.50711041 3.37245704 0 1 C0 0.67 0 0.34 0 0 Z " fill="#EDBC3C" transform="translate(114,416)"/>
<path d="M0 0 C-1.32 1.32 -2.64 2.64 -4 4 C-7 3 -7 3 -9 0 C-2.25 -1.125 -2.25 -1.125 0 0 Z " fill="#FBEB89" transform="translate(320,265)"/>
<path d="M0 0 C0.33 0 0.66 0 1 0 C1 1.65 1 3.3 1 5 C0.34 5 -0.32 5 -1 5 C-1.33 5.99 -1.66 6.98 -2 8 C-2.99 8 -3.98 8 -5 8 C-3.6299034 5.0490227 -2.06764583 2.51713405 0 0 Z " fill="#FEFCD1" transform="translate(163,125)"/>
<path d="M0 0 C4.18845544 0.59835078 8.05748707 1.4413321 12 3 C12.33 3.66 12.66 4.32 13 5 C8.39146203 4.27991594 4.32762591 2.68704061 0 1 C0 0.67 0 0.34 0 0 Z " fill="#E9B73C" transform="translate(143,430)"/>
<path d="M0 0 C1.17487036 0.75827092 2.33972592 1.53207755 3.5 2.3125 C4.47453125 2.95638672 4.47453125 2.95638672 5.46875 3.61328125 C5.9740625 4.07089844 6.479375 4.52851563 7 5 C7 5.99 7 6.98 7 8 C5.68 7.67 4.36 7.34 3 7 C3.33 6.67 3.66 6.34 4 6 C3.01 5.67 2.02 5.34 1 5 C0.67 3.35 0.34 1.7 0 0 Z " fill="#F4E79F" transform="translate(222,350)"/>
<path d="M0 0 C0.99 0 1.98 0 3 0 C3 0.66 3 1.32 3 2 C3.66 2 4.32 2 5 2 C4.67 3.98 4.34 5.96 4 8 C1.84622436 5.37801226 0.59927826 3.35595828 0 0 Z " fill="#F1C23B" transform="translate(20,316)"/>
<path d="M0 0 C2.4375 0.375 2.4375 0.375 5 1 C5.33 1.66 5.66 2.32 6 3 C4.02 3.66 2.04 4.32 0 5 C0 3.35 0 1.7 0 0 Z " fill="#F8D93E" transform="translate(192,97)"/>
<path d="M0 0 C0.66 0.33 1.32 0.66 2 1 C-0.19924069 4.35673579 -2.38269598 6.23772368 -6 8 C-6.66 7.67 -7.32 7.34 -8 7 C-5.36 4.69 -2.72 2.38 0 0 Z " fill="#FDE946" transform="translate(83,54)"/>
<path d="M0 0 C0.66 0.99 1.32 1.98 2 3 C-1.3 3.33 -4.6 3.66 -8 4 C-8 3.01 -8 2.02 -8 1 C-5.36 1.33 -2.72 1.66 0 2 C0 1.34 0 0.68 0 0 Z " fill="#FEC422" transform="translate(293,438)"/>
<path d="M0 0 C0.66 1.32 1.32 2.64 2 4 C0.02 4.99 0.02 4.99 -2 6 C-2.99 5.01 -3.98 4.02 -5 3 C-3.35 2.01 -1.7 1.02 0 0 Z " fill="#F2C12C" transform="translate(114,410)"/>
<path d="M0 0 C0.99 0.33 1.98 0.66 3 1 C3.33 2.98 3.66 4.96 4 7 C2.02 5.68 0.04 4.36 -2 3 C-1.34 2.67 -0.68 2.34 0 2 C0 1.34 0 0.68 0 0 Z " fill="#F1BE2D" transform="translate(89,396)"/>
<path d="M0 0 C0.66 0.33 1.32 0.66 2 1 C-1.88309282 4.64775386 -4.71201818 5.58525633 -10 6 C-6.87511433 3.47605388 -3.68685613 1.60298093 0 0 Z " fill="#E2A831" transform="translate(372,343)"/>
<path d="M0 0 C2.22825644 2.22825644 2.69239369 3.65761628 3.625 6.625 C4.01558594 7.85089844 4.01558594 7.85089844 4.4140625 9.1015625 C4.60742188 9.72804688 4.80078125 10.35453125 5 11 C4.34 11 3.68 11 3 11 C0 4.5 0 4.5 0 0 Z " fill="#FEF6C0" transform="translate(353,265)"/>
<path d="M0 0 C4.83256305 0.41421969 6.82679218 2.46413986 10 6 C9.67 6.66 9.34 7.32 9 8 C7.87411986 7.04270084 6.7493285 6.08412105 5.625 5.125 C4.99851563 4.59132813 4.37203125 4.05765625 3.7265625 3.5078125 C2.44163349 2.38567993 1.20628025 1.20628025 0 0 Z " fill="#EFD648" transform="translate(249,54)"/>
<path d="M0 0 C0 0.99 0 1.98 0 3 C0.66 3.33 1.32 3.66 2 4 C1.01 5.485 1.01 5.485 0 7 C-1.32 5.02 -2.64 3.04 -4 1 C-2 0 -2 0 0 0 Z " fill="#F1C534" transform="translate(49,356)"/>
<path d="M0 0 C0.66 0.33 1.32 0.66 2 1 C0.68 3.64 -0.64 6.28 -2 9 C-2.66 9 -3.32 9 -4 9 C-3.46930939 5.17902761 -2.50298434 2.93828597 0 0 Z " fill="#FFF9D0" transform="translate(274,352)"/>
<path d="M0 0 C3.42043815 0.78933188 6.73797837 1.69519135 10 3 C10.33 3.99 10.66 4.98 11 6 C10.34 6 9.68 6 9 6 C9 5.34 9 4.68 9 4 C7.68 4.33 6.36 4.66 5 5 C5 4.34 5 3.68 5 3 C4.360625 2.87625 3.72125 2.7525 3.0625 2.625 C2.381875 2.41875 1.70125 2.2125 1 2 C0.67 1.34 0.34 0.68 0 0 Z " fill="#EFAF1A" transform="translate(211,352)"/>
<path d="M0 0 C0.66 0 1.32 0 2 0 C2.33 1.65 2.66 3.3 3 5 C2.01 5.33 1.02 5.66 0 6 C0 6.66 0 7.32 0 8 C-1.32 7.67 -2.64 7.34 -4 7 C-3.34 6.5875 -2.68 6.175 -2 5.75 C-1.34 5.1725 -0.68 4.595 0 4 C0 2.68 0 1.36 0 0 Z " fill="#FBEBC2" transform="translate(365,328)"/>
<path d="M0 0 C2.1640625 -0.29296875 2.1640625 -0.29296875 4.625 -0.1875 C5.44226563 -0.16042969 6.25953125 -0.13335937 7.1015625 -0.10546875 C8.04128906 -0.05326172 8.04128906 -0.05326172 9 0 C5.36383344 1.9789756 2.11574371 2.5251065 -2 3 C-1.34 2.01 -0.68 1.02 0 0 Z " fill="#FEF6D3" transform="translate(126,318)"/>
<path d="M0 0 C1.65 0.33 3.3 0.66 5 1 C4.01 1.33 3.02 1.66 2 2 C2 2.99 2 3.98 2 5 C0.35 5 -1.3 5 -3 5 C-2.01 3.35 -1.02 1.7 0 0 Z " fill="#FBE77A" transform="translate(319,265)"/>
<path d="M0 0 C0.33 1.32 0.66 2.64 1 4 C0.34 4 -0.32 4 -1 4 C-1.103125 4.61875 -1.20625 5.2375 -1.3125 5.875 C-2 8 -2 8 -5 10 C-3.66511872 6.40608886 -2.03977277 3.24509304 0 0 Z " fill="#FEFDD6" transform="translate(177,138)"/>
<path d="M0 0 C3.91211733 1.15585285 6.8745041 2.35534962 10 5 C3.49955237 4.38675022 3.49955237 4.38675022 1.0625 2.5 C0 1 0 1 0 0 Z " fill="#EFDE59" transform="translate(343,23)"/>
<path d="M0 0 C1.2065625 0.0309375 1.2065625 0.0309375 2.4375 0.0625 C2.4375 1.0525 2.4375 2.0425 2.4375 3.0625 C1.7775 3.0625 1.1175 3.0625 0.4375 3.0625 C-0.2225 3.7225 -0.8825 4.3825 -1.5625 5.0625 C-2.2225 3.7425 -2.8825 2.4225 -3.5625 1.0625 C-2.5625 0.0625 -2.5625 0.0625 0 0 Z " fill="#FBC41E" transform="translate(359.5625,410.9375)"/>
<path d="M0 0 C1.32 0.66 2.64 1.32 4 2 C1.69 3.65 -0.62 5.3 -3 7 C-3.66 6.67 -4.32 6.34 -5 6 C-4.34 5.01 -3.68 4.02 -3 3 C-2.01 3 -1.02 3 0 3 C0 2.01 0 1.02 0 0 Z " fill="#EDBB39" transform="translate(382,399)"/>
<path d="M0 0 C0.33 0.66 0.66 1.32 1 2 C0.22265625 3.7265625 0.22265625 3.7265625 -0.9375 5.625 C-1.618125 6.73875 -2.29875 7.8525 -3 9 C-3.33 9 -3.66 9 -4 9 C-4.25 6.1875 -4.25 6.1875 -4 3 C-2 1.125 -2 1.125 0 0 Z " fill="#ECC03B" transform="translate(453,319)"/>
<path d="M0 0 C2 3 2 3 2 6 C-0.97 5.67 -3.94 5.34 -7 5 C-7 4.67 -7 4.34 -7 4 C-4.69 4 -2.38 4 0 4 C0 2.68 0 1.36 0 0 Z " fill="#FFFAC8" transform="translate(330,261)"/>
<path d="M0 0 C0.33 0 0.66 0 1 0 C1.25 3.3125 1.25 3.3125 1 7 C-0.32 7.99 -1.64 8.98 -3 10 C-2.01 6.7 -1.02 3.4 0 0 Z " fill="#FEF9C9" transform="translate(123,257)"/>
<path d="M0 0 C0.99 0 1.98 0 3 0 C2.67 2.97 2.34 5.94 2 9 C1.67 9 1.34 9 1 9 C0.67 6.03 0.34 3.06 0 0 Z " fill="#FEEA6B" transform="translate(315,165)"/>
<path d="M0 0 C0.66 1.32 1.32 2.64 2 4 C0.35 5.65 -1.3 7.3 -3 9 C-2.01 6.03 -1.02 3.06 0 0 Z " fill="#FFFBCD" transform="translate(151,143)"/>
<path d="M0 0 C0 4.38968456 -2.12805101 5.76905739 -5 9 C-5.66 8.67 -6.32 8.34 -7 8 C-4.69 5.36 -2.38 2.72 0 0 Z " fill="#FEFCD2" transform="translate(193,118)"/>
<path d="M0 0 C2.88437779 1.29299694 4.87219421 2.65941363 7 5 C4.625 5.125 4.625 5.125 2 5 C1.34 4.34 0.68 3.68 0 3 C0 2.01 0 1.02 0 0 Z " fill="#FDFCD0" transform="translate(289,106)"/>
<path d="M0 0 C0.99 0.33 1.98 0.66 3 1 C3 2.98 3 4.96 3 7 C1.68 6.34 0.36 5.68 -1 5 C-0.67 3.35 -0.34 1.7 0 0 Z " fill="#FCDF35" transform="translate(184,99)"/>
<path d="M0 0 C2.97 1.65 5.94 3.3 9 5 C7.68 5.33 6.36 5.66 5 6 C4.01 5.34 3.02 4.68 2 4 C2 3.34 2 2.68 2 2 C1.34 2 0.68 2 0 2 C0 1.34 0 0.68 0 0 Z " fill="#EFDB5C" transform="translate(371,38)"/>
<path d="M0 0 C-2.96687001 1.64826111 -5.65626525 2.44271087 -9 3 C-9 2.34 -9 1.68 -9 1 C-3.375 -1.125 -3.375 -1.125 0 0 Z " fill="#FDEC46" transform="translate(165,13)"/>
<path d="M0 0 C0.99 0 1.98 0 3 0 C2.67 2.97 2.34 5.94 2 9 C1.34 8.67 0.68 8.34 0 8 C-0.6875 4.5 -0.6875 4.5 -1 1 C-0.67 0.67 -0.34 0.34 0 0 Z " fill="#F1AF15" transform="translate(267,354)"/>
<path d="M0 0 C0.99 0.33 1.98 0.66 3 1 C3.33 2.65 3.66 4.3 4 6 C3.01 6 2.02 6 1 6 C0.67 4.02 0.34 2.04 0 0 Z " fill="#F3C62E" transform="translate(40,347)"/>
<path d="M0 0 C0.99 0 1.98 0 3 0 C1.8141763 3.37503669 0.72426311 5.64722731 -2 8 C-1.125 2.25 -1.125 2.25 0 0 Z " fill="#ECBE3F" transform="translate(439,340)"/>
<path d="M0 0 C0.66 0.33 1.32 0.66 2 1 C2 1.99 2 2.98 2 4 C2.66 4.33 3.32 4.66 4 5 C3.67 5.66 3.34 6.32 3 7 C1.02 5.35 -0.96 3.7 -3 2 C-2.01 1.34 -1.02 0.68 0 0 Z " fill="#EDC43E" transform="translate(365,281)"/>
<path d="M0 0 C5.75 1.625 5.75 1.625 8 5 C5.36 4.34 2.72 3.68 0 3 C0 2.01 0 1.02 0 0 Z " fill="#F1E79A" transform="translate(267,103)"/>
<path d="M0 0 C1.65 0 3.3 0 5 0 C4 2 3 4 2 6 C1.01 4.68 0.02 3.36 -1 2 C-0.67 1.34 -0.34 0.68 0 0 Z " fill="#FEE641" transform="translate(390,56)"/>
</svg>
